IBM Plex Sans Var-Italic.ufo
<glyph name="exclam" format="1">
  <advance width="271"/>
  <unicode hex="0021"/>
  <outline>
    <contour>
      <point x="140" y="185" type="line" name="hr01"/>
      <point x="224" y="494" type="line"/>
      <point x="265" y="698" type="line"/>
      <point x="182" y="698" type="line"/>
      <point x="141" y="494" type="line"/>
      <point x="102" y="185" type="line"/>
    </contour>
    <contour>
      <point x="88" y="-12" type="curve" smooth="yes"/>
      <point x="133" y="-12"/>
      <point x="147" y="16"/>
      <point x="153" y="43" type="curve" smooth="yes"/>
      <point x="155" y="53"/>
      <point x="157" y="68"/>
      <point x="157" y="77" type="curve" smooth="yes"/>
      <point x="157" y="103"/>
      <point x="138" y="117"/>
      <point x="106" y="117" type="curve" smooth="yes"/>
      <point x="61" y="117"/>
      <point x="47" y="89"/>
      <point x="41" y="62" type="curve" smooth="yes"/>
      <point x="39" y="52"/>
      <point x="37" y="37"/>
      <point x="37" y="28" type="curve" smooth="yes"/>
      <point x="37" y="2"/>
      <point x="56" y="-12"/>
    </contour>
  </outline>
</glyph>
<glyph name="numbersign" format="1">
  <advance width="681"/>
  <unicode hex="0023"/>
  <outline>
    <contour>
      <point x="298" y="0" type="line" name="hr01"/>
      <point x="365" y="0" type="line"/>
      <point x="441" y="205" type="line"/>
      <point x="577" y="205" type="line"/>
      <point x="588" y="263" type="line"/>
      <point x="462" y="263" type="line"/>
      <point x="524" y="435" type="line"/>
      <point x="661" y="435" type="line"/>
      <point x="672" y="493" type="line"/>
      <point x="546" y="493" type="line"/>
      <point x="621" y="698" type="line"/>
      <point x="554" y="698" type="line"/>
      <point x="479" y="493" type="line"/>
      <point x="346" y="493" type="line"/>
      <point x="421" y="698" type="line"/>
      <point x="354" y="698" type="line"/>
      <point x="279" y="493" type="line"/>
      <point x="142" y="493" type="line"/>
      <point x="131" y="435" type="line"/>
      <point x="257" y="435" type="line"/>
      <point x="195" y="263" type="line"/>
      <point x="58" y="263" type="line"/>
      <point x="47" y="205" type="line"/>
      <point x="174" y="205" type="line"/>
      <point x="98" y="0" type="line"/>
      <point x="165" y="0" type="line"/>
      <point x="241" y="205" type="line"/>
      <point x="374" y="205" type="line"/>
    </contour>
    <contour>
      <point x="262" y="263" type="line"/>
      <point x="324" y="435" type="line"/>
      <point x="457" y="435" type="line"/>
      <point x="395" y="263" type="line"/>
    </contour>
  </outline>
</glyph>
<glyph name="dollar" format="1">
  <advance width="579"/>
  <unicode hex="0024"/>
  <outline>
    <contour>
      <point x="242" y="-82" type="line"/>
      <point x="266" y="34" type="line"/>
      <point x="269" y="54" type="line"/>
      <point x="389" y="654" type="line"/>
      <point x="392" y="664" type="line"/>
      <point x="416" y="780" type="line"/>
      <point x="356" y="780" type="line"/>
      <point x="332" y="664" type="line"/>
      <point x="331" y="654" type="line"/>
      <point x="211" y="54" type="line"/>
      <point x="206" y="34" type="line"/>
      <point x="182" y="-82" type="line"/>
    </contour>
    <contour>
      <point x="510" y="219" type="curve" smooth="yes"/>
      <point x="510" y="311"/>
      <point x="462" y="362"/>
      <point x="332" y="390" type="curve" smooth="yes"/>
      <point x="286" y="400" type="line" smooth="yes"/>
      <point x="213" y="416"/>
      <point x="184" y="451"/>
      <point x="184" y="506" type="curve" smooth="yes"/>
      <point x="184" y="579"/>
      <point x="242" y="631"/>
      <point x="342" y="629" type="curve" smooth="yes"/>
      <point x="433" y="627"/>
      <point x="480" y="578"/>
      <point x="500" y="539" type="curve"/>
      <point x="563" y="587" type="line"/>
      <point x="532" y="651"/>
      <point x="459" y="697"/>
      <point x="353" y="700" type="curve" smooth="yes"/>
      <point x="219" y="704"/>
      <point x="103" y="628"/>
      <point x="103" y="499" type="curve" smooth="yes"/>
      <point x="103" y="408"/>
      <point x="153" y="354"/>
      <point x="270" y="331" type="curve" smooth="yes"/>
      <point x="315" y="322" type="line" smooth="yes"/>
      <point x="400" y="305"/>
      <point x="429" y="268"/>
      <point x="429" y="211" type="curve" smooth="yes"/>
      <point x="429" y="138"/>
      <point x="372" y="68"/>
      <point x="252" y="68" type="curve" smooth="yes"/>
      <point x="154" y="68"/>
      <point x="102" y="112"/>
      <point x="70" y="169" type="curve"/>
      <point x="11" y="120" type="line"/>
      <point x="47" y="52"/>
      <point x="126" y="-2"/>
      <point x="233" y="-2" type="curve" smooth="yes"/>
      <point x="412" y="-2"/>
      <point x="510" y="93"/>
    </contour>
  </outline>
</glyph>
<glyph name="percent" format="1">
  <advance width="900"/>
  <unicode hex="0025"/>
  <outline>
    <contour>
      <point x="284" y="660" type="curve" smooth="yes"/>
      <point x="326" y="660"/>
      <point x="349" y="633"/>
      <point x="349" y="585" type="curve" smooth="yes"/>
      <point x="349" y="574"/>
      <point x="347" y="558"/>
      <point x="345" y="548" type="curve" smooth="yes"/>
      <point x="331" y="480" type="line" smooth="yes"/>
      <point x="316" y="408"/>
      <point x="284" y="364"/>
      <point x="233" y="364" type="curve" smooth="yes"/>
      <point x="191" y="364"/>
      <point x="168" y="391"/>
      <point x="168" y="439" type="curve" smooth="yes"/>
      <point x="168" y="450"/>
      <point x="170" y="466"/>
      <point x="172" y="476" type="curve" smooth="yes"/>
      <point x="186" y="544" type="line" smooth="yes"/>
      <point x="201" y="616"/>
      <point x="233" y="660"/>
    </contour>
    <contour>
      <point x="636" y="38" type="curve" smooth="yes"/>
      <point x="594" y="38"/>
      <point x="571" y="65"/>
      <point x="571" y="113" type="curve" smooth="yes"/>
      <point x="571" y="124"/>
      <point x="573" y="140"/>
      <point x="575" y="150" type="curve" smooth="yes"/>
      <point x="589" y="218" type="line" smooth="yes"/>
      <point x="604" y="290"/>
      <point x="636" y="334"/>
      <point x="687" y="334" type="curve" smooth="yes"/>
      <point x="729" y="334"/>
      <point x="752" y="307"/>
      <point x="752" y="259" type="curve" smooth="yes"/>
      <point x="752" y="248"/>
      <point x="750" y="232"/>
      <point x="748" y="222" type="curve" smooth="yes"/>
      <point x="734" y="154" type="line" smooth="yes"/>
      <point x="719" y="82"/>
      <point x="687" y="38"/>
    </contour>
    <contour>
      <point x="290" y="710" type="curve" smooth="yes"/>
      <point x="191" y="710"/>
      <point x="127" y="628"/>
      <point x="108" y="525" type="curve" smooth="yes"/>
      <point x="104" y="503"/>
      <point x="102" y="480"/>
      <point x="102" y="457" type="curve" smooth="yes"/>
      <point x="102" y="367"/>
      <point x="148" y="314"/>
      <point x="227" y="314" type="curve" smooth="yes" name="hr01"/>
      <point x="326" y="314"/>
      <point x="390" y="396"/>
      <point x="409" y="499" type="curve" smooth="yes"/>
      <point x="413" y="521"/>
      <point x="415" y="544"/>
      <point x="415" y="567" type="curve" smooth="yes"/>
      <point x="415" y="657"/>
      <point x="369" y="710"/>
    </contour>
    <contour>
      <point x="693" y="384" type="curve" smooth="yes"/>
      <point x="594" y="384"/>
      <point x="530" y="302"/>
      <point x="511" y="199" type="curve" smooth="yes"/>
      <point x="507" y="177"/>
      <point x="505" y="154"/>
      <point x="505" y="131" type="curve" smooth="yes"/>
      <point x="505" y="41"/>
      <point x="551" y="-12"/>
      <point x="630" y="-12" type="curve" smooth="yes" name="hr01"/>
      <point x="729" y="-12"/>
      <point x="793" y="70"/>
      <point x="812" y="173" type="curve" smooth="yes"/>
      <point x="816" y="195"/>
      <point x="818" y="218"/>
      <point x="818" y="241" type="curve" smooth="yes"/>
      <point x="818" y="331"/>
      <point x="772" y="384"/>
    </contour>
    <contour>
      <point x="198" y="0" type="line"/>
      <point x="802" y="698" type="line"/>
      <point x="722" y="698" type="line"/>
      <point x="118" y="0" type="line"/>
    </contour>
  </outline>
</glyph>
<glyph name="ampersand" format="1">
  <advance width="670"/>
  <unicode hex="0026"/>
  <outline>
    <contour>
      <point x="494" y="0" type="line"/>
      <point x="580" y="0" type="line"/>
      <point x="477" y="144" type="line"/>
      <point x="506" y="189"/>
      <point x="530" y="243"/>
      <point x="549" y="300" type="curve"/>
      <point x="618" y="300" type="line"/>
      <point x="632" y="368" type="line"/>
      <point x="499" y="368" type="line"/>
      <point x="485" y="310"/>
      <point x="465" y="252"/>
      <point x="436" y="201" type="curve"/>
      <point x="322" y="361" type="line"/>
      <point x="413" y="406"/>
      <point x="514" y="470"/>
      <point x="514" y="579" type="curve" smooth="yes"/>
      <point x="514" y="668"/>
      <point x="441" y="710"/>
      <point x="367" y="710" type="curve" smooth="yes"/>
      <point x="247" y="710"/>
      <point x="173" y="612"/>
      <point x="173" y="512" type="curve" smooth="yes"/>
      <point x="173" y="458"/>
      <point x="196" y="414"/>
      <point x="221" y="379" type="curve" smooth="yes"/>
      <point x="131" y="334"/>
      <point x="37" y="271"/>
      <point x="37" y="151" type="curve" smooth="yes"/>
      <point x="37" y="55"/>
      <point x="98" y="-12"/>
      <point x="214" y="-12" type="curve" smooth="yes" name=""/>
      <point x="298" y="-12"/>
      <point x="372" y="22"/>
      <point x="432" y="84" type="curve"/>
      <point x="434" y="84" type="line"/>
    </contour>
    <contour>
      <point x="360" y="645" type="curve" smooth="yes"/>
      <point x="405" y="645"/>
      <point x="438" y="617"/>
      <point x="438" y="566" type="curve" smooth="yes"/>
      <point x="438" y="491"/>
      <point x="365" y="447"/>
      <point x="287" y="410" type="curve"/>
      <point x="256" y="453"/>
      <point x="247" y="484"/>
      <point x="247" y="517" type="curve" smooth="yes"/>
      <point x="247" y="527"/>
      <point x="248" y="536"/>
      <point x="250" y="546" type="curve" smooth="yes"/>
      <point x="261" y="602"/>
      <point x="303" y="645"/>
    </contour>
    <contour>
      <point x="229" y="56" type="curve" smooth="yes" name=""/>
      <point x="155" y="56"/>
      <point x="114" y="95"/>
      <point x="114" y="163" type="curve" smooth="yes"/>
      <point x="114" y="174"/>
      <point x="115" y="184"/>
      <point x="117" y="194" type="curve" smooth="yes"/>
      <point x="130" y="261"/>
      <point x="186" y="296"/>
      <point x="256" y="330" type="curve"/>
      <point x="394" y="139" type="line"/>
      <point x="352" y="89"/>
      <point x="297" y="56"/>
    </contour>
  </outline>
</glyph>
<glyph name="quotesingle" format="1">
  <advance width="233"/>
  <unicode hex="0027"/>
  <outline>
    <contour>
      <point x="192" y="460" type="line" name="hr00"/>
      <point x="248" y="740" type="line"/>
      <point x="177" y="740" type="line"/>
      <point x="121" y="460" type="line"/>
    </contour>
  </outline>
</glyph>
<glyph name="parenleft" format="1">
  <advance width="328"/>
  <unicode hex="0028"/>
  <outline>
    <contour>
      <point x="76" y="198" type="curve" smooth="yes" name="hr00"/>
      <point x="76" y="53"/>
      <point x="121" y="-63"/>
      <point x="178" y="-137" type="curve"/>
      <point x="245" y="-137" type="line"/>
      <point x="180" y="-51"/>
      <point x="144" y="68"/>
      <point x="144" y="190" type="curve" smooth="yes"/>
      <point x="144" y="222"/>
      <point x="147" y="254"/>
      <point x="153" y="284" type="curve" smooth="yes"/>
      <point x="170" y="369" type="line" smooth="yes"/>
      <point x="197" y="504"/>
      <point x="298" y="657"/>
      <point x="426" y="760" type="curve"/>
      <point x="350" y="760" type="line"/>
      <point x="208" y="648"/>
      <point x="76" y="447"/>
    </contour>
  </outline>
</glyph>
<glyph name="parenright" format="1">
  <advance width="328"/>
  <unicode hex="0029"/>
  <outline>
    <contour>
      <point x="274" y="425" type="curve" smooth="yes" name="hr00"/>
      <point x="274" y="570"/>
      <point x="229" y="686"/>
      <point x="172" y="760" type="curve"/>
      <point x="105" y="760" type="line"/>
      <point x="170" y="674"/>
      <point x="206" y="555"/>
      <point x="206" y="433" type="curve" smooth="yes"/>
      <point x="206" y="401"/>
      <point x="203" y="369"/>
      <point x="197" y="339" type="curve" smooth="yes"/>
      <point x="180" y="254" type="line" smooth="yes"/>
      <point x="153" y="119"/>
      <point x="52" y="-34"/>
      <point x="-76" y="-137" type="curve"/>
      <point x="0" y="-137" type="line"/>
      <point x="142" y="-25"/>
      <point x="274" y="176"/>
    </contour>
  </outline>
</glyph>
<glyph name="asterisk" format="1">
  <advance width="452"/>
  <unicode hex="002A"/>
  <outline>
    <contour>
      <point x="276" y="511" type="line" name=""/>
      <point x="278" y="511" type="line"/>
      <point x="336" y="385" type="line"/>
      <point x="394" y="424" type="line"/>
      <point x="326" y="541" type="line"/>
      <point x="327" y="543" type="line"/>
      <point x="474" y="583" type="line"/>
      <point x="462" y="647" type="line"/>
      <point x="321" y="595" type="line"/>
      <point x="319" y="597" type="line"/>
      <point x="354" y="747" type="line"/>
      <point x="286" y="747" type="line"/>
      <point x="262" y="597" type="line"/>
      <point x="260" y="595" type="line"/>
      <point x="134" y="648" type="line"/>
      <point x="103" y="583" type="line"/>
      <point x="236" y="546" type="line"/>
      <point x="237" y="544" type="line"/>
      <point x="120" y="425" type="line"/>
      <point x="172" y="380" type="line"/>
    </contour>
  </outline>
</glyph>
<glyph name="plus" format="1">
  <advance width="600"/>
  <unicode hex="002B"/>
  <outline>
    <contour>
      <point x="298" y="62" type="line" name="hr00"/>
      <point x="340" y="272" type="line"/>
      <point x="528" y="272" type="line"/>
      <point x="541" y="338" type="line"/>
      <point x="354" y="338" type="line"/>
      <point x="396" y="548" type="line"/>
      <point x="323" y="548" type="line"/>
      <point x="281" y="338" type="line"/>
      <point x="91" y="338" type="line"/>
      <point x="78" y="272" type="line"/>
      <point x="267" y="272" type="line"/>
      <point x="225" y="62" type="line"/>
    </contour>
  </outline>
</glyph>
<glyph name="comma" format="1">
  <advance width="273"/>
  <unicode hex="002C"/>
  <outline>
    <contour>
      <point x="102" y="117" type="curve" smooth="yes" name="hr00"/>
      <point x="57" y="117"/>
      <point x="43" y="89"/>
      <point x="37" y="62" type="curve" smooth="yes"/>
      <point x="35" y="52"/>
      <point x="33" y="40"/>
      <point x="33" y="31" type="curve" smooth="yes"/>
      <point x="33" y="10"/>
      <point x="45" y="-1"/>
      <point x="66" y="-6" type="curve"/>
      <point x="45" y="-51"/>
      <point x="17" y="-90"/>
      <point x="-32" y="-133" type="curve"/>
      <point x="33" y="-133" type="line"/>
      <point x="101" y="-84"/>
      <point x="138" y="-5"/>
      <point x="149" y="46" type="curve" smooth="yes"/>
      <point x="151" y="56"/>
      <point x="153" y="68"/>
      <point x="153" y="77" type="curve" smooth="yes"/>
      <point x="153" y="103"/>
      <point x="134" y="117"/>
    </contour>
  </outline>
</glyph>
<glyph name="hyphen" format="1">
  <advance width="387"/>
  <unicode hex="002D"/>
  <outline>
    <contour>
      <point x="320" y="263" type="line" name="hr00"/>
      <point x="336" y="345" type="line"/>
      <point x="85" y="345" type="line"/>
      <point x="69" y="263" type="line"/>
    </contour>
  </outline>
</glyph>
<glyph name="period" format="1">
  <advance width="273"/>
  <unicode hex="002E"/>
  <outline>
    <contour>
      <point x="86" y="-12" type="curve" smooth="yes" name="hr00"/>
      <point x="131" y="-12"/>
      <point x="145" y="16"/>
      <point x="151" y="43" type="curve" smooth="yes"/>
      <point x="153" y="53"/>
      <point x="155" y="68"/>
      <point x="155" y="77" type="curve" smooth="yes"/>
      <point x="155" y="103"/>
      <point x="136" y="117"/>
      <point x="104" y="117" type="curve" smooth="yes"/>
      <point x="59" y="117"/>
      <point x="45" y="89"/>
      <point x="39" y="62" type="curve" smooth="yes"/>
      <point x="37" y="52"/>
      <point x="35" y="37"/>
      <point x="35" y="28" type="curve" smooth="yes"/>
      <point x="35" y="2"/>
      <point x="54" y="-12"/>
    </contour>
  </outline>
</glyph>
<glyph name="slash" format="1">
  <advance width="378"/>
  <unicode hex="002F"/>
  <outline>
    <contour>
      <point x="3" y="-151" type="line" name="hr00"/>
      <point x="432" y="740" type="line"/>
      <point x="361" y="740" type="line"/>
      <point x="-68" y="-151" type="line"/>
    </contour>
  </outline>
</glyph>
<glyph name="zero" format="1">
  <advance width="600"/>
  <unicode hex="0030"/>
  <outline>
    <contour>
      <point x="255" y="-12" type="curve" smooth="yes" name=""/>
      <point x="421" y="-12"/>
      <point x="515" y="155"/>
      <point x="548" y="330" type="curve" smooth="yes"/>
      <point x="557" y="377"/>
      <point x="561" y="425"/>
      <point x="561" y="470" type="curve" smooth="yes"/>
      <point x="561" y="613"/>
      <point x="500" y="710"/>
      <point x="374" y="710" type="curve" smooth="yes"/>
      <point x="208" y="710"/>
      <point x="114" y="543"/>
      <point x="81" y="368" type="curve" smooth="yes"/>
      <point x="72" y="321"/>
      <point x="68" y="273"/>
      <point x="68" y="228" type="curve" smooth="yes"/>
      <point x="68" y="85"/>
      <point x="129" y="-12"/>
    </contour>
    <contour>
      <point x="265" y="59" type="curve" smooth="yes"/>
      <point x="188" y="59"/>
      <point x="149" y="119"/>
      <point x="149" y="214" type="curve" smooth="yes"/>
      <point x="149" y="242"/>
      <point x="152" y="274"/>
      <point x="158" y="304" type="curve" smooth="yes"/>
      <point x="179" y="409" type="line" smooth="yes"/>
      <point x="206" y="545"/>
      <point x="267" y="639"/>
      <point x="364" y="639" type="curve" smooth="yes"/>
      <point x="441" y="639"/>
      <point x="480" y="579"/>
      <point x="480" y="484" type="curve" smooth="yes"/>
      <point x="480" y="456"/>
      <point x="477" y="424"/>
      <point x="471" y="394" type="curve" smooth="yes"/>
      <point x="450" y="289" type="line" smooth="yes"/>
      <point x="423" y="153"/>
      <point x="362" y="59"/>
    </contour>
  </outline>
</glyph>
<glyph name="one" format="1">
  <advance width="600"/>
  <unicode hex="0031"/>
  <outline>
    <contour>
      <point x="509" y="0" type="line" name="hr00"/>
      <point x="523" y="72" type="line"/>
      <point x="337" y="72" type="line"/>
      <point x="462" y="698" type="line"/>
      <point x="330" y="698" type="line"/>
      <point x="113" y="525" type="line"/>
      <point x="154" y="472" type="line"/>
      <point x="361" y="636" type="line"/>
      <point x="369" y="636" type="line"/>
      <point x="256" y="72" type="line"/>
      <point x="56" y="72" type="line"/>
      <point x="42" y="0" type="line"/>
    </contour>
  </outline>
</glyph>
<glyph name="two" format="1">
  <advance width="600"/>
  <unicode hex="0032"/>
  <outline>
    <contour>
      <point x="485" y="72" type="line" name="hr00"/>
      <point x="136" y="72" type="line"/>
      <point x="352" y="241" type="line" smooth="yes"/>
      <point x="470" y="334"/>
      <point x="548" y="418"/>
      <point x="548" y="536" type="curve" smooth="yes"/>
      <point x="548" y="633"/>
      <point x="477" y="710"/>
      <point x="363" y="710" type="curve" smooth="yes"/>
      <point x="245" y="710"/>
      <point x="174" y="646"/>
      <point x="128" y="546" type="curve"/>
      <point x="200" y="515" type="line"/>
      <point x="233" y="593"/>
      <point x="278" y="637"/>
      <point x="355" y="637" type="curve" smooth="yes"/>
      <point x="436" y="637"/>
      <point x="458" y="576"/>
      <point x="458" y="535" type="curve" smooth="yes"/>
      <point x="458" y="520"/>
      <point x="454" y="497"/>
      <point x="452" y="487" type="curve" smooth="yes"/>
      <point x="442" y="437"/>
      <point x="396" y="367"/>
      <point x="310" y="298" type="curve" smooth="yes"/>
      <point x="52" y="90" type="line"/>
      <point x="34" y="0" type="line"/>
      <point x="470" y="0" type="line"/>
    </contour>
  </outline>
</glyph>
<glyph name="four" format="1">
  <advance width="600"/>
  <unicode hex="0034"/>
  <outline>
    <contour>
      <point x="399" y="0" type="line" name="hr00"/>
      <point x="427" y="137" type="line"/>
      <point x="523" y="137" type="line"/>
      <point x="536" y="205" type="line"/>
      <point x="441" y="205" type="line"/>
      <point x="539" y="698" type="line"/>
      <point x="422" y="698" type="line"/>
      <point x="47" y="216" type="line"/>
      <point x="32" y="137" type="line"/>
      <point x="348" y="137" type="line"/>
      <point x="320" y="0" type="line"/>
    </contour>
    <contour>
      <point x="439" y="612" type="line"/>
      <point x="443" y="612" type="line"/>
      <point x="362" y="205" type="line"/>
      <point x="120" y="205" type="line"/>
    </contour>
  </outline>
</glyph>
<glyph name="five" format="1">
  <advance width="600"/>
  <unicode hex="0035"/>
  <outline>
    <contour>
      <point x="572" y="698" type="line" name="hr00"/>
      <point x="213" y="698" type="line"/>
      <point x="117" y="307" type="line"/>
      <point x="185" y="296" type="line"/>
      <point x="222" y="336"/>
      <point x="265" y="365"/>
      <point x="322" y="365" type="curve" smooth="yes"/>
      <point x="403" y="365"/>
      <point x="438" y="322"/>
      <point x="438" y="256" type="curve" smooth="yes"/>
      <point x="438" y="237"/>
      <point x="435" y="223"/>
      <point x="432" y="208" type="curve" smooth="yes"/>
      <point x="412" y="109"/>
      <point x="359" y="61"/>
      <point x="273" y="61" type="curve" smooth="yes"/>
      <point x="183" y="61"/>
      <point x="145" y="99"/>
      <point x="122" y="156" type="curve"/>
      <point x="56" y="111" type="line"/>
      <point x="82" y="47"/>
      <point x="149" y="-12"/>
      <point x="263" y="-12" type="curve" smooth="yes"/>
      <point x="424" y="-12"/>
      <point x="522" y="106"/>
      <point x="522" y="257" type="curve" smooth="yes"/>
      <point x="522" y="368"/>
      <point x="448" y="436"/>
      <point x="349" y="436" type="curve" smooth="yes"/>
      <point x="276" y="436"/>
      <point x="239" y="409"/>
      <point x="204" y="351" type="curve"/>
      <point x="197" y="351" type="line"/>
      <point x="265" y="626" type="line"/>
      <point x="557" y="626" type="line"/>
    </contour>
  </outline>
</glyph>
<glyph name="six" format="1">
  <advance width="600"/>
  <unicode hex="0036"/>
  <outline>
    <contour>
      <point x="268" y="-12" type="curve" smooth="yes" name=""/>
      <point x="394" y="-12"/>
      <point x="490" y="71"/>
      <point x="513" y="190" type="curve" smooth="yes"/>
      <point x="516" y="208"/>
      <point x="518" y="226"/>
      <point x="518" y="245" type="curve" smooth="yes"/>
      <point x="518" y="362"/>
      <point x="444" y="434"/>
      <point x="335" y="434" type="curve" smooth="yes"/>
      <point x="271" y="434"/>
      <point x="221" y="406"/>
      <point x="178" y="335" type="curve"/>
      <point x="174" y="337" type="line"/>
      <point x="214" y="470"/>
      <point x="344" y="595"/>
      <point x="512" y="698" type="curve"/>
      <point x="398" y="698" type="line"/>
      <point x="251" y="617"/>
      <point x="112" y="452"/>
      <point x="78" y="281" type="curve" smooth="yes"/>
      <point x="73" y="255"/>
      <point x="70" y="228"/>
      <point x="70" y="202" type="curve" smooth="yes"/>
      <point x="70" y="66"/>
      <point x="141" y="-12"/>
    </contour>
    <contour>
      <point x="271" y="60" type="curve" smooth="yes"/>
      <point x="193" y="60"/>
      <point x="148" y="106"/>
      <point x="148" y="185" type="curve" smooth="yes"/>
      <point x="148" y="197"/>
      <point x="150" y="211"/>
      <point x="152" y="221" type="curve" smooth="yes"/>
      <point x="169" y="306"/>
      <point x="225" y="363"/>
      <point x="312" y="363" type="curve" smooth="yes"/>
      <point x="390" y="363"/>
      <point x="435" y="317"/>
      <point x="435" y="238" type="curve" smooth="yes"/>
      <point x="435" y="226"/>
      <point x="433" y="212"/>
      <point x="431" y="202" type="curve" smooth="yes"/>
      <point x="414" y="117"/>
      <point x="358" y="60"/>
    </contour>
  </outline>
</glyph>
<glyph name="seven" format="1">
  <advance width="600"/>
  <unicode hex="0037"/>
  <outline>
    <contour>
      <point x="214" y="0" type="line" name="hr00"/>
      <point x="587" y="619" type="line"/>
      <point x="603" y="698" type="line"/>
      <point x="166" y="698" type="line"/>
      <point x="125" y="493" type="line"/>
      <point x="199" y="493" type="line"/>
      <point x="226" y="627" type="line"/>
      <point x="507" y="627" type="line"/>
      <point x="128" y="0" type="line"/>
    </contour>
  </outline>
</glyph>
<glyph name="eight" format="1">
  <advance width="600"/>
  <unicode hex="0038"/>
  <outline>
    <contour>
      <point x="264" y="-12" type="curve" smooth="yes"/>
      <point x="423" y="-12"/>
      <point x="517" y="82"/>
      <point x="517" y="222" type="curve" smooth="yes"/>
      <point x="517" y="288"/>
      <point x="477" y="345"/>
      <point x="409" y="360" type="curve"/>
      <point x="411" y="368" type="line"/>
      <point x="507" y="392"/>
      <point x="559" y="473"/>
      <point x="559" y="551" type="curve" smooth="yes" name="hr01"/>
      <point x="559" y="646"/>
      <point x="489" y="710"/>
      <point x="372" y="710" type="curve" smooth="yes"/>
      <point x="235" y="710"/>
      <point x="140" y="623"/>
      <point x="140" y="505" type="curve" smooth="yes"/>
      <point x="140" y="443"/>
      <point x="169" y="396"/>
      <point x="231" y="374" type="curve"/>
      <point x="229" y="366" type="line"/>
      <point x="115" y="352"/>
      <point x="54" y="262"/>
      <point x="54" y="170" type="curve" smooth="yes"/>
      <point x="54" y="64"/>
      <point x="130" y="-12"/>
    </contour>
    <contour>
      <point x="269" y="59" type="curve" smooth="yes"/>
      <point x="184" y="59"/>
      <point x="137" y="100"/>
      <point x="137" y="164" type="curve" smooth="yes"/>
      <point x="137" y="180"/>
      <point x="139" y="191"/>
      <point x="142" y="206" type="curve" smooth="yes"/>
      <point x="158" y="286"/>
      <point x="217" y="332"/>
      <point x="303" y="332" type="curve" smooth="yes"/>
      <point x="388" y="332"/>
      <point x="435" y="290"/>
      <point x="435" y="226" type="curve" smooth="yes" name="hr02"/>
      <point x="435" y="210"/>
      <point x="433" y="199"/>
      <point x="430" y="184" type="curve" smooth="yes"/>
      <point x="414" y="104"/>
      <point x="355" y="59"/>
    </contour>
    <contour>
      <point x="332" y="400" type="curve" smooth="yes"/>
      <point x="260" y="400"/>
      <point x="218" y="438"/>
      <point x="218" y="497" type="curve" smooth="yes"/>
      <point x="218" y="508"/>
      <point x="219" y="517"/>
      <point x="221" y="527" type="curve" smooth="yes"/>
      <point x="235" y="597"/>
      <point x="286" y="639"/>
      <point x="362" y="639" type="curve" smooth="yes"/>
      <point x="434" y="639"/>
      <point x="476" y="601"/>
      <point x="476" y="542" type="curve" smooth="yes" name="hr03"/>
      <point x="476" y="531"/>
      <point x="475" y="522"/>
      <point x="473" y="512" type="curve" smooth="yes"/>
      <point x="459" y="442"/>
      <point x="408" y="400"/>
    </contour>
  </outline>
</glyph>
<glyph name="nine" format="1">
  <advance width="600"/>
  <unicode hex="0039"/>
  <outline>
    <contour>
      <point x="300" y="264" type="curve" smooth="yes"/>
      <point x="364" y="264"/>
      <point x="414" y="292"/>
      <point x="457" y="363" type="curve"/>
      <point x="461" y="361" type="line"/>
      <point x="421" y="228"/>
      <point x="291" y="103"/>
      <point x="123" y="0" type="curve"/>
      <point x="237" y="0" type="line"/>
      <point x="384" y="81"/>
      <point x="523" y="246"/>
      <point x="557" y="417" type="curve" smooth="yes"/>
      <point x="562" y="443"/>
      <point x="565" y="470"/>
      <point x="565" y="496" type="curve" smooth="yes"/>
      <point x="565" y="632"/>
      <point x="494" y="710"/>
      <point x="367" y="710" type="curve" smooth="yes" name=""/>
      <point x="241" y="710"/>
      <point x="145" y="627"/>
      <point x="122" y="508" type="curve" smooth="yes"/>
      <point x="119" y="490"/>
      <point x="117" y="472"/>
      <point x="117" y="453" type="curve" smooth="yes"/>
      <point x="117" y="336"/>
      <point x="191" y="264"/>
    </contour>
    <contour>
      <point x="323" y="335" type="curve" smooth="yes"/>
      <point x="245" y="335"/>
      <point x="200" y="381"/>
      <point x="200" y="460" type="curve" smooth="yes"/>
      <point x="200" y="472"/>
      <point x="202" y="486"/>
      <point x="204" y="496" type="curve" smooth="yes"/>
      <point x="221" y="581"/>
      <point x="277" y="638"/>
      <point x="364" y="638" type="curve" smooth="yes"/>
      <point x="442" y="638"/>
      <point x="487" y="592"/>
      <point x="487" y="513" type="curve" smooth="yes"/>
      <point x="487" y="501"/>
      <point x="485" y="487"/>
      <point x="483" y="477" type="curve" smooth="yes"/>
      <point x="466" y="392"/>
      <point x="410" y="335"/>
    </contour>
  </outline>
</glyph>
<glyph name="less" format="1">
  <advance width="600"/>
  <unicode hex="003C"/>
  <outline>
    <contour>
      <point x="450" y="-12" type="line" name="hr00"/>
      <point x="466" y="68" type="line"/>
      <point x="173" y="273" type="line"/>
      <point x="175" y="281" type="line"/>
      <point x="548" y="480" type="line"/>
      <point x="565" y="567" type="line"/>
      <point x="109" y="318" type="line"/>
      <point x="94" y="242" type="line"/>
    </contour>
  </outline>
</glyph>
<glyph name="equal" format="1">
  <advance width="600"/>
  <unicode hex="003D"/>
  <outline>
    <contour>
      <point x="548" y="374" type="line" name="hr00"/>
      <point x="561" y="440" type="line"/>
      <point x="111" y="440" type="line"/>
      <point x="98" y="374" type="line"/>
    </contour>
    <contour>
      <point x="508" y="172" type="line"/>
      <point x="521" y="238" type="line"/>
      <point x="71" y="238" type="line"/>
      <point x="58" y="172" type="line"/>
    </contour>
  </outline>
</glyph>
<glyph name="greater" format="1">
  <advance width="600"/>
  <unicode hex="003E"/>
  <outline>
    <contour>
      <point x="45" y="-12" type="line" name="hr00"/>
      <point x="501" y="242" type="line"/>
      <point x="516" y="318" type="line"/>
      <point x="160" y="566" type="line"/>
      <point x="144" y="486" type="line"/>
      <point x="437" y="287" type="line"/>
      <point x="435" y="279" type="line"/>
      <point x="62" y="75" type="line"/>
    </contour>
  </outline>
</glyph>
<glyph name="A" format="1">
  <advance width="623"/>
  <unicode hex="0041"/>
  <outline>
    <contour>
      <point x="547" y="0" type="line" name=""/>
      <point x="453" y="698" type="line"/>
      <point x="346" y="698" type="line"/>
      <point x="-27" y="0" type="line"/>
      <point x="59" y="0" type="line"/>
      <point x="167" y="206" type="line"/>
      <point x="438" y="206" type="line"/>
      <point x="464" y="0" type="line"/>
    </contour>
    <contour>
      <point x="430" y="278" type="line"/>
      <point x="204" y="278" type="line"/>
      <point x="337" y="534" type="line"/>
      <point x="382" y="621" type="line"/>
      <point x="387" y="621" type="line"/>
      <point x="398" y="536" type="line"/>
    </contour>
    <contour>
      <point x="262.0" y="0.0" type="move" name="bottom"/>
    </contour>
    <contour>
      <point x="547.0" y="0.0" type="move" name="bottomright"/>
    </contour>
    <contour>
      <point x="395.0" y="698.0" type="move" name="top"/>
    </contour>
  </outline>
</glyph>
<glyph name="B" format="1">
  <advance width="627"/>
  <unicode hex="0042"/>
  <outline>
    <contour>
      <point x="39" y="0" type="line"/>
      <point x="333" y="0" type="line" smooth="yes"/>
      <point x="463" y="0"/>
      <point x="561" y="108"/>
      <point x="561" y="238" type="curve" smooth="yes"/>
      <point x="561" y="310"/>
      <point x="523" y="347"/>
      <point x="460" y="362" type="curve"/>
      <point x="461" y="367" type="line"/>
      <point x="552" y="388"/>
      <point x="603" y="464"/>
      <point x="603" y="549" type="curve" smooth="yes" name="hr01"/>
      <point x="603" y="640"/>
      <point x="543" y="698"/>
      <point x="436" y="698" type="curve" smooth="yes"/>
      <point x="179" y="698" type="line"/>
    </contour>
    <contour>
      <point x="134" y="72" type="line"/>
      <point x="184" y="324" type="line"/>
      <point x="374" y="324" type="line" smooth="yes"/>
      <point x="440" y="324"/>
      <point x="476" y="294"/>
      <point x="476" y="242" type="curve" smooth="yes" name="hr02"/>
      <point x="476" y="233"/>
      <point x="474" y="219"/>
      <point x="467" y="184" type="curve" smooth="yes"/>
      <point x="452" y="109"/>
      <point x="401" y="72"/>
      <point x="332" y="72" type="curve" smooth="yes"/>
    </contour>
    <contour>
      <point x="198" y="394" type="line"/>
      <point x="244" y="626" type="line"/>
      <point x="425" y="626" type="line" smooth="yes"/>
      <point x="484" y="626"/>
      <point x="514" y="597"/>
      <point x="514" y="549" type="curve" smooth="yes" name="hr03"/>
      <point x="514" y="540"/>
      <point x="513" y="524"/>
      <point x="507" y="494" type="curve" smooth="yes"/>
      <point x="493" y="424"/>
      <point x="441" y="394"/>
      <point x="367" y="394" type="curve" smooth="yes"/>
    </contour>
    <contour>
      <point x="253" y="0" type="move" name="bottom"/>
    </contour>
    <contour>
      <point x="389" y="698" type="move" name="top"/>
    </contour>
  </outline>
</glyph>
<glyph name="C" format="1">
  <advance width="602"/>
  <unicode hex="0043"/>
  <outline>
    <contour>
      <point x="290" y="-12" type="curve" smooth="yes" name=""/>
      <point x="414" y="-12"/>
      <point x="494" y="41"/>
      <point x="555" y="157" type="curve"/>
      <point x="487" y="191" type="line"/>
      <point x="442" y="110"/>
      <point x="392" y="61"/>
      <point x="295" y="61" type="curve" smooth="yes"/>
      <point x="195" y="61"/>
      <point x="136" y="136"/>
      <point x="136" y="246" type="curve" smooth="yes"/>
      <point x="136" y="266"/>
      <point x="137" y="287"/>
      <point x="142" y="312" type="curve" smooth="yes"/>
      <point x="165" y="427" type="line" smooth="yes"/>
      <point x="190" y="554"/>
      <point x="276" y="637"/>
      <point x="383" y="637" type="curve" smooth="yes"/>
      <point x="470" y="637"/>
      <point x="517" y="596"/>
      <point x="542" y="518" type="curve"/>
      <point x="615" y="551" type="line"/>
      <point x="581" y="659"/>
      <point x="504" y="710"/>
      <point x="391" y="710" type="curve" smooth="yes"/>
      <point x="229" y="710"/>
      <point x="110" y="580"/>
      <point x="70" y="403" type="curve" smooth="yes"/>
      <point x="60" y="360"/>
      <point x="55" y="314"/>
      <point x="55" y="266" type="curve" smooth="yes"/>
      <point x="55" y="86"/>
      <point x="154" y="-12"/>
    </contour>
    <contour>
      <point x="281.0" y="0.0" type="move" name="bottom"/>
    </contour>
    <contour>
      <point x="392.0" y="698.0" type="move" name="top"/>
    </contour>
  </outline>
</glyph>
<glyph name="D" format="1">
  <advance width="652"/>
  <unicode hex="0044"/>
  <outline>
    <contour>
      <point x="39" y="0" type="line" name=""/>
      <point x="275" y="0" type="line" smooth="yes"/>
      <point x="459" y="0"/>
      <point x="577" y="145"/>
      <point x="612" y="317" type="curve" smooth="yes"/>
      <point x="619" y="353"/>
      <point x="623" y="390"/>
      <point x="623" y="427" type="curve" smooth="yes"/>
      <point x="623" y="606"/>
      <point x="533" y="698"/>
      <point x="384" y="698" type="curve" smooth="yes"/>
      <point x="179" y="698" type="line"/>
    </contour>
    <contour>
      <point x="135" y="72" type="line"/>
      <point x="245" y="626" type="line"/>
      <point x="380" y="626" type="line" smooth="yes"/>
      <point x="477" y="626"/>
      <point x="539" y="566"/>
      <point x="539" y="455" type="curve" smooth="yes"/>
      <point x="539" y="436"/>
      <point x="537" y="414"/>
      <point x="533" y="394" type="curve" smooth="yes"/>
      <point x="512" y="289" type="line" smooth="yes"/>
      <point x="484" y="149"/>
      <point x="396" y="72"/>
      <point x="277" y="72" type="curve" smooth="yes"/>
    </contour>
    <contour>
      <point x="243.0" y="0.0" type="move" name="bottom"/>
    </contour>
    <contour>
      <point x="377.0" y="698.0" type="move" name="top"/>
    </contour>
  </outline>
</glyph>
<glyph name="E" format="1">
  <advance width="565"/>
  <unicode hex="0045"/>
  <outline>
    <contour>
      <point x="467" y="0" type="line" name="hr00"/>
      <point x="481" y="72" type="line"/>
      <point x="135" y="72" type="line"/>
      <point x="184" y="318" type="line"/>
      <point x="481" y="318" type="line"/>
      <point x="495" y="390" type="line"/>
      <point x="199" y="390" type="line"/>
      <point x="246" y="626" type="line"/>
      <point x="575" y="626" type="line"/>
      <point x="590" y="698" type="line"/>
      <point x="179" y="698" type="line"/>
      <point x="39" y="0" type="line"/>
    </contour>
    <contour>
      <point x="252" y="0" type="move" name="bottom"/>
    </contour>
    <contour>
      <point x="467" y="0" type="move" name="bottomright"/>
    </contour>
    <contour>
      <point x="376" y="698" type="move" name="top"/>
    </contour>
  </outline>
</glyph>
<glyph name="F" format="1">
  <advance width="542"/>
  <unicode hex="0046"/>
  <outline>
    <contour>
      <point x="120" y="0" type="line" name="hr00"/>
      <point x="184" y="318" type="line"/>
      <point x="477" y="318" type="line"/>
      <point x="491" y="390" type="line"/>
      <point x="199" y="390" type="line"/>
      <point x="246" y="626" type="line"/>
      <point x="564" y="626" type="line"/>
      <point x="579" y="698" type="line"/>
      <point x="179" y="698" type="line"/>
      <point x="39" y="0" type="line"/>
    </contour>
    <contour>
      <point x="79" y="0" type="move" name="bottom"/>
    </contour>
    <contour>
      <point x="379" y="698" type="move" name="top"/>
    </contour>
  </outline>
</glyph>
<glyph name="G" format="1">
  <advance width="661"/>
  <unicode hex="0047"/>
  <outline>
    <contour>
      <point x="462" y="0" type="line"/>
      <point x="539" y="0" type="line"/>
      <point x="611" y="360" type="line"/>
      <point x="384" y="360" type="line"/>
      <point x="368" y="286" type="line"/>
      <point x="517" y="286" type="line"/>
      <point x="506" y="231" type="line" smooth="yes"/>
      <point x="484" y="119"/>
      <point x="399" y="61"/>
      <point x="304" y="61" type="curve" smooth="yes" name=""/>
      <point x="196" y="61"/>
      <point x="136" y="133"/>
      <point x="136" y="253" type="curve" smooth="yes"/>
      <point x="136" y="273"/>
      <point x="138" y="293"/>
      <point x="142" y="313" type="curve" smooth="yes"/>
      <point x="163" y="417" type="line" smooth="yes"/>
      <point x="191" y="554"/>
      <point x="276" y="637"/>
      <point x="394" y="637" type="curve" smooth="yes"/>
      <point x="487" y="637"/>
      <point x="540" y="593"/>
      <point x="567" y="518" type="curve"/>
      <point x="640" y="551" type="line"/>
      <point x="611" y="649"/>
      <point x="525" y="710"/>
      <point x="404" y="710" type="curve" smooth="yes"/>
      <point x="221" y="710"/>
      <point x="103" y="569"/>
      <point x="67" y="389" type="curve" smooth="yes"/>
      <point x="59" y="349"/>
      <point x="55" y="308"/>
      <point x="55" y="266" type="curve" smooth="yes"/>
      <point x="55" y="84"/>
      <point x="148" y="-12"/>
      <point x="280" y="-12" type="curve" smooth="yes"/>
      <point x="382" y="-12"/>
      <point x="450" y="40"/>
      <point x="479" y="102" type="curve" name=""/>
      <point x="483" y="102" type="line"/>
    </contour>
    <contour>
      <point x="278.0" y="0.0" type="move" name="bottom"/>
    </contour>
    <contour>
      <point x="409.0" y="698.0" type="move" name="top"/>
    </contour>
  </outline>
</glyph>
<glyph name="H" format="1">
  <advance width="684"/>
  <unicode hex="0048"/>
  <outline>
    <contour>
      <point x="460" y="0" type="line" name="hr00"/>
      <point x="541" y="0" type="line"/>
      <point x="681" y="698" type="line"/>
      <point x="600" y="698" type="line"/>
      <point x="538" y="390" type="line"/>
      <point x="199" y="390" type="line"/>
      <point x="260" y="698" type="line"/>
      <point x="179" y="698" type="line"/>
      <point x="39" y="0" type="line"/>
      <point x="120" y="0" type="line"/>
      <point x="184" y="318" type="line"/>
      <point x="523" y="318" type="line"/>
    </contour>
    <contour>
      <point x="290" y="0" type="move" name="bottom"/>
    </contour>
    <contour>
      <point x="430" y="698" type="move" name="top"/>
    </contour>
  </outline>
</glyph>
<glyph name="I" format="1">
  <advance width="387"/>
  <unicode hex="0049"/>
  <outline>
    <contour>
      <point x="276" y="0" type="line" name="hr00"/>
      <point x="290" y="69" type="line"/>
      <point x="197" y="69" type="line"/>
      <point x="308" y="629" type="line"/>
      <point x="401" y="629" type="line"/>
      <point x="415" y="698" type="line"/>
      <point x="148" y="698" type="line"/>
      <point x="134" y="629" type="line"/>
      <point x="227" y="629" type="line"/>
      <point x="116" y="69" type="line"/>
      <point x="23" y="69" type="line"/>
      <point x="9" y="0" type="line"/>
    </contour>
    <contour>
      <point x="141" y="0" type="move" name="bottom"/>
    </contour>
    <contour>
      <point x="280" y="0" type="move" name="bottomright"/>
    </contour>
    <contour>
      <point x="276" y="698" type="move" name="top"/>
    </contour>
  </outline>
</glyph>
<glyph name="J" format="1">
  <advance width="498"/>
  <unicode hex="004A"/>
  <outline>
    <contour>
      <point x="179" y="698" type="line" name="hr00"/>
      <point x="165" y="626" type="line"/>
      <point x="399" y="626" type="line"/>
      <point x="313" y="198" type="line" smooth="yes"/>
      <point x="295" y="108"/>
      <point x="252" y="61"/>
      <point x="175" y="61" type="curve" smooth="yes"/>
      <point x="111" y="61"/>
      <point x="80" y="107"/>
      <point x="77" y="168" type="curve"/>
      <point x="3" y="153" type="line"/>
      <point x="6" y="47"/>
      <point x="75" y="-12"/>
      <point x="171" y="-12" type="curve" smooth="yes"/>
      <point x="289" y="-12"/>
      <point x="367" y="61"/>
      <point x="392" y="186" type="curve" smooth="yes"/>
      <point x="495" y="698" type="line"/>
    </contour>
    <contour>
      <point x="167" y="0" type="move" name="bottom"/>
    </contour>
    <contour>
      <point x="325" y="698" type="move" name="top"/>
    </contour>
  </outline>
</glyph>
<glyph name="K" format="1">
  <advance width="615"/>
  <unicode hex="004B"/>
  <outline>
    <contour>
      <point x="461" y="0" type="line" name=""/>
      <point x="549" y="0" type="line"/>
      <point x="352" y="395" type="line"/>
      <point x="665" y="698" type="line"/>
      <point x="562" y="698" type="line"/>
      <point x="313" y="457" type="line"/>
      <point x="194" y="342" type="line"/>
      <point x="189" y="342" type="line"/>
      <point x="214" y="467" type="line"/>
      <point x="260" y="698" type="line"/>
      <point x="179" y="698" type="line"/>
      <point x="39" y="0" type="line"/>
      <point x="120" y="0" type="line"/>
      <point x="165" y="226" type="line"/>
      <point x="290" y="343" type="line"/>
    </contour>
    <contour>
      <point x="259.0" y="0.0" type="move" name="bottom"/>
    </contour>
    <contour>
      <point x="393.0" y="698.0" type="move" name="top"/>
    </contour>
  </outline>
</glyph>
<glyph name="L" format="1">
  <advance width="489"/>
  <unicode hex="004C"/>
  <outline>
    <contour>
      <point x="408" y="0" type="line" name="hr00"/>
      <point x="422" y="72" type="line"/>
      <point x="135" y="72" type="line"/>
      <point x="260" y="698" type="line"/>
      <point x="179" y="698" type="line"/>
      <point x="39" y="0" type="line"/>
    </contour>
    <contour>
      <point x="223" y="0" type="move" name="bottom"/>
    </contour>
    <contour>
      <point x="219" y="698" type="move" name="top"/>
    </contour>
    <contour>
      <point x="346" y="740" type="move" name="topright"/>
    </contour>
  </outline>
</glyph>
<glyph name="M" format="1">
  <advance width="784"/>
  <unicode hex="004D"/>
  <outline>
    <contour>
      <point x="561" y="0" type="line" name=""/>
      <point x="641" y="0" type="line"/>
      <point x="781" y="698" type="line"/>
      <point x="668" y="698" type="line"/>
      <point x="485" y="435" type="line"/>
      <point x="405" y="319" type="line"/>
      <point x="402" y="319" type="line"/>
      <point x="366" y="435" type="line"/>
      <point x="284" y="698" type="line"/>
      <point x="179" y="698" type="line"/>
      <point x="39" y="0" type="line"/>
      <point x="119" y="0" type="line"/>
      <point x="213" y="469" type="line"/>
      <point x="236" y="585" type="line"/>
      <point x="241" y="585" type="line"/>
      <point x="278" y="469" type="line"/>
      <point x="377" y="166" type="line"/>
      <point x="594" y="469" type="line"/>
      <point x="675" y="586" type="line"/>
      <point x="680" y="586" type="line"/>
      <point x="656" y="469" type="line"/>
    </contour>
    <contour>
      <point x="341.0" y="0.0" type="move" name="bottom"/>
    </contour>
    <contour>
      <point x="476.0" y="698.0" type="move" name="top"/>
    </contour>
  </outline>
</glyph>
<glyph name="N" format="1">
  <advance width="684"/>
  <unicode hex="004E"/>
  <outline>
    <contour>
      <point x="447" y="0" type="line" name=""/>
      <point x="541" y="0" type="line"/>
      <point x="681" y="698" type="line"/>
      <point x="602" y="698" type="line"/>
      <point x="518" y="278" type="line"/>
      <point x="485" y="111" type="line"/>
      <point x="480" y="111" type="line"/>
      <point x="425" y="278" type="line"/>
      <point x="273" y="698" type="line"/>
      <point x="179" y="698" type="line"/>
      <point x="39" y="0" type="line"/>
      <point x="118" y="0" type="line"/>
      <point x="202" y="420" type="line"/>
      <point x="235" y="587" type="line"/>
      <point x="240" y="587" type="line"/>
      <point x="295" y="420" type="line"/>
    </contour>
    <contour>
      <point x="290.0" y="0.0" type="move" name="bottom"/>
    </contour>
    <contour>
      <point x="430.0" y="698.0" type="move" name="top"/>
    </contour>
  </outline>
</glyph>
<glyph name="O" format="1">
  <advance width="679"/>
  <unicode hex="004F"/>
  <outline>
    <contour>
      <point x="298" y="-12" type="curve" smooth="yes"/>
      <point x="479" y="-12"/>
      <point x="601" y="134"/>
      <point x="639" y="314" type="curve" smooth="yes"/>
      <point x="648" y="354"/>
      <point x="652" y="396"/>
      <point x="652" y="438" type="curve" smooth="yes"/>
      <point x="652" y="614"/>
      <point x="548" y="710"/>
      <point x="409" y="710" type="curve" smooth="yes" name="hr00"/>
      <point x="228" y="710"/>
      <point x="106" y="564"/>
      <point x="68" y="384" type="curve" smooth="yes"/>
      <point x="59" y="344"/>
      <point x="55" y="302"/>
      <point x="55" y="260" type="curve" smooth="yes"/>
      <point x="55" y="84"/>
      <point x="159" y="-12"/>
    </contour>
    <contour>
      <point x="306" y="61" type="curve" smooth="yes"/>
      <point x="198" y="61"/>
      <point x="135" y="130"/>
      <point x="135" y="236" type="curve" smooth="yes"/>
      <point x="135" y="256"/>
      <point x="137" y="280"/>
      <point x="142" y="305" type="curve" smooth="yes"/>
      <point x="162" y="405" type="line" smooth="yes"/>
      <point x="191" y="550"/>
      <point x="278" y="637"/>
      <point x="401" y="637" type="curve" smooth="yes"/>
      <point x="509" y="637"/>
      <point x="572" y="568"/>
      <point x="572" y="462" type="curve" smooth="yes"/>
      <point x="572" y="442"/>
      <point x="570" y="418"/>
      <point x="565" y="393" type="curve" smooth="yes"/>
      <point x="545" y="293" type="line" smooth="yes"/>
      <point x="516" y="148"/>
      <point x="429" y="61"/>
    </contour>
    <contour>
      <point x="289" y="0" type="move" name="bottom"/>
    </contour>
    <contour>
      <point x="405" y="698" type="move" name="top"/>
    </contour>
  </outline>
</glyph>
<glyph name="P" format="1">
  <advance width="588"/>
  <unicode hex="0050"/>
  <outline>
    <contour>
      <point x="120" y="0" type="line" name="hr00"/>
      <point x="180" y="298" type="line"/>
      <point x="367" y="298" type="line" smooth="yes"/>
      <point x="511" y="298"/>
      <point x="601" y="401"/>
      <point x="601" y="531" type="curve" smooth="yes"/>
      <point x="601" y="627"/>
      <point x="551" y="698"/>
      <point x="428" y="698" type="curve" smooth="yes"/>
      <point x="179" y="698" type="line"/>
      <point x="39" y="0" type="line"/>
    </contour>
    <contour>
      <point x="245" y="626" type="line"/>
      <point x="422" y="626" type="line" smooth="yes"/>
      <point x="492" y="626"/>
      <point x="517" y="594"/>
      <point x="517" y="545" type="curve" smooth="yes"/>
      <point x="517" y="529"/>
      <point x="514" y="516"/>
      <point x="505" y="471" type="curve" smooth="yes"/>
      <point x="492" y="405"/>
      <point x="445" y="370"/>
      <point x="379" y="370" type="curve" smooth="yes"/>
      <point x="195" y="370" type="line"/>
    </contour>
    <contour>
      <point x="81" y="0" type="move" name="bottom"/>
    </contour>
    <contour>
      <point x="389" y="698" type="move" name="top"/>
    </contour>
  </outline>
</glyph>
<glyph name="Q" format="1">
  <advance width="679"/>
  <unicode hex="0051"/>
  <outline>
    <contour>
      <point x="413" y="-92" type="line" name=""/>
      <point x="311" y="-92" type="line"/>
      <point x="328" y="-11" type="line"/>
      <point x="493" y="5"/>
      <point x="603" y="144"/>
      <point x="639" y="314" type="curve" smooth="yes"/>
      <point x="648" y="354"/>
      <point x="652" y="396"/>
      <point x="652" y="438" type="curve" smooth="yes"/>
      <point x="652" y="614"/>
      <point x="548" y="710"/>
      <point x="409" y="710" type="curve" smooth="yes" name=""/>
      <point x="228" y="710"/>
      <point x="106" y="564"/>
      <point x="68" y="384" type="curve" smooth="yes"/>
      <point x="59" y="344"/>
      <point x="55" y="302"/>
      <point x="55" y="260" type="curve" smooth="yes"/>
      <point x="55" y="104"/>
      <point x="137" y="11"/>
      <point x="252" y="-8" type="curve"/>
      <point x="237" y="-78" type="line" smooth="yes"/>
      <point x="235" y="-87"/>
      <point x="234" y="-95"/>
      <point x="234" y="-104" type="curve" smooth="yes"/>
      <point x="234" y="-140"/>
      <point x="255" y="-166"/>
      <point x="309" y="-166" type="curve" smooth="yes"/>
      <point x="397" y="-166" type="line"/>
    </contour>
    <contour>
      <point x="401" y="637" type="curve" smooth="yes"/>
      <point x="509" y="637"/>
      <point x="572" y="568"/>
      <point x="572" y="462" type="curve" smooth="yes"/>
      <point x="572" y="442"/>
      <point x="570" y="418"/>
      <point x="565" y="393" type="curve" smooth="yes"/>
      <point x="545" y="293" type="line" smooth="yes"/>
      <point x="516" y="148"/>
      <point x="429" y="61"/>
      <point x="306" y="61" type="curve" smooth="yes"/>
      <point x="198" y="61"/>
      <point x="135" y="130"/>
      <point x="135" y="236" type="curve" smooth="yes"/>
      <point x="135" y="256"/>
      <point x="137" y="280"/>
      <point x="142" y="305" type="curve" smooth="yes"/>
      <point x="162" y="405" type="line" smooth="yes"/>
      <point x="191" y="550"/>
      <point x="278" y="637"/>
    </contour>
    <contour>
      <point x="406.0" y="698.0" type="move" name="top"/>
    </contour>
  </outline>
</glyph>
<glyph name="R" format="1">
  <advance width="625"/>
  <unicode hex="0052"/>
  <outline>
    <contour>
      <point x="180" y="300" type="line" name="hr00"/>
      <point x="338" y="300" type="line"/>
      <point x="433" y="0" type="line"/>
      <point x="520" y="0" type="line"/>
      <point x="418" y="308" type="line"/>
      <point x="530" y="330"/>
      <point x="601" y="424"/>
      <point x="601" y="531" type="curve" smooth="yes"/>
      <point x="601" y="627"/>
      <point x="551" y="698"/>
      <point x="428" y="698" type="curve" smooth="yes"/>
      <point x="179" y="698" type="line"/>
      <point x="39" y="0" type="line"/>
      <point x="120" y="0" type="line"/>
    </contour>
    <contour>
      <point x="195" y="371" type="line"/>
      <point x="245" y="626" type="line"/>
      <point x="422" y="626" type="line" smooth="yes"/>
      <point x="492" y="626"/>
      <point x="517" y="593"/>
      <point x="517" y="545" type="curve" smooth="yes"/>
      <point x="517" y="529"/>
      <point x="514" y="516"/>
      <point x="505" y="471" type="curve" smooth="yes"/>
      <point x="492" y="406"/>
      <point x="445" y="371"/>
      <point x="379" y="371" type="curve" smooth="yes"/>
    </contour>
    <contour>
      <point x="271" y="0" type="move" name="bottom"/>
    </contour>
    <contour>
      <point x="389" y="698" type="move" name="top"/>
    </contour>
  </outline>
</glyph>
<glyph name="S" format="1">
  <advance width="577"/>
  <unicode hex="0053"/>
  <outline>
    <contour>
      <point x="249" y="-12" type="curve" smooth="yes" name="hr00"/>
      <point x="418" y="-12"/>
      <point x="512" y="89"/>
      <point x="512" y="214" type="curve" smooth="yes"/>
      <point x="512" y="309"/>
      <point x="457" y="369"/>
      <point x="359" y="388" type="curve" smooth="yes"/>
      <point x="292" y="401" type="line" smooth="yes"/>
      <point x="220" y="415"/>
      <point x="186" y="450"/>
      <point x="186" y="510" type="curve" smooth="yes"/>
      <point x="186" y="591"/>
      <point x="247" y="637"/>
      <point x="341" y="637" type="curve" smooth="yes"/>
      <point x="420" y="637"/>
      <point x="474" y="605"/>
      <point x="512" y="553" type="curve"/>
      <point x="571" y="602" type="line"/>
      <point x="525" y="665"/>
      <point x="453" y="710"/>
      <point x="346" y="710" type="curve" smooth="yes"/>
      <point x="192" y="710"/>
      <point x="105" y="617"/>
      <point x="105" y="504" type="curve" smooth="yes"/>
      <point x="105" y="414"/>
      <point x="160" y="352"/>
      <point x="258" y="333" type="curve" smooth="yes"/>
      <point x="325" y="320" type="line" smooth="yes"/>
      <point x="399" y="306"/>
      <point x="431" y="269"/>
      <point x="431" y="210" type="curve" smooth="yes"/>
      <point x="431" y="127"/>
      <point x="369" y="61"/>
      <point x="251" y="61" type="curve" smooth="yes"/>
      <point x="176" y="61"/>
      <point x="114" y="88"/>
      <point x="73" y="158" type="curve"/>
      <point x="11" y="113" type="line"/>
      <point x="55" y="26"/>
      <point x="146" y="-12"/>
    </contour>
    <contour>
      <point x="240" y="0" type="move" name="bottom"/>
    </contour>
    <contour>
      <point x="350" y="698" type="move" name="top"/>
    </contour>
  </outline>
</glyph>
<glyph name="T" format="1">
  <advance width="557"/>
  <unicode hex="0054"/>
  <outline>
    <contour>
      <point x="605" y="626" type="line" name="hr00"/>
      <point x="619" y="698" type="line"/>
      <point x="112" y="698" type="line"/>
      <point x="98" y="626" type="line"/>
      <point x="311" y="626" type="line"/>
      <point x="186" y="0" type="line"/>
      <point x="267" y="0" type="line"/>
      <point x="392" y="626" type="line"/>
    </contour>
    <contour>
      <point x="227" y="0" type="move" name="bottom"/>
    </contour>
    <contour>
      <point x="366" y="698" type="move" name="top"/>
    </contour>
  </outline>
</glyph>
<glyph name="V" format="1">
  <advance width="593"/>
  <unicode hex="0056"/>
  <outline>
    <contour>
      <point x="295" y="0" type="line" name="hr00"/>
      <point x="661" y="698" type="line"/>
      <point x="575" y="698" type="line"/>
      <point x="393" y="348" type="line"/>
      <point x="260" y="84" type="line"/>
      <point x="257" y="84" type="line"/>
      <point x="230" y="348" type="line"/>
      <point x="192" y="698" type="line"/>
      <point x="111" y="698" type="line"/>
      <point x="194" y="0" type="line"/>
    </contour>
    <contour>
      <point x="246" y="0" type="move" name="bottom"/>
    </contour>
    <contour>
      <point x="376" y="698" type="move" name="top"/>
    </contour>
  </outline>
</glyph>
<glyph name="W" format="1">
  <advance width="862"/>
  <unicode hex="0057"/>
  <outline>
    <contour>
      <point x="226" y="0" type="line" name="hr00"/>
      <point x="387" y="362" type="line"/>
      <point x="496" y="606" type="line"/>
      <point x="501" y="606" type="line"/>
      <point x="511" y="367" type="line"/>
      <point x="529" y="0" type="line"/>
      <point x="622" y="0" type="line"/>
      <point x="935" y="698" type="line"/>
      <point x="851" y="698" type="line"/>
      <point x="701" y="349" type="line"/>
      <point x="595" y="102" type="line"/>
      <point x="591" y="102" type="line"/>
      <point x="577" y="403" type="line"/>
      <point x="562" y="698" type="line"/>
      <point x="466" y="698" type="line"/>
      <point x="340" y="416" type="line"/>
      <point x="203" y="101" type="line"/>
      <point x="199" y="101" type="line"/>
      <point x="193" y="344" type="line"/>
      <point x="184" y="698" type="line"/>
      <point x="103" y="698" type="line"/>
      <point x="132" y="0" type="line"/>
    </contour>
    <contour>
      <point x="381" y="0" type="move" name="bottom"/>
    </contour>
    <contour>
      <point x="509" y="698" type="move" name="top"/>
    </contour>
  </outline>
</glyph>
<glyph name="X" format="1">
  <advance width="596"/>
  <unicode hex="0058"/>
  <outline>
    <contour>
      <point x="360" y="343" type="line" name="hr00"/>
      <point x="653" y="698" type="line"/>
      <point x="559" y="698" type="line"/>
      <point x="328" y="411" type="line"/>
      <point x="324" y="411" type="line"/>
      <point x="205" y="698" type="line"/>
      <point x="120" y="698" type="line"/>
      <point x="263" y="358" type="line"/>
      <point x="-25" y="0" type="line"/>
      <point x="69" y="0" type="line"/>
      <point x="299" y="286" type="line"/>
      <point x="303" y="286" type="line"/>
      <point x="423" y="0" type="line"/>
      <point x="508" y="0" type="line"/>
    </contour>
    <contour>
      <point x="243" y="0" type="move" name="bottom"/>
    </contour>
    <contour>
      <point x="377" y="698" type="move" name="top"/>
    </contour>
  </outline>
</glyph>
<glyph name="Y" format="1">
  <advance width="577"/>
  <unicode hex="0059"/>
  <outline>
    <contour>
      <point x="277" y="0" type="line" name="hr00"/>
      <point x="332" y="273" type="line"/>
      <point x="651" y="698" type="line"/>
      <point x="558" y="698" type="line"/>
      <point x="308" y="357" type="line"/>
      <point x="303" y="357" type="line"/>
      <point x="187" y="698" type="line"/>
      <point x="105" y="698" type="line"/>
      <point x="251" y="273" type="line"/>
      <point x="196" y="0" type="line"/>
    </contour>
    <contour>
      <point x="236" y="0" type="move" name="bottom"/>
    </contour>
    <contour>
      <point x="361" y="698" type="move" name="top"/>
    </contour>
  </outline>
</glyph>
<glyph name="Z" format="1">
  <advance width="563"/>
  <unicode hex="005A"/>
  <outline>
    <contour>
      <point x="487" y="72" type="line" name="hr00"/>
      <point x="95" y="72" type="line"/>
      <point x="587" y="620" type="line"/>
      <point x="603" y="698" type="line"/>
      <point x="134" y="698" type="line"/>
      <point x="119" y="626" type="line"/>
      <point x="493" y="626" type="line"/>
      <point x="1" y="78" type="line"/>
      <point x="-15" y="0" type="line"/>
      <point x="472" y="0" type="line"/>
    </contour>
    <contour>
      <point x="242" y="0" type="move" name="bottom"/>
    </contour>
    <contour>
      <point x="352" y="698" type="move" name="top"/>
    </contour>
  </outline>
</glyph>
<glyph name="bracketleft" format="1">
  <advance width="317"/>
  <unicode hex="005B"/>
  <outline>
    <contour>
      <point x="170" y="-138" type="line" name="hr00"/>
      <point x="182" y="-77" type="line"/>
      <point x="93" y="-77" type="line"/>
      <point x="249" y="699" type="line"/>
      <point x="338" y="699" type="line"/>
      <point x="351" y="760" type="line"/>
      <point x="192" y="760" type="line"/>
      <point x="12" y="-138" type="line"/>
    </contour>
  </outline>
</glyph>
<glyph name="backslash" format="1">
  <advance width="378"/>
  <unicode hex="005C"/>
  <outline>
    <contour>
      <point x="280" y="-151" type="line" name="hr00"/>
      <point x="209" y="740" type="line"/>
      <point x="142" y="740" type="line"/>
      <point x="213" y="-151" type="line"/>
    </contour>
  </outline>
</glyph>
<glyph name="bracketright" format="1">
  <advance width="316"/>
  <unicode hex="005D"/>
  <outline>
    <contour>
      <point x="169" y="760" type="line" name="hr00"/>
      <point x="157" y="699" type="line"/>
      <point x="246" y="699" type="line"/>
      <point x="90" y="-77" type="line"/>
      <point x="1" y="-77" type="line"/>
      <point x="-12" y="-138" type="line"/>
      <point x="147" y="-138" type="line"/>
      <point x="327" y="760" type="line"/>
    </contour>
  </outline>
</glyph>
<glyph name="asciicircum" format="1">
  <advance width="600"/>
  <unicode hex="005E"/>
  <outline>
    <contour>
      <point x="555" y="325" type="line" name="hr00"/>
      <point x="429" y="698" type="line"/>
      <point x="344" y="698" type="line"/>
      <point x="74" y="331" type="line"/>
      <point x="130" y="296" type="line"/>
      <point x="374" y="621" type="line"/>
      <point x="378" y="621" type="line"/>
      <point x="493" y="296" type="line"/>
    </contour>
  </outline>
</glyph>
<glyph name="underscore" format="1">
  <advance width="548"/>
  <unicode hex="005F"/>
  <outline>
    <contour>
      <point x="433" y="-163" type="line" name="hr00"/>
      <point x="447" y="-97" type="line"/>
      <point x="-39" y="-97" type="line"/>
      <point x="-53" y="-163" type="line"/>
    </contour>
  </outline>
</glyph>
<glyph name="a" format="1">
  <advance width="583"/>
  <unicode hex="0061"/>
  <outline>
    <contour>
      <point x="506" y="0" type="line"/>
      <point x="519" y="68" type="line"/>
      <point x="446" y="68" type="line"/>
      <point x="536" y="516" type="line"/>
      <point x="459" y="516" type="line"/>
      <point x="442" y="432" type="line"/>
      <point x="438" y="432" type="line"/>
      <point x="423" y="497"/>
      <point x="365" y="528"/>
      <point x="303" y="528" type="curve" smooth="yes" name="hr01"/>
      <point x="167" y="528"/>
      <point x="87" y="406"/>
      <point x="61" y="280" type="curve" smooth="yes"/>
      <point x="54" y="248"/>
      <point x="51" y="216"/>
      <point x="51" y="185" type="curve" smooth="yes"/>
      <point x="51" y="63"/>
      <point x="114" y="-12"/>
      <point x="208" y="-12" type="curve" smooth="yes"/>
      <point x="284" y="-12"/>
      <point x="333" y="26"/>
      <point x="375" y="112" type="curve"/>
      <point x="378" y="112" type="line"/>
      <point x="373" y="89" type="line" smooth="yes"/>
      <point x="371" y="79"/>
      <point x="370" y="70"/>
      <point x="370" y="62" type="curve" smooth="yes"/>
      <point x="370" y="25"/>
      <point x="392" y="0"/>
      <point x="437" y="0" type="curve" smooth="yes" name="hr02"/>
    </contour>
    <contour>
      <point x="227" y="58" type="curve" smooth="yes" name="hr03"/>
      <point x="160" y="58"/>
      <point x="130" y="109"/>
      <point x="130" y="175" type="curve" smooth="yes"/>
      <point x="130" y="191"/>
      <point x="132" y="209"/>
      <point x="135" y="226" type="curve" smooth="yes"/>
      <point x="150" y="301" type="line" smooth="yes"/>
      <point x="170" y="401"/>
      <point x="225" y="458"/>
      <point x="312" y="458" type="curve" smooth="yes"/>
      <point x="391" y="458"/>
      <point x="436" y="402"/>
      <point x="427" y="357" type="curve" smooth="yes"/>
      <point x="402" y="233" type="line" smooth="yes"/>
      <point x="392" y="183"/>
      <point x="372" y="144"/>
      <point x="337" y="109" type="curve" smooth="yes"/>
      <point x="307" y="79"/>
      <point x="275" y="58"/>
    </contour>
    <contour>
      <point x="261.0" y="0.0" type="move" name="bottom"/>
    </contour>
    <contour>
      <point x="506.0" y="0.0" type="move" name="bottomright"/>
    </contour>
    <contour>
      <point x="331.0" y="540.0" type="move" name="top"/>
    </contour>
  </outline>
</glyph>
<glyph name="b" format="1">
  <advance width="572"/>
  <unicode hex="0062"/>
  <outline>
    <contour>
      <point x="36" y="0" type="line"/>
      <point x="113" y="0" type="line"/>
      <point x="130" y="84" type="line"/>
      <point x="134" y="84" type="line"/>
      <point x="149" y="19"/>
      <point x="207" y="-12"/>
      <point x="269" y="-12" type="curve" smooth="yes" name=""/>
      <point x="407" y="-12"/>
      <point x="486" y="112"/>
      <point x="512" y="240" type="curve" smooth="yes"/>
      <point x="518" y="271"/>
      <point x="521" y="302"/>
      <point x="521" y="331" type="curve" smooth="yes"/>
      <point x="521" y="453"/>
      <point x="458" y="528"/>
      <point x="364" y="528" type="curve" smooth="yes"/>
      <point x="288" y="528"/>
      <point x="239" y="490"/>
      <point x="197" y="404" type="curve"/>
      <point x="194" y="404" type="line"/>
      <point x="262" y="740" type="line" name=""/>
      <point x="185" y="740" type="line"/>
    </contour>
    <contour>
      <point x="262" y="58" type="curve" smooth="yes" name=""/>
      <point x="170" y="58"/>
      <point x="136" y="114"/>
      <point x="149" y="178" type="curve" smooth="yes"/>
      <point x="170" y="283" type="line" smooth="yes"/>
      <point x="180" y="335"/>
      <point x="202" y="374"/>
      <point x="235" y="407" type="curve" smooth="yes"/>
      <point x="265" y="437"/>
      <point x="298" y="458"/>
      <point x="343" y="458" type="curve" smooth="yes"/>
      <point x="412" y="458"/>
      <point x="442" y="408"/>
      <point x="442" y="341" type="curve" smooth="yes"/>
      <point x="442" y="324"/>
      <point x="440" y="307"/>
      <point x="437" y="290" type="curve" smooth="yes"/>
      <point x="422" y="215" type="line" smooth="yes"/>
      <point x="402" y="115"/>
      <point x="346" y="58"/>
    </contour>
    <contour>
      <point x="256.0" y="0.0" type="move" name="bottom"/>
    </contour>
  </outline>
</glyph>
<glyph name="c" format="1">
  <advance width="488"/>
  <unicode hex="0063"/>
  <outline>
    <contour>
      <point x="236" y="-12" type="curve" smooth="yes" name=""/>
      <point x="325" y="-12"/>
      <point x="394" y="39"/>
      <point x="437" y="128" type="curve"/>
      <point x="376" y="158" type="line"/>
      <point x="335" y="81"/>
      <point x="294" y="57"/>
      <point x="244" y="57" type="curve" smooth="yes"/>
      <point x="165" y="57"/>
      <point x="126" y="109"/>
      <point x="126" y="183" type="curve" smooth="yes"/>
      <point x="126" y="195"/>
      <point x="127" y="213"/>
      <point x="130" y="228" type="curve" smooth="yes"/>
      <point x="147" y="312" type="line" smooth="yes"/>
      <point x="165" y="403"/>
      <point x="218" y="459"/>
      <point x="300" y="459" type="curve" smooth="yes"/>
      <point x="357" y="459"/>
      <point x="392" y="432"/>
      <point x="409" y="378" type="curve"/>
      <point x="473" y="407" type="line"/>
      <point x="453" y="477"/>
      <point x="393" y="528"/>
      <point x="302" y="528" type="curve" smooth="yes"/>
      <point x="172" y="528"/>
      <point x="83" y="424"/>
      <point x="57" y="286" type="curve" smooth="yes"/>
      <point x="52" y="258"/>
      <point x="49" y="229"/>
      <point x="49" y="199" type="curve" smooth="yes"/>
      <point x="49" y="72"/>
      <point x="119" y="-12"/>
    </contour>
    <contour>
      <point x="233.0" y="0.0" type="move" name="bottom"/>
    </contour>
    <contour>
      <point x="306.0" y="540.0" type="move" name="top"/>
    </contour>
  </outline>
</glyph>
<glyph name="e" format="1">
  <advance width="511"/>
  <unicode hex="0065"/>
  <outline>
    <contour>
      <point x="244" y="-12" type="curve" smooth="yes" name=""/>
      <point x="318" y="-12"/>
      <point x="393" y="16"/>
      <point x="457" y="94" type="curve"/>
      <point x="407" y="139" type="line"/>
      <point x="367" y="90"/>
      <point x="314" y="57"/>
      <point x="249" y="57" type="curve" smooth="yes"/>
      <point x="169" y="57"/>
      <point x="126" y="106"/>
      <point x="126" y="179" type="curve" smooth="yes"/>
      <point x="126" y="190"/>
      <point x="127" y="207"/>
      <point x="129" y="221" type="curve"/>
      <point x="369" y="223"/>
      <point x="485" y="277"/>
      <point x="485" y="390" type="curve" smooth="yes"/>
      <point x="485" y="483"/>
      <point x="407" y="528"/>
      <point x="319" y="528" type="curve" smooth="yes"/>
      <point x="183" y="528"/>
      <point x="85" y="420"/>
      <point x="57" y="284" type="curve" smooth="yes"/>
      <point x="52" y="258"/>
      <point x="49" y="231"/>
      <point x="49" y="204" type="curve" smooth="yes"/>
      <point x="49" y="64"/>
      <point x="121" y="-12"/>
    </contour>
    <contour>
      <point x="311" y="462" type="curve" smooth="yes"/>
      <point x="360" y="462"/>
      <point x="406" y="446"/>
      <point x="406" y="391" type="curve" smooth="yes"/>
      <point x="406" y="320"/>
      <point x="360" y="289"/>
      <point x="139" y="281" type="curve"/>
      <point x="145" y="310" type="line" smooth="yes"/>
      <point x="164" y="402"/>
      <point x="230" y="462"/>
    </contour>
    <contour>
      <point x="243.0" y="0.0" type="move" name="bottom"/>
    </contour>
    <contour>
      <point x="322.0" y="0.0" type="move" name="bottomright"/>
    </contour>
    <contour>
      <point x="321.0" y="540.0" type="move" name="top"/>
    </contour>
  </outline>
</glyph>
<glyph name="f" format="1">
  <advance width="307"/>
  <unicode hex="0066"/>
  <outline>
    <contour>
      <point x="226" y="448" type="line" name="hr00"/>
      <point x="327" y="448" type="line"/>
      <point x="340" y="516" type="line"/>
      <point x="239" y="516" type="line"/>
      <point x="271" y="672" type="line"/>
      <point x="376" y="672" type="line"/>
      <point x="389" y="740" type="line"/>
      <point x="310" y="740" type="line" smooth="yes"/>
      <point x="230" y="740"/>
      <point x="198" y="696"/>
      <point x="184" y="626" type="curve" smooth="yes"/>
      <point x="162" y="516" type="line"/>
      <point x="77" y="516" type="line"/>
      <point x="64" y="448" type="line"/>
      <point x="149" y="448" type="line"/>
      <point x="31" y="-132" type="line"/>
      <point x="-62" y="-132" type="line"/>
      <point x="-75" y="-200" type="line"/>
      <point x="-8" y="-200" type="line" smooth="yes"/>
      <point x="72" y="-200"/>
      <point x="104" y="-156"/>
      <point x="118" y="-86" type="curve" smooth="yes"/>
    </contour>
  </outline>
</glyph>
<glyph name="g" format="1">
  <advance width="508"/>
  <unicode hex="0067"/>
  <outline>
    <contour>
      <point x="462" y="-37" type="curve" smooth="yes"/>
      <point x="462" y="38"/>
      <point x="418" y="79"/>
      <point x="303" y="79" type="curve" smooth="yes"/>
      <point x="188" y="79" type="line" smooth="yes"/>
      <point x="141" y="79"/>
      <point x="120" y="90"/>
      <point x="120" y="116" type="curve" smooth="yes"/>
      <point x="120" y="150"/>
      <point x="154" y="167"/>
      <point x="202" y="176" type="curve"/>
      <point x="216" y="174"/>
      <point x="227" y="173"/>
      <point x="241" y="173" type="curve" smooth="yes"/>
      <point x="371" y="173"/>
      <point x="464" y="261"/>
      <point x="464" y="377" type="curve" smooth="yes" name="hr01"/>
      <point x="464" y="417"/>
      <point x="453" y="450"/>
      <point x="432" y="476" type="curve"/>
      <point x="440" y="517" type="line"/>
      <point x="529" y="517" type="line"/>
      <point x="542" y="586" type="line"/>
      <point x="469" y="586" type="line" smooth="yes"/>
      <point x="427" y="586"/>
      <point x="405" y="559"/>
      <point x="398" y="518" type="curve" smooth="yes"/>
      <point x="396" y="506" type="line"/>
      <point x="371" y="520"/>
      <point x="338" y="528"/>
      <point x="300" y="528" type="curve" smooth="yes" name="hr02"/>
      <point x="172" y="528"/>
      <point x="82" y="440"/>
      <point x="82" y="322" type="curve" smooth="yes"/>
      <point x="82" y="261"/>
      <point x="106" y="216"/>
      <point x="152" y="192" type="curve"/>
      <point x="151" y="185" type="line"/>
      <point x="81" y="171"/>
      <point x="47" y="136"/>
      <point x="47" y="87" type="curve" smooth="yes" name="hr03"/>
      <point x="47" y="57"/>
      <point x="60" y="37"/>
      <point x="89" y="24" type="curve"/>
      <point x="87" y="16" type="line"/>
      <point x="19" y="-4"/>
      <point x="-15" y="-45"/>
      <point x="-15" y="-98" type="curve" smooth="yes" name="hr04"/>
      <point x="-15" y="-173"/>
      <point x="55" y="-212"/>
      <point x="193" y="-212" type="curve" smooth="yes"/>
      <point x="400" y="-212"/>
      <point x="462" y="-128"/>
    </contour>
    <contour>
      <point x="382" y="-53" type="curve" smooth="yes"/>
      <point x="382" y="-110"/>
      <point x="332" y="-149"/>
      <point x="217" y="-149" type="curve" smooth="yes"/>
      <point x="170" y="-149" type="line" smooth="yes"/>
      <point x="88" y="-149"/>
      <point x="62" y="-117"/>
      <point x="62" y="-75" type="curve" smooth="yes"/>
      <point x="62" y="-38"/>
      <point x="82" y="-11"/>
      <point x="122" y="6" type="curve"/>
      <point x="299" y="6" type="line" smooth="yes"/>
      <point x="362" y="6"/>
      <point x="382" y="-17"/>
    </contour>
    <contour>
      <point x="253" y="234" type="curve" smooth="yes"/>
      <point x="189" y="234"/>
      <point x="159" y="264"/>
      <point x="159" y="312" type="curve" smooth="yes"/>
      <point x="159" y="324"/>
      <point x="161" y="332"/>
      <point x="168" y="368" type="curve" smooth="yes"/>
      <point x="180" y="427"/>
      <point x="218" y="466"/>
      <point x="291" y="466" type="curve" smooth="yes"/>
      <point x="355" y="466"/>
      <point x="385" y="435"/>
      <point x="385" y="387" type="curve" smooth="yes" name="hr05"/>
      <point x="385" y="375"/>
      <point x="383" y="367"/>
      <point x="376" y="331" type="curve" smooth="yes"/>
      <point x="364" y="272"/>
      <point x="326" y="234"/>
    </contour>
    <contour>
      <point x="300" y="540" type="move" name="top"/>
    </contour>
  </outline>
</glyph>
<glyph name="j" format="1">
  <advance width="253"/>
  <unicode hex="006A"/>
  <outline>
    <contour>
      <point x="10" y="-132" type="line" name="hr01"/>
      <point x="-73" y="-132" type="line"/>
      <point x="-87" y="-200" type="line"/>
      <point x="-20" y="-200" type="line" smooth="yes"/>
      <point x="50" y="-200"/>
      <point x="80" y="-168"/>
      <point x="94" y="-98" type="curve" smooth="yes"/>
      <point x="217" y="516" type="line"/>
      <point x="140" y="516" type="line"/>
    </contour>
    <contour>
      <point x="206" y="637" type="curve" smooth="yes"/>
      <point x="239" y="637"/>
      <point x="255" y="652"/>
      <point x="260" y="677" type="curve" smooth="yes"/>
      <point x="264" y="696"/>
      <point x="264" y="701"/>
      <point x="264" y="705" type="curve" smooth="yes"/>
      <point x="264" y="724"/>
      <point x="253" y="740"/>
      <point x="222" y="740" type="curve" smooth="yes"/>
      <point x="189" y="740"/>
      <point x="173" y="725"/>
      <point x="168" y="700" type="curve" smooth="yes"/>
      <point x="164" y="681"/>
      <point x="164" y="676"/>
      <point x="164" y="672" type="curve" smooth="yes"/>
      <point x="164" y="653"/>
      <point x="175" y="637"/>
    </contour>
  </outline>
</glyph>
<glyph name="k" format="1">
  <advance width="519"/>
  <unicode hex="006B"/>
  <outline>
    <contour>
      <point x="36" y="0" type="line" name=""/>
      <point x="113" y="0" type="line"/>
      <point x="149" y="181" type="line"/>
      <point x="240" y="263" type="line"/>
      <point x="331" y="54" type="line" smooth="yes"/>
      <point x="348" y="15"/>
      <point x="370" y="0"/>
      <point x="416" y="0" type="curve" smooth="yes"/>
      <point x="460" y="0" type="line"/>
      <point x="473" y="68" type="line"/>
      <point x="407" y="68" type="line"/>
      <point x="302" y="308" type="line"/>
      <point x="532" y="516" type="line"/>
      <point x="439" y="516" type="line"/>
      <point x="265" y="363" type="line"/>
      <point x="173" y="275" type="line"/>
      <point x="168" y="275" type="line"/>
      <point x="188" y="374" type="line"/>
      <point x="262" y="740" type="line"/>
      <point x="185" y="740" type="line"/>
    </contour>
    <contour>
      <point x="240.0" y="0.0" type="move" name="bottom"/>
    </contour>
  </outline>
</glyph>
<glyph name="l" format="1">
  <advance width="264"/>
  <unicode hex="006C"/>
  <outline>
    <contour>
      <point x="192" y="0" type="line" name="hr00"/>
      <point x="205" y="68" type="line"/>
      <point x="127" y="68" type="line"/>
      <point x="262" y="740" type="line"/>
      <point x="185" y="740" type="line"/>
      <point x="54" y="87" type="line" smooth="yes"/>
      <point x="52" y="77"/>
      <point x="51" y="70"/>
      <point x="51" y="63" type="curve" smooth="yes"/>
      <point x="51" y="26"/>
      <point x="74" y="0"/>
      <point x="121" y="0" type="curve" smooth="yes"/>
    </contour>
    <contour>
      <point x="116" y="0" type="move" name="bottom"/>
    </contour>
    <contour>
      <point x="223" y="740" type="move" name="top"/>
    </contour>
    <contour>
      <point x="325" y="740" type="move" name="topright"/>
    </contour>
  </outline>
</glyph>
<glyph name="o" format="1">
  <advance width="550"/>
  <unicode hex="006F"/>
  <outline>
    <contour>
      <point x="235" y="-12" type="curve" smooth="yes" name=""/>
      <point x="366" y="-12"/>
      <point x="463" y="95"/>
      <point x="492" y="230" type="curve" smooth="yes"/>
      <point x="498" y="258"/>
      <point x="501" y="287"/>
      <point x="501" y="316" type="curve" smooth="yes"/>
      <point x="501" y="456"/>
      <point x="423" y="528"/>
      <point x="315" y="528" type="curve" smooth="yes"/>
      <point x="184" y="528"/>
      <point x="87" y="421"/>
      <point x="58" y="286" type="curve" smooth="yes"/>
      <point x="52" y="258"/>
      <point x="49" y="229"/>
      <point x="49" y="200" type="curve" smooth="yes"/>
      <point x="49" y="60"/>
      <point x="127" y="-12"/>
    </contour>
    <contour>
      <point x="245" y="57" type="curve" smooth="yes"/>
      <point x="167" y="57"/>
      <point x="125" y="106"/>
      <point x="125" y="178" type="curve" smooth="yes"/>
      <point x="125" y="193"/>
      <point x="127" y="208"/>
      <point x="130" y="223" type="curve" smooth="yes"/>
      <point x="145" y="298" type="line" smooth="yes"/>
      <point x="166" y="403"/>
      <point x="231" y="459"/>
      <point x="305" y="459" type="curve" smooth="yes"/>
      <point x="383" y="459"/>
      <point x="425" y="410"/>
      <point x="425" y="338" type="curve" smooth="yes"/>
      <point x="425" y="323"/>
      <point x="423" y="308"/>
      <point x="420" y="293" type="curve" smooth="yes"/>
      <point x="405" y="218" type="line" smooth="yes"/>
      <point x="384" y="113"/>
      <point x="319" y="57"/>
    </contour>
    <contour>
      <point x="233.0" y="0.0" type="move" name="bottom"/>
    </contour>
    <contour>
      <point x="318.0" y="540.0" type="move" name="top"/>
    </contour>
  </outline>
</glyph>
<glyph name="p" format="1">
  <advance width="572"/>
  <unicode hex="0070"/>
  <outline>
    <contour>
      <point x="-4" y="-200" type="line"/>
      <point x="73" y="-200" type="line"/>
      <point x="130" y="84" type="line"/>
      <point x="134" y="84" type="line"/>
      <point x="149" y="19"/>
      <point x="207" y="-12"/>
      <point x="269" y="-12" type="curve" smooth="yes"/>
      <point x="409" y="-12"/>
      <point x="489" y="116"/>
      <point x="513" y="246" type="curve" smooth="yes"/>
      <point x="518" y="275"/>
      <point x="521" y="304"/>
      <point x="521" y="331" type="curve" smooth="yes"/>
      <point x="521" y="453"/>
      <point x="458" y="528"/>
      <point x="364" y="528" type="curve" smooth="yes"/>
      <point x="288" y="528"/>
      <point x="239" y="490"/>
      <point x="197" y="404" type="curve"/>
      <point x="194" y="404" type="line"/>
      <point x="217" y="516" type="line" name="hr01"/>
      <point x="140" y="516" type="line"/>
    </contour>
    <contour>
      <point x="262" y="58" type="curve" smooth="yes"/>
      <point x="170" y="58"/>
      <point x="136" y="114"/>
      <point x="149" y="178" type="curve" smooth="yes"/>
      <point x="170" y="283" type="line" smooth="yes"/>
      <point x="180" y="335"/>
      <point x="202" y="374"/>
      <point x="235" y="407" type="curve" smooth="yes"/>
      <point x="265" y="437"/>
      <point x="298" y="458"/>
      <point x="343" y="458" type="curve" smooth="yes" name="hr02"/>
      <point x="412" y="458"/>
      <point x="442" y="408"/>
      <point x="442" y="341" type="curve" smooth="yes"/>
      <point x="442" y="324"/>
      <point x="440" y="307"/>
      <point x="437" y="290" type="curve" smooth="yes"/>
      <point x="422" y="215" type="line" smooth="yes"/>
      <point x="402" y="115"/>
      <point x="346" y="58"/>
    </contour>
    <contour>
      <point x="362" y="540" type="move" name="top"/>
    </contour>
  </outline>
</glyph>
<glyph name="q" format="1">
  <advance width="572"/>
  <unicode hex="0071"/>
  <outline>
    <contour>
      <point x="315" y="-200" type="line"/>
      <point x="392" y="-200" type="line"/>
      <point x="536" y="516" type="line"/>
      <point x="459" y="516" type="line"/>
      <point x="442" y="432" type="line"/>
      <point x="438" y="432" type="line"/>
      <point x="423" y="497"/>
      <point x="365" y="528"/>
      <point x="303" y="528" type="curve" smooth="yes" name=""/>
      <point x="165" y="528"/>
      <point x="85" y="403"/>
      <point x="60" y="275" type="curve" smooth="yes"/>
      <point x="54" y="245"/>
      <point x="51" y="214"/>
      <point x="51" y="185" type="curve" smooth="yes"/>
      <point x="51" y="63"/>
      <point x="114" y="-12"/>
      <point x="208" y="-12" type="curve" smooth="yes"/>
      <point x="284" y="-12"/>
      <point x="333" y="26"/>
      <point x="375" y="112" type="curve"/>
      <point x="378" y="112" type="line"/>
    </contour>
    <contour>
      <point x="229" y="58" type="curve" smooth="yes"/>
      <point x="160" y="58"/>
      <point x="130" y="108"/>
      <point x="130" y="175" type="curve" smooth="yes"/>
      <point x="130" y="192"/>
      <point x="132" y="209"/>
      <point x="135" y="226" type="curve" smooth="yes"/>
      <point x="150" y="301" type="line" smooth="yes"/>
      <point x="170" y="401"/>
      <point x="226" y="458"/>
      <point x="310" y="458" type="curve" smooth="yes"/>
      <point x="402" y="458"/>
      <point x="436" y="402"/>
      <point x="423" y="338" type="curve" smooth="yes"/>
      <point x="402" y="233" type="line" smooth="yes"/>
      <point x="392" y="181"/>
      <point x="370" y="142"/>
      <point x="337" y="109" type="curve" smooth="yes"/>
      <point x="307" y="79"/>
      <point x="274" y="58"/>
    </contour>
    <contour>
      <point x="314.0" y="540.0" type="move" name="top"/>
    </contour>
  </outline>
</glyph>
<glyph name="t" format="1">
  <advance width="320"/>
  <unicode hex="0074"/>
  <outline>
    <contour>
      <point x="230" y="0" type="line" name=""/>
      <point x="243" y="68" type="line"/>
      <point x="142" y="68" type="line"/>
      <point x="219" y="448" type="line"/>
      <point x="328" y="448" type="line"/>
      <point x="341" y="516" type="line"/>
      <point x="232" y="516" type="line"/>
      <point x="260" y="659" type="line"/>
      <point x="189" y="659" type="line"/>
      <point x="170" y="565" type="line" smooth="yes"/>
      <point x="163" y="529"/>
      <point x="155" y="516"/>
      <point x="118" y="516" type="curve" smooth="yes"/>
      <point x="79" y="516" type="line"/>
      <point x="66" y="448" type="line"/>
      <point x="142" y="448" type="line"/>
      <point x="69" y="87" type="line" smooth="yes"/>
      <point x="67" y="77"/>
      <point x="66" y="70"/>
      <point x="66" y="63" type="curve" smooth="yes"/>
      <point x="66" y="26"/>
      <point x="86" y="0"/>
      <point x="137" y="0" type="curve" smooth="yes"/>
    </contour>
    <contour>
      <point x="143.0" y="0.0" type="move" name="bottom"/>
    </contour>
    <contour>
      <point x="341.0" y="751.0" type="move" name="topright"/>
    </contour>
  </outline>
</glyph>
<glyph name="u" format="1">
  <advance width="562"/>
  <unicode hex="0075"/>
  <outline>
    <contour>
      <point x="134" y="516" type="line"/>
      <point x="70" y="198" type="line" smooth="yes"/>
      <point x="65" y="173"/>
      <point x="63" y="150"/>
      <point x="63" y="131" type="curve" smooth="yes"/>
      <point x="63" y="42"/>
      <point x="107" y="-12"/>
      <point x="195" y="-12" type="curve" smooth="yes"/>
      <point x="266" y="-12"/>
      <point x="314" y="24"/>
      <point x="350" y="102" type="curve"/>
      <point x="355" y="102" type="line"/>
      <point x="353" y="92" type="line" smooth="yes"/>
      <point x="350" y="78"/>
      <point x="349" y="70"/>
      <point x="349" y="63" type="curve" smooth="yes"/>
      <point x="349" y="26"/>
      <point x="371" y="0"/>
      <point x="415" y="0" type="curve" smooth="yes" name="hr01"/>
      <point x="485" y="0" type="line"/>
      <point x="498" y="68" type="line"/>
      <point x="425" y="68" type="line"/>
      <point x="515" y="516" type="line"/>
      <point x="438" y="516" type="line"/>
      <point x="380" y="228" type="line" smooth="yes"/>
      <point x="372" y="189"/>
      <point x="349" y="137"/>
      <point x="312" y="99" type="curve" smooth="yes"/>
      <point x="285" y="71"/>
      <point x="255" y="58"/>
      <point x="219" y="58" type="curve" smooth="yes" name="hr02"/>
      <point x="164" y="58"/>
      <point x="142" y="88"/>
      <point x="142" y="145" type="curve" smooth="yes"/>
      <point x="142" y="157"/>
      <point x="143" y="178"/>
      <point x="147" y="198" type="curve" smooth="yes"/>
      <point x="211" y="516" type="line"/>
    </contour>
    <contour>
      <point x="258" y="0" type="move" name="bottom"/>
    </contour>
    <contour>
      <point x="485" y="0" type="move" name="bottomright"/>
    </contour>
    <contour>
      <point x="327" y="540" type="move" name="top"/>
    </contour>
  </outline>
</glyph>
<glyph name="v" format="1">
  <advance width="484"/>
  <unicode hex="0076"/>
  <outline>
    <contour>
      <point x="237" y="0" type="line" name="hr00"/>
      <point x="519" y="516" type="line"/>
      <point x="437" y="516" type="line"/>
      <point x="299" y="261" type="line"/>
      <point x="206" y="73" type="line"/>
      <point x="201" y="73" type="line"/>
      <point x="180" y="261" type="line"/>
      <point x="142" y="516" type="line"/>
      <point x="67" y="516" type="line"/>
      <point x="146" y="0" type="line"/>
    </contour>
    <contour>
      <point x="193" y="0" type="move" name="bottom"/>
    </contour>
    <contour>
      <point x="293" y="540" type="move" name="top"/>
    </contour>
  </outline>
</glyph>
<glyph name="y" format="1">
  <advance width="484"/>
  <unicode hex="0079"/>
  <outline>
    <contour>
      <point x="300" y="261" type="line" name="hr00"/>
      <point x="207" y="73" type="line"/>
      <point x="202" y="73" type="line"/>
      <point x="181" y="261" type="line"/>
      <point x="143" y="516" type="line"/>
      <point x="68" y="516" type="line"/>
      <point x="150" y="-16" type="line"/>
      <point x="86" y="-134" type="line"/>
      <point x="-7" y="-134" type="line"/>
      <point x="-20" y="-200" type="line"/>
      <point x="60" y="-200" type="line" smooth="yes"/>
      <point x="112" y="-200"/>
      <point x="138" y="-177"/>
      <point x="171" y="-117" type="curve" smooth="yes"/>
      <point x="520" y="516" type="line"/>
      <point x="438" y="516" type="line"/>
    </contour>
    <contour>
      <point x="325" y="0" type="move" name="bottom"/>
    </contour>
    <contour>
      <point x="294" y="540" type="move" name="top"/>
    </contour>
  </outline>
</glyph>
<glyph name="z" format="1">
  <advance width="448"/>
  <unicode hex="007A"/>
  <outline>
    <contour>
      <point x="368" y="0" type="line" name="hr00"/>
      <point x="381" y="68" type="line"/>
      <point x="101" y="68" type="line"/>
      <point x="444" y="450" type="line"/>
      <point x="457" y="516" type="line"/>
      <point x="98" y="516" type="line"/>
      <point x="85" y="448" type="line"/>
      <point x="351" y="448" type="line"/>
      <point x="8" y="66" type="line"/>
      <point x="-5" y="0" type="line"/>
    </contour>
    <contour>
      <point x="196" y="0" type="move" name="bottom"/>
    </contour>
    <contour>
      <point x="281" y="540" type="move" name="top"/>
    </contour>
  </outline>
</glyph>
<glyph name="cent" format="1">
  <advance width="505"/>
  <unicode hex="00A2"/>
  <outline>
    <contour>
      <point x="155" y="-114" type="line" name=""/>
      <point x="223" y="-114" type="line"/>
      <point x="243" y="-12" type="line"/>
      <point x="332" y="-7"/>
      <point x="393" y="40"/>
      <point x="436" y="128" type="curve"/>
      <point x="375" y="158" type="line"/>
      <point x="338" y="88"/>
      <point x="304" y="60"/>
      <point x="256" y="55" type="curve"/>
      <point x="335" y="455" type="line"/>
      <point x="373" y="444"/>
      <point x="395" y="419"/>
      <point x="408" y="377" type="curve"/>
      <point x="475" y="408" type="line"/>
      <point x="455" y="466"/>
      <point x="415" y="507"/>
      <point x="351" y="522" type="curve"/>
      <point x="373" y="630" type="line"/>
      <point x="305" y="630" type="line"/>
      <point x="284" y="526" type="line"/>
      <point x="164" y="517"/>
      <point x="84" y="418"/>
      <point x="58" y="291" type="curve" smooth="yes"/>
      <point x="52" y="262"/>
      <point x="49" y="231"/>
      <point x="49" y="200" type="curve" smooth="yes"/>
      <point x="49" y="93"/>
      <point x="97" y="18"/>
      <point x="178" y="-4" type="curve"/>
    </contour>
    <contour>
      <point x="125" y="181" type="curve" smooth="yes"/>
      <point x="125" y="196"/>
      <point x="126" y="214"/>
      <point x="129" y="229" type="curve" smooth="yes"/>
      <point x="146" y="312" type="line" smooth="yes"/>
      <point x="162" y="391"/>
      <point x="203" y="443"/>
      <point x="271" y="456" type="curve"/>
      <point x="192" y="63" type="line"/>
      <point x="147" y="81"/>
      <point x="125" y="126"/>
    </contour>
  </outline>
</glyph>
<glyph name="sterling" format="1">
  <advance width="577"/>
  <unicode hex="00A3"/>
  <outline>
    <contour>
      <point x="452" y="0" type="line" name=""/>
      <point x="467" y="72" type="line"/>
      <point x="115" y="72" type="line"/>
      <point x="117" y="77" type="line"/>
      <point x="169" y="109"/>
      <point x="225" y="189"/>
      <point x="228" y="285" type="curve" smooth="yes"/>
      <point x="228" y="286"/>
      <point x="228" y="287"/>
      <point x="228" y="288" type="curve"/>
      <point x="420" y="288" type="line"/>
      <point x="434" y="356" type="line"/>
      <point x="225" y="356" type="line"/>
      <point x="223" y="383"/>
      <point x="220" y="413"/>
      <point x="220" y="441" type="curve" smooth="yes"/>
      <point x="220" y="571"/>
      <point x="285" y="638"/>
      <point x="387" y="638" type="curve" smooth="yes"/>
      <point x="455" y="638"/>
      <point x="495" y="603"/>
      <point x="521" y="549" type="curve"/>
      <point x="589" y="594" type="line"/>
      <point x="553" y="664"/>
      <point x="493" y="710"/>
      <point x="393" y="710" type="curve" smooth="yes"/>
      <point x="239" y="710"/>
      <point x="137" y="600"/>
      <point x="137" y="449" type="curve" smooth="yes"/>
      <point x="137" y="419"/>
      <point x="140" y="387"/>
      <point x="144" y="356" type="curve"/>
      <point x="75" y="356" type="line"/>
      <point x="61" y="288" type="line"/>
      <point x="148" y="288" type="line"/>
      <point x="148" y="287"/>
      <point x="148" y="286"/>
      <point x="148" y="285" type="curve" smooth="yes"/>
      <point x="148" y="235"/>
      <point x="138" y="140"/>
      <point x="47" y="102" type="curve"/>
      <point x="26" y="0" type="line"/>
    </contour>
  </outline>
</glyph>
<glyph name="currency" format="1">
  <advance width="612"/>
  <unicode hex="00A4"/>
  <outline>
    <contour>
      <point x="282" y="119" type="curve" smooth="yes" name="hr00"/>
      <point x="337" y="119"/>
      <point x="384" y="134"/>
      <point x="424" y="162" type="curve"/>
      <point x="506" y="61" type="line"/>
      <point x="560" y="105" type="line"/>
      <point x="475" y="211" type="line"/>
      <point x="502" y="244"/>
      <point x="522" y="292"/>
      <point x="532" y="344" type="curve" smooth="yes"/>
      <point x="536" y="365"/>
      <point x="538" y="386"/>
      <point x="538" y="405" type="curve" smooth="yes"/>
      <point x="538" y="432"/>
      <point x="534" y="456"/>
      <point x="526" y="477" type="curve"/>
      <point x="648" y="577" type="line"/>
      <point x="605" y="629" type="line"/>
      <point x="489" y="534" type="line"/>
      <point x="459" y="563"/>
      <point x="419" y="579"/>
      <point x="363" y="579" type="curve" smooth="yes"/>
      <point x="308" y="579"/>
      <point x="259" y="564"/>
      <point x="219" y="536" type="curve"/>
      <point x="137" y="637" type="line"/>
      <point x="83" y="593" type="line"/>
      <point x="168" y="487" type="line"/>
      <point x="141" y="454"/>
      <point x="121" y="406"/>
      <point x="111" y="354" type="curve" smooth="yes"/>
      <point x="107" y="333"/>
      <point x="105" y="312"/>
      <point x="105" y="293" type="curve" smooth="yes"/>
      <point x="105" y="266"/>
      <point x="109" y="242"/>
      <point x="117" y="221" type="curve"/>
      <point x="-5" y="121" type="line"/>
      <point x="38" y="69" type="line"/>
      <point x="154" y="164" type="line"/>
      <point x="184" y="135"/>
      <point x="226" y="119"/>
    </contour>
    <contour>
      <point x="289" y="186" type="curve" smooth="yes"/>
      <point x="224" y="186"/>
      <point x="182" y="216"/>
      <point x="182" y="279" type="curve" smooth="yes"/>
      <point x="182" y="289"/>
      <point x="183" y="304"/>
      <point x="186" y="317" type="curve" smooth="yes"/>
      <point x="199" y="381" type="line" smooth="yes"/>
      <point x="217" y="469"/>
      <point x="277" y="512"/>
      <point x="354" y="512" type="curve" smooth="yes"/>
      <point x="419" y="512"/>
      <point x="461" y="482"/>
      <point x="461" y="419" type="curve" smooth="yes"/>
      <point x="461" y="409"/>
      <point x="460" y="394"/>
      <point x="457" y="381" type="curve" smooth="yes"/>
      <point x="444" y="317" type="line" smooth="yes"/>
      <point x="426" y="229"/>
      <point x="366" y="186"/>
    </contour>
  </outline>
</glyph>
<glyph name="yen" format="1">
  <advance width="594"/>
  <unicode hex="00A5"/>
  <outline>
    <contour>
      <point x="485" y="145" type="line" name="hr00"/>
      <point x="498" y="211" type="line"/>
      <point x="327" y="211" type="line"/>
      <point x="347" y="308" type="line"/>
      <point x="518" y="308" type="line"/>
      <point x="530" y="374" type="line"/>
      <point x="396" y="374" type="line"/>
      <point x="645" y="698" type="line"/>
      <point x="551" y="698" type="line"/>
      <point x="320" y="386" type="line"/>
      <point x="316" y="386" type="line"/>
      <point x="212" y="698" type="line"/>
      <point x="127" y="698" type="line"/>
      <point x="242" y="374" type="line"/>
      <point x="112" y="374" type="line"/>
      <point x="100" y="308" type="line"/>
      <point x="267" y="308" type="line"/>
      <point x="247" y="211" type="line"/>
      <point x="80" y="211" type="line"/>
      <point x="67" y="145" type="line"/>
      <point x="235" y="145" type="line"/>
      <point x="205" y="0" type="line"/>
      <point x="285" y="0" type="line"/>
      <point x="315" y="145" type="line"/>
    </contour>
  </outline>
</glyph>
<glyph name="brokenbar" format="1">
  <advance width="306"/>
  <unicode hex="00A6"/>
  <outline>
    <contour>
      <point x="216" y="406" type="line" name="hr00"/>
      <point x="288" y="760" type="line"/>
      <point x="222" y="760" type="line"/>
      <point x="150" y="406" type="line"/>
    </contour>
    <contour>
      <point x="107" y="-138" type="line"/>
      <point x="179" y="216" type="line"/>
      <point x="113" y="216" type="line"/>
      <point x="41" y="-138" type="line"/>
    </contour>
  </outline>
</glyph>
<glyph name="copyright" format="1">
  <advance width="784"/>
  <unicode hex="00A9"/>
  <outline>
    <contour>
      <point x="362" y="46" type="curve" smooth="yes"/>
      <point x="227" y="46"/>
      <point x="131" y="142"/>
      <point x="131" y="292" type="curve" smooth="yes"/>
      <point x="131" y="317"/>
      <point x="138" y="357"/>
      <point x="146" y="400" type="curve" smooth="yes"/>
      <point x="173" y="538"/>
      <point x="303" y="650"/>
      <point x="457" y="650" type="curve" smooth="yes"/>
      <point x="592" y="650"/>
      <point x="688" y="554"/>
      <point x="688" y="404" type="curve" smooth="yes"/>
      <point x="688" y="379"/>
      <point x="681" y="339"/>
      <point x="673" y="296" type="curve" smooth="yes"/>
      <point x="646" y="158"/>
      <point x="516" y="46"/>
    </contour>
    <contour>
      <point x="358" y="-12" type="curve" smooth="yes"/>
      <point x="553" y="-12"/>
      <point x="705" y="120"/>
      <point x="743" y="311" type="curve" smooth="yes"/>
      <point x="749" y="341"/>
      <point x="752" y="372"/>
      <point x="752" y="404" type="curve" smooth="yes"/>
      <point x="752" y="584"/>
      <point x="636" y="708"/>
      <point x="461" y="708" type="curve" smooth="yes" name=""/>
      <point x="266" y="708"/>
      <point x="114" y="576"/>
      <point x="76" y="385" type="curve" smooth="yes"/>
      <point x="70" y="355"/>
      <point x="67" y="324"/>
      <point x="67" y="292" type="curve" smooth="yes"/>
      <point x="67" y="112"/>
      <point x="183" y="-12"/>
    </contour>
    <contour>
      <point x="380" y="155" type="curve" smooth="yes"/>
      <point x="447" y="155"/>
      <point x="501" y="193"/>
      <point x="535" y="244" type="curve"/>
      <point x="487" y="282" type="line"/>
      <point x="455" y="237"/>
      <point x="423" y="216"/>
      <point x="388" y="216" type="curve" smooth="yes"/>
      <point x="345" y="216"/>
      <point x="321" y="247"/>
      <point x="321" y="292" type="curve" smooth="yes"/>
      <point x="321" y="301"/>
      <point x="322" y="310"/>
      <point x="324" y="320" type="curve" smooth="yes"/>
      <point x="336" y="379" type="line" smooth="yes"/>
      <point x="348" y="439"/>
      <point x="380" y="483"/>
      <point x="436" y="483" type="curve" smooth="yes"/>
      <point x="475" y="483"/>
      <point x="501" y="461"/>
      <point x="510" y="423" type="curve"/>
      <point x="568" y="447" type="line"/>
      <point x="554" y="497"/>
      <point x="511" y="543"/>
      <point x="439" y="543" type="curve" smooth="yes"/>
      <point x="347" y="543"/>
      <point x="278" y="469"/>
      <point x="257" y="369" type="curve" smooth="yes"/>
      <point x="252" y="347"/>
      <point x="250" y="325"/>
      <point x="250" y="301" type="curve" smooth="yes"/>
      <point x="250" y="210"/>
      <point x="299" y="155"/>
    </contour>
  </outline>
</glyph>
<glyph name="ordfeminine" format="1">
  <advance width="390"/>
  <unicode hex="00AA"/>
  <outline>
    <contour>
      <point x="380" y="405" type="line"/>
      <point x="344" y="405" type="line"/>
      <point x="375" y="560" type="line" smooth="yes"/>
      <point x="378" y="575"/>
      <point x="379" y="588"/>
      <point x="379" y="599" type="curve" smooth="yes"/>
      <point x="379" y="669"/>
      <point x="334" y="704"/>
      <point x="264" y="704" type="curve" smooth="yes"/>
      <point x="200" y="704"/>
      <point x="150" y="671"/>
      <point x="122" y="635" type="curve"/>
      <point x="158" y="601" type="line"/>
      <point x="179" y="631"/>
      <point x="215" y="653"/>
      <point x="256" y="653" type="curve" smooth="yes"/>
      <point x="296" y="653"/>
      <point x="318" y="635"/>
      <point x="318" y="598" type="curve" smooth="yes"/>
      <point x="318" y="589"/>
      <point x="318" y="580"/>
      <point x="316" y="570" type="curve" smooth="yes"/>
      <point x="311" y="546" type="line"/>
      <point x="241" y="546" type="line" smooth="yes"/>
      <point x="136" y="546"/>
      <point x="77" y="504"/>
      <point x="77" y="423" type="curve" smooth="yes"/>
      <point x="77" y="376"/>
      <point x="112" y="344"/>
      <point x="167" y="344" type="curve" smooth="yes" name=""/>
      <point x="223" y="344"/>
      <point x="263" y="373"/>
      <point x="283" y="404" type="curve"/>
      <point x="317" y="404" type="line"/>
      <point x="293" y="432" type="line"/>
      <point x="290" y="419" type="line" smooth="yes"/>
      <point x="286" y="403"/>
      <point x="286" y="393"/>
      <point x="286" y="390" type="curve" smooth="yes"/>
      <point x="286" y="365"/>
      <point x="300" y="350"/>
      <point x="336" y="350" type="curve" smooth="yes" name=""/>
      <point x="369" y="350" type="line"/>
    </contour>
    <contour>
      <point x="302" y="502" type="line"/>
      <point x="294" y="461" type="line" smooth="yes"/>
      <point x="286" y="422"/>
      <point x="238.0" y="394.0"/>
      <point x="188" y="394" type="curve" smooth="yes" name=""/>
      <point x="156" y="394"/>
      <point x="138" y="406"/>
      <point x="138" y="430" type="curve" smooth="yes"/>
      <point x="138" y="434"/>
      <point x="139" y="439"/>
      <point x="142" y="454" type="curve" smooth="yes"/>
      <point x="148" y="484"/>
      <point x="179" y="502"/>
      <point x="231" y="502" type="curve" smooth="yes"/>
    </contour>
  </outline>
</glyph>
<glyph name="logicalnot" format="1">
  <advance width="600"/>
  <unicode hex="00AC"/>
  <outline>
    <contour>
      <point x="490" y="77" type="line" name=""/>
      <point x="542" y="338" type="line"/>
      <point x="82" y="338" type="line"/>
      <point x="68" y="272" type="line"/>
      <point x="462" y="272" type="line"/>
      <point x="423" y="77" type="line"/>
    </contour>
  </outline>
</glyph>
<glyph name="registered" format="1">
  <advance width="469"/>
  <unicode hex="00AE"/>
  <outline>
    <contour>
      <point x="263" y="298" type="curve" smooth="yes" name="hr00"/>
      <point x="389" y="298"/>
      <point x="479" y="399"/>
      <point x="479" y="535" type="curve" smooth="yes"/>
      <point x="479" y="633"/>
      <point x="403" y="710"/>
      <point x="306" y="710" type="curve" smooth="yes"/>
      <point x="180" y="710"/>
      <point x="90" y="609"/>
      <point x="90" y="473" type="curve" smooth="yes"/>
      <point x="90" y="375"/>
      <point x="166" y="298"/>
    </contour>
    <contour>
      <point x="267" y="337" type="curve" smooth="yes"/>
      <point x="189" y="337"/>
      <point x="132" y="394"/>
      <point x="132" y="476" type="curve" smooth="yes"/>
      <point x="132" y="483"/>
      <point x="134" y="512"/>
      <point x="137" y="527" type="curve" smooth="yes"/>
      <point x="154" y="611"/>
      <point x="216" y="671"/>
      <point x="302" y="671" type="curve" smooth="yes"/>
      <point x="380" y="671"/>
      <point x="437" y="614"/>
      <point x="437" y="532" type="curve" smooth="yes"/>
      <point x="437" y="525"/>
      <point x="435" y="496"/>
      <point x="432" y="481" type="curve" smooth="yes"/>
      <point x="415" y="397"/>
      <point x="353" y="337"/>
    </contour>
    <contour>
      <point x="248" y="481" type="line"/>
      <point x="283" y="481" type="line"/>
      <point x="309" y="400" type="line"/>
      <point x="350" y="400" type="line"/>
      <point x="320" y="485" type="line"/>
      <point x="352" y="492"/>
      <point x="372" y="521"/>
      <point x="372" y="556" type="curve" smooth="yes"/>
      <point x="372" y="584"/>
      <point x="354" y="609"/>
      <point x="317" y="609" type="curve" smooth="yes"/>
      <point x="235" y="609" type="line"/>
      <point x="193" y="400" type="line"/>
      <point x="232" y="400" type="line"/>
    </contour>
    <contour>
      <point x="254" y="511" type="line"/>
      <point x="267" y="576" type="line"/>
      <point x="312" y="576" type="line" smooth="yes"/>
      <point x="324" y="576"/>
      <point x="331" y="569"/>
      <point x="331" y="560" type="curve" smooth="yes"/>
      <point x="331" y="557"/>
      <point x="330" y="552"/>
      <point x="326" y="532" type="curve" smooth="yes"/>
      <point x="323" y="517"/>
      <point x="312" y="511"/>
      <point x="298" y="511" type="curve" smooth="yes"/>
    </contour>
  </outline>
</glyph>
<glyph name="macron" format="1">
  <advance width="593"/>
  <unicode hex="00AF"/>
  <outline>
    <contour>
      <point x="174" y="639" type="line" name="hr00"/>
      <point x="446" y="639" type="line"/>
      <point x="460" y="705" type="line"/>
      <point x="188" y="705" type="line"/>
    </contour>
    <contour>
      <point x="290" y="540" type="move" name="_top"/>
    </contour>
  </outline>
</glyph>
<glyph name="degree" format="1">
  <advance width="454"/>
  <unicode hex="00B0"/>
  <outline>
    <contour>
      <point x="263" y="366" type="curve" smooth="yes" name="hr00"/>
      <point x="371" y="366"/>
      <point x="447" y="449"/>
      <point x="447" y="560" type="curve" smooth="yes"/>
      <point x="447" y="649"/>
      <point x="383" y="710"/>
      <point x="303" y="710" type="curve" smooth="yes"/>
      <point x="195" y="710"/>
      <point x="119" y="627"/>
      <point x="119" y="517" type="curve" smooth="yes"/>
      <point x="119" y="427"/>
      <point x="183" y="366"/>
    </contour>
    <contour>
      <point x="272" y="430" type="curve" smooth="yes"/>
      <point x="220" y="430"/>
      <point x="187" y="470"/>
      <point x="187" y="519" type="curve" smooth="yes"/>
      <point x="187" y="589"/>
      <point x="228" y="646"/>
      <point x="294" y="646" type="curve" smooth="yes"/>
      <point x="346" y="646"/>
      <point x="379" y="606"/>
      <point x="379" y="557" type="curve" smooth="yes"/>
      <point x="379" y="487"/>
      <point x="338" y="430"/>
    </contour>
  </outline>
</glyph>
<glyph name="plusminus" format="1">
  <advance width="600"/>
  <unicode hex="00B1"/>
  <outline>
    <contour>
      <point x="317" y="153" type="line" name="hr00"/>
      <point x="357" y="353" type="line"/>
      <point x="544" y="353" type="line"/>
      <point x="557" y="419" type="line"/>
      <point x="370" y="419" type="line"/>
      <point x="410" y="619" type="line"/>
      <point x="337" y="619" type="line"/>
      <point x="297" y="419" type="line"/>
      <point x="107" y="419" type="line"/>
      <point x="94" y="353" type="line"/>
      <point x="284" y="353" type="line"/>
      <point x="244" y="153" type="line"/>
    </contour>
    <contour>
      <point x="474" y="0" type="line"/>
      <point x="487" y="66" type="line"/>
      <point x="37" y="66" type="line"/>
      <point x="24" y="0" type="line"/>
    </contour>
  </outline>
</glyph>
<glyph name="twosuperior" format="1">
  <advance width="339"/>
  <unicode hex="00B2"/>
  <outline>
    <contour>
      <point x="316" y="378" type="line" name="hr00"/>
      <point x="124" y="378" type="line"/>
      <point x="220" y="445" type="line" smooth="yes"/>
      <point x="273" y="482"/>
      <point x="350" y="527"/>
      <point x="350" y="606" type="curve" smooth="yes"/>
      <point x="350" y="672"/>
      <point x="296" y="704"/>
      <point x="231" y="704" type="curve" smooth="yes"/>
      <point x="157" y="704"/>
      <point x="116" y="663"/>
      <point x="94" y="614" type="curve"/>
      <point x="145" y="591" type="line"/>
      <point x="159" y="624"/>
      <point x="185" y="653"/>
      <point x="225" y="653" type="curve" smooth="yes"/>
      <point x="259" y="653"/>
      <point x="284" y="634"/>
      <point x="284" y="604" type="curve" smooth="yes"/>
      <point x="284" y="598"/>
      <point x="282" y="590"/>
      <point x="281" y="585" type="curve" smooth="yes"/>
      <point x="272" y="540"/>
      <point x="237" y="518"/>
      <point x="190" y="484" type="curve" smooth="yes"/>
      <point x="57" y="388" type="line"/>
      <point x="45" y="329" type="line"/>
      <point x="306" y="329" type="line"/>
    </contour>
  </outline>
</glyph>
<glyph name="threesuperior" format="1">
  <advance width="339"/>
  <unicode hex="00B3"/>
  <outline>
    <contour>
      <point x="161" y="545" type="line"/>
      <point x="151" y="496" type="line"/>
      <point x="194" y="496" type="line" smooth="yes"/>
      <point x="236" y="496"/>
      <point x="261" y="476"/>
      <point x="261" y="446" type="curve" smooth="yes"/>
      <point x="261" y="443"/>
      <point x="261" y="440"/>
      <point x="260" y="435" type="curve" smooth="yes"/>
      <point x="252" y="395"/>
      <point x="231" y="372"/>
      <point x="177" y="372" type="curve" smooth="yes"/>
      <point x="129" y="372"/>
      <point x="103" y="392"/>
      <point x="89" y="423" type="curve"/>
      <point x="44" y="392" type="line"/>
      <point x="60" y="356"/>
      <point x="101" y="323"/>
      <point x="176" y="323" type="curve" smooth="yes"/>
      <point x="265" y="323"/>
      <point x="322" y="375"/>
      <point x="322" y="441" type="curve" smooth="yes"/>
      <point x="322" y="485"/>
      <point x="297" y="510"/>
      <point x="260" y="516" type="curve"/>
      <point x="260" y="518" type="line"/>
      <point x="306" y="527"/>
      <point x="348" y="561"/>
      <point x="348" y="614" type="curve" smooth="yes" name="hr01"/>
      <point x="348" y="664"/>
      <point x="308" y="704"/>
      <point x="238" y="704" type="curve" smooth="yes"/>
      <point x="175" y="704"/>
      <point x="134" y="678"/>
      <point x="105" y="641" type="curve"/>
      <point x="141" y="607" type="line"/>
      <point x="164" y="639"/>
      <point x="197" y="655"/>
      <point x="233" y="655" type="curve" smooth="yes"/>
      <point x="268" y="655"/>
      <point x="286" y="635"/>
      <point x="286" y="614" type="curve" smooth="yes"/>
      <point x="286" y="610"/>
      <point x="285" y="604"/>
      <point x="284" y="599" type="curve" smooth="yes"/>
      <point x="279" y="574"/>
      <point x="265" y="545"/>
      <point x="207" y="545" type="curve" smooth="yes"/>
    </contour>
  </outline>
</glyph>
<glyph name="mu" format="1">
  <advance width="568"/>
  <unicode hex="00B5"/>
  <outline>
    <contour>
      <point x="75" y="-200" type="line"/>
      <point x="106" y="-46" type="line"/>
      <point x="116" y="59" type="line"/>
      <point x="120" y="59" type="line"/>
      <point x="131" y="4"/>
      <point x="169" y="-12"/>
      <point x="207" y="-12" type="curve" smooth="yes"/>
      <point x="282" y="-12"/>
      <point x="320" y="26"/>
      <point x="357" y="103" type="curve"/>
      <point x="361" y="103" type="line"/>
      <point x="359" y="92" type="line" smooth="yes"/>
      <point x="356" y="78"/>
      <point x="355" y="70"/>
      <point x="355" y="63" type="curve" smooth="yes"/>
      <point x="355" y="26"/>
      <point x="377" y="0"/>
      <point x="422" y="0" type="curve" smooth="yes" name="hr01"/>
      <point x="491" y="0" type="line"/>
      <point x="504" y="68" type="line"/>
      <point x="431" y="68" type="line"/>
      <point x="521" y="516" type="line"/>
      <point x="444" y="516" type="line"/>
      <point x="386" y="228" type="line" smooth="yes"/>
      <point x="378" y="189"/>
      <point x="355" y="137"/>
      <point x="318" y="99" type="curve" smooth="yes"/>
      <point x="291" y="71"/>
      <point x="261" y="58"/>
      <point x="225" y="58" type="curve" smooth="yes" name="hr02"/>
      <point x="170" y="58"/>
      <point x="148" y="88"/>
      <point x="148" y="145" type="curve" smooth="yes"/>
      <point x="148" y="157"/>
      <point x="149" y="178"/>
      <point x="153" y="198" type="curve" smooth="yes"/>
      <point x="217" y="516" type="line"/>
      <point x="140" y="516" type="line"/>
      <point x="-3" y="-200" type="line"/>
    </contour>
  </outline>
</glyph>
<glyph name="paragraph" format="1">
  <advance width="629"/>
  <unicode hex="00B6"/>
  <outline>
    <contour>
      <point x="156" y="-149" type="line" name="hr00"/>
      <point x="227" y="-149" type="line"/>
      <point x="384" y="632" type="line"/>
      <point x="490" y="632" type="line"/>
      <point x="333" y="-149" type="line"/>
      <point x="404" y="-149" type="line"/>
      <point x="561" y="632" type="line"/>
      <point x="625" y="632" type="line"/>
      <point x="637" y="698" type="line"/>
      <point x="326" y="698" type="line" smooth="yes"/>
      <point x="202" y="698"/>
      <point x="96" y="607"/>
      <point x="96" y="475" type="curve" smooth="yes"/>
      <point x="96" y="382"/>
      <point x="166" y="301"/>
      <point x="247" y="301" type="curve"/>
    </contour>
  </outline>
</glyph>
<glyph name="cedilla" format="1">
  <advance width="593"/>
  <unicode hex="00B8"/>
  <outline>
    <contour>
      <point x="279" y="-207" type="curve" smooth="yes" name="hr00"/>
      <point x="343" y="-207"/>
      <point x="387" y="-171"/>
      <point x="387" y="-116" type="curve" smooth="yes"/>
      <point x="387" y="-74"/>
      <point x="361" y="-60"/>
      <point x="328" y="-60" type="curve" smooth="yes"/>
      <point x="313" y="-60"/>
      <point x="304" y="-63"/>
      <point x="297" y="-64" type="curve"/>
      <point x="295" y="-62" type="line"/>
      <point x="321" y="20" type="line"/>
      <point x="271" y="20" type="line"/>
      <point x="242" y="-76" type="line"/>
      <point x="268" y="-79" type="line" smooth="yes"/>
      <point x="310" y="-84"/>
      <point x="323" y="-97"/>
      <point x="323" y="-118" type="curve" smooth="yes"/>
      <point x="323" y="-139"/>
      <point x="306" y="-154"/>
      <point x="277" y="-154" type="curve" smooth="yes"/>
      <point x="248" y="-154"/>
      <point x="227" y="-142"/>
      <point x="218" y="-129" type="curve"/>
      <point x="178" y="-170" type="line"/>
      <point x="193" y="-190"/>
      <point x="229" y="-207"/>
    </contour>
    <contour>
      <point x="290" y="0" type="move" name="_bottom"/>
    </contour>
  </outline>
</glyph>
<glyph name="onesuperior" format="1">
  <advance width="339"/>
  <unicode hex="00B9"/>
  <outline>
    <contour>
      <point x="324" y="329" type="line" name="hr00"/>
      <point x="334" y="378" type="line"/>
      <point x="239" y="378" type="line"/>
      <point x="303" y="698" type="line"/>
      <point x="211" y="698" type="line"/>
      <point x="102" y="614" type="line"/>
      <point x="132" y="577" type="line"/>
      <point x="228" y="651" type="line"/>
      <point x="234" y="651" type="line"/>
      <point x="179" y="378" type="line"/>
      <point x="74" y="378" type="line"/>
      <point x="64" y="329" type="line"/>
    </contour>
  </outline>
</glyph>
<glyph name="ordmasculine" format="1">
  <advance width="389"/>
  <unicode hex="00BA"/>
  <outline>
    <contour>
      <point x="220" y="344" type="curve" smooth="yes" name="hr00"/>
      <point x="319" y="344"/>
      <point x="376" y="416"/>
      <point x="395" y="504" type="curve" smooth="yes"/>
      <point x="400" y="526"/>
      <point x="402" y="549"/>
      <point x="402" y="572" type="curve" smooth="yes"/>
      <point x="402" y="648"/>
      <point x="352" y="704"/>
      <point x="275" y="704" type="curve" smooth="yes"/>
      <point x="176" y="704"/>
      <point x="119" y="632"/>
      <point x="100" y="544" type="curve" smooth="yes"/>
      <point x="95" y="522"/>
      <point x="93" y="499"/>
      <point x="93" y="476" type="curve" smooth="yes"/>
      <point x="93" y="400"/>
      <point x="143" y="344"/>
    </contour>
    <contour>
      <point x="228" y="395" type="curve" smooth="yes"/>
      <point x="180" y="395"/>
      <point x="154" y="424"/>
      <point x="154" y="468" type="curve" smooth="yes"/>
      <point x="154" y="477"/>
      <point x="156" y="487"/>
      <point x="158" y="497" type="curve" smooth="yes"/>
      <point x="170" y="555" type="line" smooth="yes"/>
      <point x="182" y="611"/>
      <point x="215" y="653"/>
      <point x="267" y="653" type="curve" smooth="yes"/>
      <point x="315" y="653"/>
      <point x="341" y="624"/>
      <point x="341" y="580" type="curve" smooth="yes"/>
      <point x="341" y="571"/>
      <point x="339" y="561"/>
      <point x="337" y="551" type="curve" smooth="yes"/>
      <point x="325" y="493" type="line" smooth="yes"/>
      <point x="313" y="437"/>
      <point x="280" y="395"/>
    </contour>
  </outline>
</glyph>
<glyph name="AE" format="1">
  <advance width="886"/>
  <unicode hex="00C6"/>
  <outline>
    <contour>
      <point x="360" y="0" type="line" name="hr00"/>
      <point x="788" y="0" type="line"/>
      <point x="802" y="72" type="line"/>
      <point x="456" y="72" type="line"/>
      <point x="505" y="318" type="line"/>
      <point x="802" y="318" type="line"/>
      <point x="816" y="390" type="line"/>
      <point x="520" y="390" type="line"/>
      <point x="567" y="626" type="line"/>
      <point x="896" y="626" type="line"/>
      <point x="911" y="698" type="line"/>
      <point x="440" y="698" type="line"/>
      <point x="-42" y="0" type="line"/>
      <point x="50" y="0" type="line"/>
      <point x="189" y="205" type="line"/>
      <point x="401" y="205" type="line"/>
    </contour>
    <contour>
      <point x="487" y="631" type="line"/>
      <point x="416" y="276" type="line"/>
      <point x="239" y="276" type="line"/>
      <point x="477" y="631" type="line"/>
    </contour>
    <contour>
      <point x="589" y="698" type="move" name="top"/>
    </contour>
  </outline>
</glyph>
<glyph name="Ccedilla" format="1">
  <advance width="602"/>
  <unicode hex="00C7"/>
  <outline>
    <contour>
      <point x="378" y="-116" type="curve" smooth="yes"/>
      <point x="378" y="-74"/>
      <point x="352" y="-60"/>
      <point x="319" y="-60" type="curve" smooth="yes"/>
      <point x="304" y="-60"/>
      <point x="295" y="-63"/>
      <point x="288" y="-64" type="curve"/>
      <point x="286" y="-62" type="line"/>
      <point x="302" y="-12" type="line"/>
      <point x="419" y="-8"/>
      <point x="496" y="45"/>
      <point x="555" y="157" type="curve"/>
      <point x="487" y="191" type="line"/>
      <point x="442" y="110"/>
      <point x="392" y="61"/>
      <point x="295" y="61" type="curve" smooth="yes"/>
      <point x="195" y="61"/>
      <point x="136" y="136"/>
      <point x="136" y="246" type="curve" smooth="yes"/>
      <point x="136" y="266"/>
      <point x="137" y="287"/>
      <point x="142" y="312" type="curve" smooth="yes"/>
      <point x="165" y="427" type="line" smooth="yes"/>
      <point x="190" y="554"/>
      <point x="276" y="637"/>
      <point x="383" y="637" type="curve" smooth="yes"/>
      <point x="470" y="637"/>
      <point x="517" y="596"/>
      <point x="542" y="518" type="curve"/>
      <point x="615" y="551" type="line"/>
      <point x="581" y="659"/>
      <point x="504" y="710"/>
      <point x="391" y="710" type="curve" smooth="yes"/>
      <point x="229" y="710"/>
      <point x="110" y="580"/>
      <point x="70" y="403" type="curve" smooth="yes"/>
      <point x="60" y="360"/>
      <point x="55" y="314"/>
      <point x="55" y="266" type="curve" smooth="yes"/>
      <point x="55" y="103"/>
      <point x="136" y="7"/>
      <point x="253" y="-9" type="curve"/>
      <point x="233" y="-76" type="line"/>
      <point x="259" y="-79" type="line" smooth="yes"/>
      <point x="301" y="-84"/>
      <point x="314" y="-97"/>
      <point x="314" y="-118" type="curve" smooth="yes"/>
      <point x="314" y="-139"/>
      <point x="297" y="-154"/>
      <point x="268" y="-154" type="curve" smooth="yes"/>
      <point x="239" y="-154"/>
      <point x="218" y="-142"/>
      <point x="209" y="-129" type="curve"/>
      <point x="169" y="-170" type="line"/>
      <point x="184" y="-190"/>
      <point x="220" y="-207"/>
      <point x="270" y="-207" type="curve" smooth="yes"/>
      <point x="334" y="-207"/>
      <point x="378" y="-171"/>
    </contour>
    <contour>
      <point x="392.0" y="698.0" type="move" name="top"/>
    </contour>
  </outline>
</glyph>
<glyph name="multiply" format="1">
  <advance width="600"/>
  <unicode hex="00D7"/>
  <outline>
    <contour>
      <point x="422" y="93" type="line" name="hr00"/>
      <point x="476" y="140" type="line"/>
      <point x="356" y="302" type="line"/>
      <point x="542" y="464" type="line"/>
      <point x="501" y="518" type="line"/>
      <point x="316" y="356" type="line"/>
      <point x="195" y="518" type="line"/>
      <point x="141" y="471" type="line"/>
      <point x="262" y="309" type="line"/>
      <point x="76" y="146" type="line"/>
      <point x="117" y="92" type="line"/>
      <point x="302" y="255" type="line"/>
    </contour>
  </outline>
</glyph>
<glyph name="Oslash" format="1">
  <advance width="679"/>
  <unicode hex="00D8"/>
  <outline>
    <contour>
      <point x="54" y="-46" type="line"/>
      <point x="135" y="47" type="line"/>
      <point x="178" y="8"/>
      <point x="234" y="-12"/>
      <point x="298" y="-12" type="curve" smooth="yes" name=""/>
      <point x="480" y="-12"/>
      <point x="603" y="137"/>
      <point x="640" y="319" type="curve" smooth="yes"/>
      <point x="648" y="358"/>
      <point x="652" y="398"/>
      <point x="652" y="438" type="curve" smooth="yes"/>
      <point x="652" y="502"/>
      <point x="638" y="554"/>
      <point x="614" y="596" type="curve"/>
      <point x="704" y="699" type="line"/>
      <point x="653" y="744" type="line"/>
      <point x="572" y="651" type="line"/>
      <point x="529" y="690"/>
      <point x="473" y="710"/>
      <point x="409" y="710" type="curve" smooth="yes"/>
      <point x="227" y="710"/>
      <point x="104" y="561"/>
      <point x="67" y="379" type="curve" smooth="yes"/>
      <point x="59" y="340"/>
      <point x="55" y="300"/>
      <point x="55" y="260" type="curve" smooth="yes"/>
      <point x="55" y="196"/>
      <point x="69" y="144"/>
      <point x="93" y="102" type="curve"/>
      <point x="3" y="-1" type="line"/>
    </contour>
    <contour>
      <point x="401" y="637" type="curve" smooth="yes"/>
      <point x="452" y="637"/>
      <point x="493" y="620"/>
      <point x="523" y="592" type="curve"/>
      <point x="365" y="411" type="line"/>
      <point x="148" y="164" type="line"/>
      <point x="146" y="164" type="line"/>
      <point x="139" y="185"/>
      <point x="135" y="210"/>
      <point x="135" y="236" type="curve" smooth="yes"/>
      <point x="135" y="256"/>
      <point x="137" y="280"/>
      <point x="142" y="305" type="curve"/>
      <point x="162" y="405" type="line" smooth="yes"/>
      <point x="191" y="550"/>
      <point x="278" y="637"/>
    </contour>
    <contour>
      <point x="306" y="61" type="curve" smooth="yes"/>
      <point x="255" y="61"/>
      <point x="214" y="78"/>
      <point x="184" y="106" type="curve"/>
      <point x="342" y="287" type="line"/>
      <point x="559" y="534" type="line"/>
      <point x="561" y="534" type="line"/>
      <point x="568" y="513"/>
      <point x="572" y="488"/>
      <point x="572" y="462" type="curve" smooth="yes"/>
      <point x="572" y="442"/>
      <point x="570" y="418"/>
      <point x="565" y="393" type="curve"/>
      <point x="545" y="293" type="line" smooth="yes"/>
      <point x="516" y="148"/>
      <point x="429" y="61"/>
    </contour>
    <contour>
      <point x="289.0" y="0.0" type="move" name="bottom"/>
    </contour>
    <contour>
      <point x="405.0" y="698.0" type="move" name="top"/>
    </contour>
  </outline>
</glyph>
<glyph name="germandbls" format="1">
  <advance width="641"/>
  <unicode hex="00DF"/>
  <outline>
    <contour>
      <point x="586" y="154" type="curve" smooth="yes"/>
      <point x="586" y="240"/>
      <point x="534" y="266"/>
      <point x="470" y="287" type="curve" smooth="yes"/>
      <point x="431" y="300" type="line" smooth="yes"/>
      <point x="388" y="314"/>
      <point x="375" y="335"/>
      <point x="375" y="370" type="curve" smooth="yes"/>
      <point x="375" y="426"/>
      <point x="427" y="460"/>
      <point x="529" y="460" type="curve" smooth="yes"/>
      <point x="574" y="460" type="line"/>
      <point x="586" y="521" type="line" smooth="yes"/>
      <point x="590" y="542"/>
      <point x="592" y="564"/>
      <point x="592" y="584" type="curve" smooth="yes" name="hr01"/>
      <point x="592" y="688"/>
      <point x="520" y="752"/>
      <point x="415" y="752" type="curve" smooth="yes"/>
      <point x="279" y="752"/>
      <point x="187" y="677"/>
      <point x="157" y="527" type="curve" smooth="yes"/>
      <point x="155" y="516" type="line"/>
      <point x="71" y="516" type="line"/>
      <point x="57" y="446" type="line"/>
      <point x="141" y="446" type="line"/>
      <point x="52" y="0" type="line"/>
      <point x="130" y="0" type="line"/>
      <point x="235" y="527" type="line" smooth="yes"/>
      <point x="259" y="648"/>
      <point x="313" y="686"/>
      <point x="405" y="686" type="curve" smooth="yes"/>
      <point x="476" y="686"/>
      <point x="517" y="652"/>
      <point x="517" y="584" type="curve" smooth="yes"/>
      <point x="517" y="567"/>
      <point x="515" y="548"/>
      <point x="511" y="527" type="curve" smooth="yes"/>
      <point x="510" y="522" type="line"/>
      <point x="382" y="522"/>
      <point x="300" y="450"/>
      <point x="300" y="366" type="curve" smooth="yes"/>
      <point x="300" y="278"/>
      <point x="353" y="253"/>
      <point x="419" y="231" type="curve" smooth="yes"/>
      <point x="458" y="218" type="line" smooth="yes"/>
      <point x="500" y="204"/>
      <point x="512" y="184"/>
      <point x="512" y="150" type="curve" smooth="yes" name="hr02"/>
      <point x="512" y="88"/>
      <point x="468" y="55"/>
      <point x="406" y="55" type="curve" smooth="yes"/>
      <point x="346" y="55"/>
      <point x="300" y="81"/>
      <point x="264" y="129" type="curve"/>
      <point x="211" y="82" type="line"/>
      <point x="252" y="22"/>
      <point x="327" y="-12"/>
      <point x="406" y="-12" type="curve" smooth="yes"/>
      <point x="510" y="-12"/>
      <point x="586" y="53"/>
    </contour>
  </outline>
</glyph>
<glyph name="ccedilla" format="1">
  <advance width="488"/>
  <unicode hex="00E7"/>
  <outline>
    <contour>
      <point x="302" y="528" type="curve" smooth="yes" name=""/>
      <point x="172" y="528"/>
      <point x="83" y="424"/>
      <point x="57" y="286" type="curve" smooth="yes"/>
      <point x="52" y="258"/>
      <point x="49" y="229"/>
      <point x="49" y="199" type="curve" smooth="yes"/>
      <point x="49" y="83"/>
      <point x="107" y="3"/>
      <point x="205" y="-10" type="curve"/>
      <point x="185" y="-76" type="line"/>
      <point x="211" y="-79" type="line" smooth="yes"/>
      <point x="253" y="-84"/>
      <point x="266" y="-97"/>
      <point x="266" y="-118" type="curve" smooth="yes"/>
      <point x="266" y="-139"/>
      <point x="249" y="-154"/>
      <point x="220" y="-154" type="curve" smooth="yes"/>
      <point x="191" y="-154"/>
      <point x="170" y="-142"/>
      <point x="161" y="-129" type="curve"/>
      <point x="121" y="-170" type="line"/>
      <point x="136" y="-190"/>
      <point x="172" y="-207"/>
      <point x="222" y="-207" type="curve" smooth="yes"/>
      <point x="286" y="-207"/>
      <point x="330" y="-171"/>
      <point x="330" y="-116" type="curve" smooth="yes"/>
      <point x="330" y="-74"/>
      <point x="304" y="-60"/>
      <point x="271" y="-60" type="curve" smooth="yes"/>
      <point x="256" y="-60"/>
      <point x="247" y="-63"/>
      <point x="240" y="-64" type="curve"/>
      <point x="238" y="-62" type="line"/>
      <point x="254" y="-11" type="line"/>
      <point x="334" y="-4"/>
      <point x="397" y="45"/>
      <point x="437" y="128" type="curve"/>
      <point x="376" y="158" type="line"/>
      <point x="335" y="81"/>
      <point x="294" y="57"/>
      <point x="244" y="57" type="curve" smooth="yes"/>
      <point x="165" y="57"/>
      <point x="126" y="109"/>
      <point x="126" y="183" type="curve" smooth="yes"/>
      <point x="126" y="195"/>
      <point x="127" y="213"/>
      <point x="130" y="228" type="curve" smooth="yes"/>
      <point x="147" y="312" type="line" smooth="yes"/>
      <point x="165" y="403"/>
      <point x="218" y="459"/>
      <point x="300" y="459" type="curve" smooth="yes"/>
      <point x="357" y="459"/>
      <point x="392" y="432"/>
      <point x="409" y="378" type="curve"/>
      <point x="473" y="407" type="line"/>
      <point x="453" y="477"/>
      <point x="393" y="528"/>
    </contour>
    <contour>
      <point x="306.0" y="540.0" type="move" name="top"/>
    </contour>
  </outline>
</glyph>
<glyph name="eth" format="1">
  <advance width="563"/>
  <unicode hex="00F0"/>
  <outline>
    <contour>
      <point x="502" y="707" type="line" name=""/>
      <point x="474" y="753" type="line"/>
      <point x="381" y="692" type="line"/>
      <point x="363" y="711"/>
      <point x="345" y="727"/>
      <point x="330" y="740" type="curve"/>
      <point x="216" y="740" type="line"/>
      <point x="258" y="716"/>
      <point x="295" y="688"/>
      <point x="325" y="656" type="curve"/>
      <point x="244" y="603" type="line"/>
      <point x="270" y="559" type="line"/>
      <point x="359" y="616" type="line"/>
      <point x="403" y="556"/>
      <point x="428" y="487"/>
      <point x="435" y="416" type="curve"/>
      <point x="430" y="414" type="line"/>
      <point x="411" y="471"/>
      <point x="363" y="505"/>
      <point x="293" y="505" type="curve" smooth="yes"/>
      <point x="175" y="505"/>
      <point x="84" y="404"/>
      <point x="57" y="276" type="curve" smooth="yes"/>
      <point x="52" y="251"/>
      <point x="49" y="225"/>
      <point x="49" y="198" type="curve" smooth="yes"/>
      <point x="49" y="74"/>
      <point x="119" y="-12"/>
      <point x="236" y="-12" type="curve" smooth="yes"/>
      <point x="371" y="-12"/>
      <point x="469" y="85"/>
      <point x="500" y="242" type="curve" smooth="yes"/>
      <point x="507" y="277"/>
      <point x="511" y="316"/>
      <point x="511" y="357" type="curve" smooth="yes"/>
      <point x="511" y="491"/>
      <point x="466" y="586"/>
      <point x="416" y="652" type="curve"/>
    </contour>
    <contour>
      <point x="249" y="58" type="curve" smooth="yes"/>
      <point x="172" y="58"/>
      <point x="124" y="101"/>
      <point x="124" y="174" type="curve" smooth="yes"/>
      <point x="124" y="188"/>
      <point x="127" y="202"/>
      <point x="130" y="217" type="curve" smooth="yes"/>
      <point x="143" y="282" type="line" smooth="yes"/>
      <point x="161" y="372"/>
      <point x="223" y="435"/>
      <point x="301" y="435" type="curve" smooth="yes"/>
      <point x="378" y="435"/>
      <point x="426" y="392"/>
      <point x="426" y="319" type="curve" smooth="yes"/>
      <point x="426" y="305"/>
      <point x="423" y="291"/>
      <point x="420" y="276" type="curve" smooth="yes"/>
      <point x="407" y="211" type="line" smooth="yes"/>
      <point x="389" y="121"/>
      <point x="328" y="58"/>
    </contour>
    <contour>
      <point x="234.0" y="0.0" type="move" name="bottom"/>
    </contour>
  </outline>
</glyph>
<glyph name="oslash" format="1">
  <advance width="550"/>
  <unicode hex="00F8"/>
  <outline>
    <contour>
      <point x="235" y="-12" type="curve" smooth="yes"/>
      <point x="368" y="-12"/>
      <point x="465" y="97"/>
      <point x="493" y="235" type="curve" smooth="yes"/>
      <point x="498" y="261"/>
      <point x="501" y="288"/>
      <point x="501" y="316" type="curve" smooth="yes"/>
      <point x="501" y="361"/>
      <point x="493" y="397"/>
      <point x="479" y="428" type="curve"/>
      <point x="567" y="519" type="line"/>
      <point x="528" y="557" type="line"/>
      <point x="448" y="474" type="line"/>
      <point x="415" y="509"/>
      <point x="369" y="528"/>
      <point x="315" y="528" type="curve" smooth="yes"/>
      <point x="182" y="528"/>
      <point x="85" y="419"/>
      <point x="57" y="281" type="curve" smooth="yes"/>
      <point x="52" y="255"/>
      <point x="49" y="228"/>
      <point x="49" y="200" type="curve" smooth="yes"/>
      <point x="49" y="155"/>
      <point x="57" y="119"/>
      <point x="71" y="88" type="curve"/>
      <point x="-17" y="-3" type="line"/>
      <point x="22" y="-41" type="line" name=""/>
      <point x="102" y="42" type="line"/>
      <point x="135" y="7"/>
      <point x="181" y="-12"/>
    </contour>
    <contour>
      <point x="245" y="57" type="curve" smooth="yes"/>
      <point x="204" y="57"/>
      <point x="172" y="71"/>
      <point x="152" y="94" type="curve"/>
      <point x="265" y="210" type="line"/>
      <point x="420" y="369" type="line"/>
      <point x="422" y="369" type="line"/>
      <point x="424" y="361"/>
      <point x="425" y="349"/>
      <point x="425" y="338" type="curve" smooth="yes"/>
      <point x="425" y="324"/>
      <point x="423" y="310"/>
      <point x="409" y="238" type="curve"/>
      <point x="405" y="218" type="line" smooth="yes"/>
      <point x="384" y="113"/>
      <point x="319" y="57"/>
    </contour>
    <contour>
      <point x="305" y="459" type="curve" smooth="yes"/>
      <point x="346" y="459"/>
      <point x="378" y="445"/>
      <point x="398" y="422" type="curve"/>
      <point x="285" y="306" type="line"/>
      <point x="130" y="147" type="line"/>
      <point x="128" y="147" type="line"/>
      <point x="126" y="155"/>
      <point x="125" y="167"/>
      <point x="125" y="178" type="curve" smooth="yes"/>
      <point x="125" y="192"/>
      <point x="127" y="206"/>
      <point x="141" y="278" type="curve"/>
      <point x="145" y="298" type="line" smooth="yes"/>
      <point x="166" y="403"/>
      <point x="231" y="459"/>
    </contour>
    <contour>
      <point x="233.0" y="0.0" type="move" name="bottom"/>
    </contour>
    <contour>
      <point x="325.0" y="540.0" type="move" name="top"/>
    </contour>
  </outline>
</glyph>
<glyph name="thorn" format="1">
  <advance width="572"/>
  <unicode hex="00FE"/>
  <outline>
    <contour>
      <point x="-4" y="-200" type="line" name="hr00"/>
      <point x="73" y="-200" type="line"/>
      <point x="130" y="84" type="line"/>
      <point x="134" y="84" type="line"/>
      <point x="149" y="19"/>
      <point x="207" y="-12"/>
      <point x="269" y="-12" type="curve" smooth="yes"/>
      <point x="409" y="-12"/>
      <point x="489" y="116"/>
      <point x="513" y="246" type="curve" smooth="yes"/>
      <point x="518" y="275"/>
      <point x="521" y="304"/>
      <point x="521" y="331" type="curve" smooth="yes"/>
      <point x="521" y="453"/>
      <point x="458" y="528"/>
      <point x="364" y="528" type="curve" smooth="yes"/>
      <point x="288" y="528"/>
      <point x="239" y="490"/>
      <point x="197" y="404" type="curve"/>
      <point x="194" y="404" type="line"/>
      <point x="262" y="740" type="line"/>
      <point x="185" y="740" type="line"/>
    </contour>
    <contour>
      <point x="262" y="58" type="curve" smooth="yes"/>
      <point x="170" y="58"/>
      <point x="136" y="114"/>
      <point x="149" y="178" type="curve" smooth="yes"/>
      <point x="170" y="283" type="line" smooth="yes"/>
      <point x="180" y="335"/>
      <point x="202" y="374"/>
      <point x="235" y="407" type="curve" smooth="yes"/>
      <point x="265" y="437"/>
      <point x="297" y="458"/>
      <point x="345" y="458" type="curve" smooth="yes"/>
      <point x="412" y="458"/>
      <point x="442" y="407"/>
      <point x="442" y="341" type="curve" smooth="yes"/>
      <point x="442" y="324"/>
      <point x="440" y="307"/>
      <point x="437" y="290" type="curve" smooth="yes"/>
      <point x="422" y="215" type="line" smooth="yes"/>
      <point x="402" y="115"/>
      <point x="346" y="58"/>
    </contour>
  </outline>
</glyph>
<glyph name="Aogonek" format="1">
  <advance width="623"/>
  <unicode hex="0104"/>
  <outline>
    <contour>
      <point x="-27" y="0" type="line" name=""/>
      <point x="59" y="0" type="line"/>
      <point x="167" y="206" type="line"/>
      <point x="438" y="206" type="line"/>
      <point x="464" y="0" type="line"/>
      <point x="485" y="0" type="line"/>
      <point x="486" y="-5" type="line"/>
      <point x="410" y="-39"/>
      <point x="361" y="-77"/>
      <point x="361" y="-132" type="curve" smooth="yes"/>
      <point x="361" y="-186"/>
      <point x="407" y="-207"/>
      <point x="457" y="-207" type="curve" smooth="yes"/>
      <point x="503" y="-207"/>
      <point x="536" y="-189"/>
      <point x="553" y="-170" type="curve"/>
      <point x="516" y="-126" type="line"/>
      <point x="498" y="-144"/>
      <point x="478" y="-153"/>
      <point x="462" y="-153" type="curve" smooth="yes"/>
      <point x="444" y="-153"/>
      <point x="429" y="-143"/>
      <point x="429" y="-122" type="curve" smooth="yes"/>
      <point x="429" y="-101"/>
      <point x="442" y="-70"/>
      <point x="547" y="0" type="curve"/>
      <point x="453" y="698" type="line"/>
      <point x="346" y="698" type="line"/>
    </contour>
    <contour>
      <point x="430" y="278" type="line"/>
      <point x="204" y="278" type="line"/>
      <point x="337" y="534" type="line"/>
      <point x="382" y="621" type="line"/>
      <point x="387" y="621" type="line"/>
      <point x="398" y="534" type="line"/>
    </contour>
    <contour>
      <point x="395.0" y="698.0" type="move" name="top"/>
    </contour>
  </outline>
</glyph>
<glyph name="aogonek" format="1">
  <advance width="583"/>
  <unicode hex="0105"/>
  <outline>
    <contour>
      <point x="519" y="68" type="line"/>
      <point x="446" y="68" type="line"/>
      <point x="536" y="516" type="line"/>
      <point x="459" y="516" type="line"/>
      <point x="442" y="432" type="line"/>
      <point x="438" y="432" type="line"/>
      <point x="423" y="497"/>
      <point x="365" y="528"/>
      <point x="303" y="528" type="curve" smooth="yes" name=""/>
      <point x="165" y="528"/>
      <point x="85" y="403"/>
      <point x="60" y="275" type="curve" smooth="yes"/>
      <point x="54" y="244"/>
      <point x="51" y="214"/>
      <point x="51" y="185" type="curve" smooth="yes"/>
      <point x="51" y="63"/>
      <point x="114" y="-12"/>
      <point x="208" y="-12" type="curve" smooth="yes"/>
      <point x="284" y="-12"/>
      <point x="333" y="26"/>
      <point x="375" y="112" type="curve"/>
      <point x="378" y="112" type="line"/>
      <point x="373" y="89" type="line" smooth="yes"/>
      <point x="371" y="79"/>
      <point x="370" y="70"/>
      <point x="370" y="62" type="curve" smooth="yes"/>
      <point x="370" y="25"/>
      <point x="392" y="0"/>
      <point x="437" y="0" type="curve" smooth="yes" name=""/>
      <point x="474" y="0" type="line"/>
      <point x="438" y="29" type="line"/>
      <point x="445" y="-5" type="line"/>
      <point x="369" y="-39"/>
      <point x="320" y="-77"/>
      <point x="320" y="-132" type="curve" smooth="yes"/>
      <point x="320" y="-186"/>
      <point x="366" y="-207"/>
      <point x="416" y="-207" type="curve" smooth="yes"/>
      <point x="462" y="-207"/>
      <point x="495" y="-189"/>
      <point x="512" y="-170" type="curve"/>
      <point x="475" y="-126" type="line"/>
      <point x="457" y="-144"/>
      <point x="437" y="-153"/>
      <point x="421" y="-153" type="curve" smooth="yes"/>
      <point x="403" y="-153"/>
      <point x="388" y="-143"/>
      <point x="388" y="-122" type="curve" smooth="yes"/>
      <point x="388" y="-101"/>
      <point x="401" y="-70"/>
      <point x="506" y="0" type="curve"/>
    </contour>
    <contour>
      <point x="227" y="58" type="curve" smooth="yes" name=""/>
      <point x="160" y="58"/>
      <point x="130" y="109"/>
      <point x="130" y="175" type="curve" smooth="yes"/>
      <point x="130" y="191"/>
      <point x="132" y="209"/>
      <point x="135" y="226" type="curve" smooth="yes"/>
      <point x="150" y="301" type="line" smooth="yes"/>
      <point x="170" y="401"/>
      <point x="225" y="458"/>
      <point x="312" y="458" type="curve" smooth="yes"/>
      <point x="391" y="458"/>
      <point x="436" y="402"/>
      <point x="427" y="357" type="curve" smooth="yes"/>
      <point x="402" y="233" type="line" smooth="yes"/>
      <point x="392" y="183"/>
      <point x="372" y="144"/>
      <point x="337" y="109" type="curve" smooth="yes"/>
      <point x="307" y="79"/>
      <point x="275" y="58"/>
    </contour>
    <contour>
      <point x="331.0" y="540.0" type="move" name="top"/>
    </contour>
  </outline>
</glyph>
<glyph name="Dcroat" format="1">
  <advance width="655"/>
  <unicode hex="0110"/>
  <outline>
    <contour>
      <point x="42" y="0" type="line" name=""/>
      <point x="278" y="0" type="line" smooth="yes"/>
      <point x="462" y="0"/>
      <point x="580" y="145"/>
      <point x="615" y="317" type="curve" smooth="yes"/>
      <point x="622" y="353"/>
      <point x="626" y="390"/>
      <point x="626" y="427" type="curve" smooth="yes"/>
      <point x="626" y="606"/>
      <point x="536" y="698"/>
      <point x="387" y="698" type="curve" smooth="yes"/>
      <point x="182" y="698" type="line"/>
      <point x="123" y="400" type="line"/>
      <point x="49" y="400" type="line"/>
      <point x="36" y="338" type="line"/>
      <point x="110" y="338" type="line"/>
    </contour>
    <contour>
      <point x="138" y="72" type="line"/>
      <point x="191" y="338" type="line"/>
      <point x="323" y="338" type="line"/>
      <point x="336" y="400" type="line"/>
      <point x="203" y="400" type="line"/>
      <point x="248" y="626" type="line"/>
      <point x="383" y="626" type="line" smooth="yes"/>
      <point x="480" y="626"/>
      <point x="542" y="566"/>
      <point x="542" y="455" type="curve" smooth="yes"/>
      <point x="542" y="436"/>
      <point x="540" y="414"/>
      <point x="536" y="394" type="curve" smooth="yes"/>
      <point x="515" y="289" type="line" smooth="yes"/>
      <point x="487" y="149"/>
      <point x="399" y="72"/>
      <point x="280" y="72" type="curve" smooth="yes"/>
    </contour>
    <contour>
      <point x="246.0" y="0.0" type="move" name="bottom"/>
    </contour>
    <contour>
      <point x="380.0" y="698.0" type="move" name="top"/>
    </contour>
  </outline>
</glyph>
<glyph name="dcroat" format="1">
  <advance width="586"/>
  <unicode hex="0111"/>
  <outline>
    <contour>
      <point x="506" y="0" type="line"/>
      <point x="519" y="68" type="line"/>
      <point x="446" y="68" type="line"/>
      <point x="554" y="609" type="line"/>
      <point x="614" y="609" type="line"/>
      <point x="626" y="669" type="line"/>
      <point x="566" y="669" type="line"/>
      <point x="581" y="740" type="line"/>
      <point x="504" y="740" type="line"/>
      <point x="489" y="669" type="line"/>
      <point x="343" y="669" type="line"/>
      <point x="331" y="609" type="line"/>
      <point x="477" y="609" type="line"/>
      <point x="442" y="432" type="line"/>
      <point x="438" y="432" type="line"/>
      <point x="423" y="497"/>
      <point x="365" y="528"/>
      <point x="303" y="528" type="curve" smooth="yes"/>
      <point x="167" y="528"/>
      <point x="87" y="406"/>
      <point x="61" y="280" type="curve" smooth="yes"/>
      <point x="54" y="248"/>
      <point x="51" y="216"/>
      <point x="51" y="185" type="curve" smooth="yes"/>
      <point x="51" y="63"/>
      <point x="114" y="-12"/>
      <point x="208" y="-12" type="curve" smooth="yes" name=""/>
      <point x="284" y="-12"/>
      <point x="333" y="26"/>
      <point x="375" y="112" type="curve"/>
      <point x="378" y="112" type="line"/>
      <point x="373" y="89" type="line" smooth="yes"/>
      <point x="371" y="79"/>
      <point x="370" y="70"/>
      <point x="370" y="62" type="curve" smooth="yes"/>
      <point x="370" y="25"/>
      <point x="392" y="0"/>
      <point x="437" y="0" type="curve" smooth="yes" name=""/>
    </contour>
    <contour>
      <point x="229" y="58" type="curve" smooth="yes" name=""/>
      <point x="160" y="58"/>
      <point x="130" y="108"/>
      <point x="130" y="175" type="curve" smooth="yes"/>
      <point x="130" y="192"/>
      <point x="132" y="209"/>
      <point x="135" y="226" type="curve" smooth="yes"/>
      <point x="150" y="301" type="line" smooth="yes"/>
      <point x="170" y="401"/>
      <point x="226" y="458"/>
      <point x="310" y="458" type="curve" smooth="yes"/>
      <point x="402" y="458"/>
      <point x="436" y="402"/>
      <point x="423" y="338" type="curve" smooth="yes"/>
      <point x="402" y="233" type="line" smooth="yes"/>
      <point x="392" y="181"/>
      <point x="370" y="142"/>
      <point x="337" y="109" type="curve" smooth="yes"/>
      <point x="307" y="79"/>
      <point x="274" y="58"/>
    </contour>
    <contour>
      <point x="213.0" y="0.0" type="move" name="bottom"/>
    </contour>
  </outline>
</glyph>
<glyph name="Eogonek" format="1">
  <advance width="565"/>
  <unicode hex="0118"/>
  <outline>
    <contour>
      <point x="39" y="0" type="line" name="hr00"/>
      <point x="405" y="0" type="line"/>
      <point x="406" y="-5" type="line"/>
      <point x="330" y="-39"/>
      <point x="281" y="-77"/>
      <point x="281" y="-132" type="curve" smooth="yes"/>
      <point x="281" y="-186"/>
      <point x="327" y="-207"/>
      <point x="377" y="-207" type="curve" smooth="yes"/>
      <point x="423" y="-207"/>
      <point x="456" y="-189"/>
      <point x="473" y="-170" type="curve"/>
      <point x="436" y="-126" type="line"/>
      <point x="418" y="-144"/>
      <point x="398" y="-153"/>
      <point x="382" y="-153" type="curve" smooth="yes"/>
      <point x="364" y="-153"/>
      <point x="349" y="-143"/>
      <point x="349" y="-122" type="curve" smooth="yes"/>
      <point x="349" y="-101"/>
      <point x="362" y="-70"/>
      <point x="467" y="0" type="curve"/>
      <point x="481" y="72" type="line"/>
      <point x="135" y="72" type="line"/>
      <point x="184" y="318" type="line"/>
      <point x="481" y="318" type="line"/>
      <point x="495" y="390" type="line"/>
      <point x="199" y="390" type="line"/>
      <point x="246" y="626" type="line"/>
      <point x="575" y="626" type="line"/>
      <point x="590" y="698" type="line"/>
      <point x="179" y="698" type="line"/>
    </contour>
  </outline>
</glyph>
<glyph name="eogonek" format="1">
  <advance width="511"/>
  <unicode hex="0119"/>
  <outline>
    <contour>
      <point x="232" y="-207" type="curve" smooth="yes" name=""/>
      <point x="278" y="-207"/>
      <point x="311" y="-189"/>
      <point x="328" y="-170" type="curve"/>
      <point x="291" y="-126" type="line"/>
      <point x="273" y="-144"/>
      <point x="253" y="-153"/>
      <point x="237" y="-153" type="curve" smooth="yes"/>
      <point x="219" y="-153"/>
      <point x="204" y="-143"/>
      <point x="204" y="-122" type="curve" smooth="yes"/>
      <point x="204" y="-78"/>
      <point x="258" y="-42"/>
      <point x="316" y="-7" type="curve" smooth="yes"/>
      <point x="365" y="23"/>
      <point x="416" y="40"/>
      <point x="457" y="94" type="curve"/>
      <point x="407" y="139" type="line"/>
      <point x="367" y="90"/>
      <point x="314" y="57"/>
      <point x="249" y="57" type="curve" smooth="yes"/>
      <point x="169" y="57"/>
      <point x="126" y="106"/>
      <point x="126" y="179" type="curve" smooth="yes"/>
      <point x="126" y="190"/>
      <point x="127" y="207"/>
      <point x="129" y="221" type="curve"/>
      <point x="369" y="223"/>
      <point x="485" y="277"/>
      <point x="485" y="390" type="curve" smooth="yes"/>
      <point x="485" y="483"/>
      <point x="407" y="528"/>
      <point x="319" y="528" type="curve" smooth="yes"/>
      <point x="183" y="528"/>
      <point x="85" y="420"/>
      <point x="57" y="284" type="curve" smooth="yes"/>
      <point x="52" y="258"/>
      <point x="49" y="231"/>
      <point x="49" y="204" type="curve" smooth="yes"/>
      <point x="49" y="62"/>
      <point x="124" y="-12"/>
      <point x="242" y="-12" type="curve" smooth="yes"/>
      <point x="243" y="-12"/>
      <point x="244" y="-12"/>
      <point x="245" y="-12" type="curve"/>
      <point x="245" y="-15" type="line"/>
      <point x="178" y="-45"/>
      <point x="136" y="-81"/>
      <point x="136" y="-132" type="curve" smooth="yes"/>
      <point x="136" y="-186"/>
      <point x="182" y="-207"/>
    </contour>
    <contour>
      <point x="311" y="462" type="curve" smooth="yes"/>
      <point x="360" y="462"/>
      <point x="406" y="446"/>
      <point x="406" y="391" type="curve" smooth="yes"/>
      <point x="406" y="320"/>
      <point x="360" y="289"/>
      <point x="139" y="281" type="curve"/>
      <point x="145" y="310" type="line" smooth="yes"/>
      <point x="164" y="402"/>
      <point x="230" y="462"/>
    </contour>
    <contour>
      <point x="321.0" y="540.0" type="move" name="top"/>
    </contour>
  </outline>
</glyph>
<glyph name="Hbar" format="1">
  <advance width="690"/>
  <unicode hex="0126"/>
  <outline>
    <contour>
      <point x="463" y="0" type="line" name="hr00"/>
      <point x="544" y="0" type="line"/>
      <point x="648" y="520" type="line"/>
      <point x="714" y="520" type="line"/>
      <point x="727" y="582" type="line"/>
      <point x="661" y="582" type="line"/>
      <point x="684" y="698" type="line"/>
      <point x="603" y="698" type="line"/>
      <point x="580" y="582" type="line"/>
      <point x="240" y="582" type="line"/>
      <point x="263" y="698" type="line"/>
      <point x="182" y="698" type="line"/>
      <point x="159" y="582" type="line"/>
      <point x="93" y="582" type="line"/>
      <point x="80" y="520" type="line"/>
      <point x="146" y="520" type="line"/>
      <point x="42" y="0" type="line"/>
      <point x="123" y="0" type="line"/>
      <point x="187" y="318" type="line"/>
      <point x="526" y="318" type="line"/>
    </contour>
    <contour>
      <point x="201" y="390" type="line"/>
      <point x="227" y="520" type="line"/>
      <point x="567" y="520" type="line"/>
      <point x="541" y="390" type="line"/>
    </contour>
  </outline>
</glyph>
<glyph name="kgreenlandic" format="1">
  <advance width="533"/>
  <unicode hex="0138"/>
  <outline>
    <contour>
      <point x="36" y="0" type="line" name=""/>
      <point x="113" y="0" type="line"/>
      <point x="143" y="154" type="line"/>
      <point x="247" y="247" type="line"/>
      <point x="331" y="54" type="line" smooth="yes"/>
      <point x="348" y="15"/>
      <point x="370" y="0"/>
      <point x="416" y="0" type="curve" smooth="yes"/>
      <point x="460" y="0" type="line"/>
      <point x="473" y="68" type="line"/>
      <point x="407" y="68" type="line"/>
      <point x="309" y="292" type="line"/>
      <point x="557" y="516" type="line"/>
      <point x="464" y="516" type="line"/>
      <point x="272" y="347" type="line"/>
      <point x="167" y="248" type="line"/>
      <point x="162" y="248" type="line"/>
      <point x="185" y="360" type="line"/>
      <point x="217" y="516" type="line"/>
      <point x="140" y="516" type="line"/>
    </contour>
    <contour>
      <point x="240.0" y="0.0" type="move" name="bottom"/>
    </contour>
    <contour>
      <point x="327.0" y="540.0" type="move" name="top"/>
    </contour>
  </outline>
</glyph>
<glyph name="Lslash" format="1">
  <advance width="498"/>
  <unicode hex="0141"/>
  <outline>
    <contour>
      <point x="427" y="72" type="line" name="hr00"/>
      <point x="139" y="72" type="line"/>
      <point x="183" y="296" type="line"/>
      <point x="370" y="355" type="line"/>
      <point x="384" y="429" type="line"/>
      <point x="198" y="368" type="line"/>
      <point x="264" y="698" type="line"/>
      <point x="183" y="698" type="line"/>
      <point x="111" y="340" type="line"/>
      <point x="5" y="306" type="line"/>
      <point x="-8" y="236" type="line"/>
      <point x="97" y="269" type="line"/>
      <point x="43" y="0" type="line"/>
      <point x="412" y="0" type="line"/>
    </contour>
  </outline>
</glyph>
<glyph name="lslash" format="1">
  <advance width="272"/>
  <unicode hex="0142"/>
  <outline>
    <contour>
      <point x="200" y="68" type="line" name="hr00"/>
      <point x="122" y="68" type="line"/>
      <point x="179" y="353" type="line"/>
      <point x="289" y="388" type="line"/>
      <point x="302" y="457" type="line"/>
      <point x="192" y="420" type="line"/>
      <point x="257" y="740" type="line"/>
      <point x="180" y="740" type="line"/>
      <point x="110" y="393" type="line"/>
      <point x="42" y="371" type="line"/>
      <point x="29" y="304" type="line"/>
      <point x="96" y="325" type="line"/>
      <point x="49" y="87" type="line" smooth="yes"/>
      <point x="47" y="77"/>
      <point x="46" y="70"/>
      <point x="46" y="63" type="curve" smooth="yes"/>
      <point x="46" y="26"/>
      <point x="69" y="0"/>
      <point x="116" y="0" type="curve" smooth="yes"/>
      <point x="187" y="0" type="line"/>
    </contour>
  </outline>
</glyph>
<glyph name="Eng" format="1">
  <advance width="684"/>
  <unicode hex="014A"/>
  <outline>
    <contour>
      <point x="118" y="0" type="line" name=""/>
      <point x="202" y="420" type="line"/>
      <point x="235" y="587" type="line"/>
      <point x="240" y="587" type="line"/>
      <point x="295" y="420" type="line"/>
      <point x="447" y="0" type="line"/>
      <point x="462" y="0" type="line"/>
      <point x="436" y="-130" type="line"/>
      <point x="354" y="-130" type="line"/>
      <point x="340" y="-200" type="line"/>
      <point x="407" y="-200" type="line" smooth="yes"/>
      <point x="477" y="-200"/>
      <point x="507" y="-168"/>
      <point x="521" y="-98" type="curve" smooth="yes"/>
      <point x="681" y="698" type="line"/>
      <point x="602" y="698" type="line"/>
      <point x="518" y="278" type="line"/>
      <point x="485" y="111" type="line"/>
      <point x="480" y="111" type="line"/>
      <point x="425" y="278" type="line"/>
      <point x="273" y="698" type="line"/>
      <point x="179" y="698" type="line"/>
      <point x="39" y="0" type="line"/>
    </contour>
    <contour>
      <point x="430.0" y="698.0" type="move" name="top"/>
    </contour>
  </outline>
</glyph>
<glyph name="OE" format="1">
  <advance width="939"/>
  <unicode hex="0152"/>
  <outline>
    <contour>
      <point x="840" y="0" type="line"/>
      <point x="854" y="72" type="line"/>
      <point x="508" y="72" type="line"/>
      <point x="558" y="318" type="line"/>
      <point x="854" y="318" type="line"/>
      <point x="868" y="390" type="line"/>
      <point x="572" y="390" type="line"/>
      <point x="619" y="626" type="line"/>
      <point x="948" y="626" type="line"/>
      <point x="963" y="698" type="line"/>
      <point x="552" y="698" type="line"/>
      <point x="514" y="706"/>
      <point x="452" y="710"/>
      <point x="420" y="710" type="curve" smooth="yes" name=""/>
      <point x="225" y="710"/>
      <point x="106" y="565"/>
      <point x="68" y="386" type="curve" smooth="yes"/>
      <point x="59" y="345"/>
      <point x="55" y="303"/>
      <point x="55" y="260" type="curve" smooth="yes"/>
      <point x="55" y="84"/>
      <point x="158" y="-12"/>
      <point x="299" y="-12" type="curve" smooth="yes"/>
      <point x="331" y="-12"/>
      <point x="372" y="-7"/>
      <point x="412" y="0" type="curve" name=""/>
    </contour>
    <contour>
      <point x="317" y="61" type="curve" smooth="yes" name=""/>
      <point x="192" y="61"/>
      <point x="135" y="130"/>
      <point x="135" y="236" type="curve" smooth="yes"/>
      <point x="135" y="256"/>
      <point x="137" y="280"/>
      <point x="142" y="306" type="curve" smooth="yes"/>
      <point x="162" y="405" type="line" smooth="yes"/>
      <point x="192" y="555"/>
      <point x="275" y="637"/>
      <point x="416" y="637" type="curve" smooth="yes"/>
      <point x="447" y="637"/>
      <point x="505" y="633"/>
      <point x="537" y="626" type="curve" name=""/>
      <point x="428" y="76" type="line"/>
      <point x="395" y="66"/>
      <point x="351" y="61"/>
    </contour>
    <contour>
      <point x="491.0" y="0.0" type="move" name="bottom"/>
    </contour>
    <contour>
      <point x="622.0" y="698.0" type="move" name="top"/>
    </contour>
  </outline>
</glyph>
<glyph name="oe" format="1">
  <advance width="871"/>
  <unicode hex="0153"/>
  <outline>
    <contour>
      <point x="245" y="57" type="curve" smooth="yes" name=""/>
      <point x="167" y="57"/>
      <point x="125" y="106"/>
      <point x="125" y="178" type="curve" smooth="yes"/>
      <point x="125" y="193"/>
      <point x="127" y="208"/>
      <point x="130" y="223" type="curve" smooth="yes"/>
      <point x="145" y="298" type="line" smooth="yes"/>
      <point x="166" y="403"/>
      <point x="231" y="459"/>
      <point x="305" y="459" type="curve" smooth="yes"/>
      <point x="383" y="459"/>
      <point x="425" y="410"/>
      <point x="425" y="338" type="curve" smooth="yes"/>
      <point x="425" y="323"/>
      <point x="423" y="308"/>
      <point x="420" y="293" type="curve" smooth="yes"/>
      <point x="405" y="218" type="line" smooth="yes"/>
      <point x="384" y="113"/>
      <point x="319" y="57"/>
    </contour>
    <contour>
      <point x="671" y="462" type="curve" smooth="yes"/>
      <point x="720" y="462"/>
      <point x="766" y="446"/>
      <point x="766" y="391" type="curve" smooth="yes"/>
      <point x="766" y="320"/>
      <point x="720" y="289"/>
      <point x="499" y="281" type="curve"/>
      <point x="505" y="310" type="line" smooth="yes"/>
      <point x="524" y="402"/>
      <point x="590" y="462"/>
    </contour>
    <contour>
      <point x="604" y="-12" type="curve" smooth="yes"/>
      <point x="678" y="-12"/>
      <point x="753" y="16"/>
      <point x="817" y="94" type="curve"/>
      <point x="767" y="139" type="line"/>
      <point x="730" y="93"/>
      <point x="675" y="57"/>
      <point x="611" y="57" type="curve" smooth="yes"/>
      <point x="529" y="57"/>
      <point x="486" y="106"/>
      <point x="486" y="176" type="curve" smooth="yes"/>
      <point x="486" y="191"/>
      <point x="487" y="207"/>
      <point x="489" y="221" type="curve"/>
      <point x="742" y="224"/>
      <point x="845" y="278"/>
      <point x="845" y="398" type="curve" smooth="yes"/>
      <point x="845" y="473"/>
      <point x="774" y="528"/>
      <point x="679" y="528" type="curve" smooth="yes"/>
      <point x="594" y="528"/>
      <point x="529" y="485"/>
      <point x="482" y="417" type="curve"/>
      <point x="477" y="417" type="line"/>
      <point x="450" y="492"/>
      <point x="390" y="528"/>
      <point x="315" y="528" type="curve" smooth="yes"/>
      <point x="182" y="528"/>
      <point x="85" y="419"/>
      <point x="57" y="281" type="curve" smooth="yes"/>
      <point x="52" y="255"/>
      <point x="49" y="228"/>
      <point x="49" y="200" type="curve" smooth="yes"/>
      <point x="49" y="60"/>
      <point x="127" y="-12"/>
      <point x="235" y="-12" type="curve" smooth="yes"/>
      <point x="321" y="-12"/>
      <point x="379" y="31"/>
      <point x="424" y="99" type="curve"/>
      <point x="429" y="99" type="line"/>
      <point x="457" y="24"/>
      <point x="519" y="-12"/>
    </contour>
    <contour>
      <point x="415.0" y="0.0" type="move" name="bottom"/>
    </contour>
    <contour>
      <point x="502.0" y="540.0" type="move" name="top"/>
    </contour>
  </outline>
</glyph>
<glyph name="tcedilla" format="1">
  <advance width="320"/>
  <unicode hex="0163"/>
  <outline>
    <contour>
      <point x="132" y="-207" type="curve" smooth="yes" name=""/>
      <point x="196" y="-207"/>
      <point x="240" y="-171"/>
      <point x="240" y="-116" type="curve" smooth="yes"/>
      <point x="240" y="-74"/>
      <point x="214" y="-60"/>
      <point x="181" y="-60" type="curve" smooth="yes"/>
      <point x="166" y="-60"/>
      <point x="157" y="-63"/>
      <point x="150" y="-64" type="curve"/>
      <point x="148" y="-62" type="line"/>
      <point x="167" y="0" type="line"/>
      <point x="230" y="0" type="line"/>
      <point x="243" y="68" type="line"/>
      <point x="142" y="68" type="line"/>
      <point x="219" y="448" type="line"/>
      <point x="328" y="448" type="line"/>
      <point x="341" y="516" type="line"/>
      <point x="232" y="516" type="line"/>
      <point x="260" y="659" type="line"/>
      <point x="189" y="659" type="line"/>
      <point x="170" y="565" type="line" smooth="yes"/>
      <point x="163" y="529"/>
      <point x="155" y="516"/>
      <point x="118" y="516" type="curve" smooth="yes"/>
      <point x="79" y="516" type="line"/>
      <point x="66" y="448" type="line"/>
      <point x="142" y="448" type="line"/>
      <point x="69" y="87" type="line" smooth="yes"/>
      <point x="67" y="77"/>
      <point x="66" y="70"/>
      <point x="66" y="63" type="curve" smooth="yes"/>
      <point x="66" y="26"/>
      <point x="86" y="0"/>
      <point x="137" y="0" type="curve" smooth="yes"/>
      <point x="145" y="0" type="line" name=""/>
      <point x="127" y="32" type="line"/>
      <point x="95" y="-76" type="line"/>
      <point x="121" y="-79" type="line" smooth="yes"/>
      <point x="163" y="-84"/>
      <point x="176" y="-97"/>
      <point x="176" y="-118" type="curve" smooth="yes"/>
      <point x="176" y="-139"/>
      <point x="159" y="-154"/>
      <point x="130" y="-154" type="curve" smooth="yes"/>
      <point x="101" y="-154"/>
      <point x="80" y="-142"/>
      <point x="71" y="-129" type="curve"/>
      <point x="31" y="-170" type="line"/>
      <point x="46" y="-190"/>
      <point x="82" y="-207"/>
    </contour>
  </outline>
</glyph>
<glyph name="Tbar" format="1">
  <advance width="557"/>
  <unicode hex="0166"/>
  <outline>
    <contour>
      <point x="492" y="335" type="line" name="hr00"/>
      <point x="505" y="401" type="line"/>
      <point x="347" y="401" type="line"/>
      <point x="392" y="626" type="line"/>
      <point x="605" y="626" type="line"/>
      <point x="619" y="698" type="line"/>
      <point x="112" y="698" type="line"/>
      <point x="98" y="626" type="line"/>
      <point x="311" y="626" type="line"/>
      <point x="266" y="401" type="line"/>
      <point x="107" y="401" type="line"/>
      <point x="94" y="335" type="line"/>
      <point x="253" y="335" type="line"/>
      <point x="186" y="0" type="line"/>
      <point x="267" y="0" type="line"/>
      <point x="334" y="335" type="line"/>
    </contour>
  </outline>
</glyph>
<glyph name="tbar" format="1">
  <advance width="326"/>
  <unicode hex="0167"/>
  <outline>
    <contour>
      <point x="246" y="68" type="line" name=""/>
      <point x="145" y="68" type="line"/>
      <point x="182" y="253" type="line"/>
      <point x="271" y="253" type="line"/>
      <point x="282" y="307" type="line"/>
      <point x="193" y="307" type="line"/>
      <point x="222" y="448" type="line"/>
      <point x="331" y="448" type="line"/>
      <point x="344" y="516" type="line"/>
      <point x="235" y="516" type="line"/>
      <point x="263" y="659" type="line"/>
      <point x="192" y="659" type="line"/>
      <point x="173" y="565" type="line" smooth="yes"/>
      <point x="166" y="529"/>
      <point x="158" y="516"/>
      <point x="121" y="516" type="curve" smooth="yes"/>
      <point x="82" y="516" type="line"/>
      <point x="69" y="448" type="line"/>
      <point x="145" y="448" type="line"/>
      <point x="116" y="307" type="line"/>
      <point x="70" y="307" type="line"/>
      <point x="59" y="253" type="line"/>
      <point x="105" y="253" type="line"/>
      <point x="72" y="87" type="line" smooth="yes"/>
      <point x="70" y="77"/>
      <point x="69" y="70"/>
      <point x="69" y="63" type="curve" smooth="yes"/>
      <point x="69" y="26"/>
      <point x="89" y="0"/>
      <point x="140" y="0" type="curve" smooth="yes"/>
      <point x="233" y="0" type="line"/>
    </contour>
    <contour>
      <point x="146.0" y="0.0" type="move" name="bottom"/>
    </contour>
  </outline>
</glyph>
<glyph name="Uogonek" format="1">
  <advance width="656"/>
  <unicode hex="0172"/>
  <outline>
    <contour>
      <point x="174" y="698" type="line" name=""/>
      <point x="93" y="294" type="line" smooth="yes"/>
      <point x="85" y="254"/>
      <point x="82" y="220"/>
      <point x="82" y="189" type="curve" smooth="yes"/>
      <point x="82" y="63"/>
      <point x="151" y="-11"/>
      <point x="289" y="-12" type="curve" smooth="yes"/>
      <point x="290" y="-12"/>
      <point x="291" y="-12"/>
      <point x="292" y="-12" type="curve"/>
      <point x="293" y="-16" type="line"/>
      <point x="224" y="-43"/>
      <point x="183" y="-82"/>
      <point x="183" y="-132" type="curve" smooth="yes"/>
      <point x="183" y="-186"/>
      <point x="229" y="-207"/>
      <point x="279" y="-207" type="curve" smooth="yes"/>
      <point x="325" y="-207"/>
      <point x="358" y="-189"/>
      <point x="375" y="-170" type="curve"/>
      <point x="338" y="-126" type="line"/>
      <point x="320" y="-144"/>
      <point x="300" y="-153"/>
      <point x="284" y="-153" type="curve" smooth="yes"/>
      <point x="266" y="-153"/>
      <point x="251" y="-143"/>
      <point x="251" y="-122" type="curve" smooth="yes"/>
      <point x="251" y="-101"/>
      <point x="268" y="-61"/>
      <point x="361" y="-11" type="curve" smooth="yes"/>
      <point x="444" y="34"/>
      <point x="527" y="49"/>
      <point x="573" y="278" type="curve" smooth="yes"/>
      <point x="657" y="698" type="line"/>
      <point x="576" y="698" type="line"/>
      <point x="493" y="284" type="line" smooth="yes"/>
      <point x="461" y="122"/>
      <point x="401" y="61"/>
      <point x="289" y="61" type="curve" smooth="yes"/>
      <point x="210" y="61"/>
      <point x="161" y="112"/>
      <point x="161" y="197" type="curve" smooth="yes"/>
      <point x="161" y="219"/>
      <point x="163" y="239"/>
      <point x="169" y="269" type="curve" smooth="yes"/>
      <point x="255" y="698" type="line"/>
    </contour>
    <contour>
      <point x="408.0" y="698.0" type="move" name="top"/>
    </contour>
  </outline>
</glyph>
<glyph name="uogonek" format="1">
  <advance width="562"/>
  <unicode hex="0173"/>
  <outline>
    <contour>
      <point x="134" y="516" type="line"/>
      <point x="70" y="198" type="line" smooth="yes"/>
      <point x="65" y="173"/>
      <point x="63" y="150"/>
      <point x="63" y="131" type="curve" smooth="yes"/>
      <point x="63" y="42"/>
      <point x="107" y="-12"/>
      <point x="195" y="-12" type="curve" smooth="yes"/>
      <point x="266" y="-12"/>
      <point x="314" y="24"/>
      <point x="350" y="102" type="curve"/>
      <point x="355" y="102" type="line"/>
      <point x="353" y="92" type="line" smooth="yes"/>
      <point x="350" y="78"/>
      <point x="349" y="70"/>
      <point x="349" y="63" type="curve" smooth="yes"/>
      <point x="349" y="24"/>
      <point x="372" y="0"/>
      <point x="422" y="0" type="curve" smooth="yes"/>
      <point x="424" y="0" type="line" name=""/>
      <point x="424" y="-5" type="line"/>
      <point x="348" y="-39"/>
      <point x="299" y="-77"/>
      <point x="299" y="-132" type="curve" smooth="yes"/>
      <point x="299" y="-186"/>
      <point x="345" y="-207"/>
      <point x="395" y="-207" type="curve" smooth="yes"/>
      <point x="441" y="-207"/>
      <point x="474" y="-189"/>
      <point x="491" y="-170" type="curve"/>
      <point x="454" y="-126" type="line"/>
      <point x="436" y="-144"/>
      <point x="416" y="-153"/>
      <point x="400" y="-153" type="curve" smooth="yes"/>
      <point x="382" y="-153"/>
      <point x="367" y="-143"/>
      <point x="367" y="-122" type="curve" smooth="yes"/>
      <point x="367" y="-101"/>
      <point x="380" y="-70"/>
      <point x="485" y="0" type="curve"/>
      <point x="498" y="68" type="line"/>
      <point x="425" y="68" type="line"/>
      <point x="515" y="516" type="line"/>
      <point x="438" y="516" type="line"/>
      <point x="380" y="228" type="line" smooth="yes"/>
      <point x="372" y="189"/>
      <point x="349" y="137"/>
      <point x="312" y="99" type="curve" smooth="yes"/>
      <point x="285" y="71"/>
      <point x="255" y="58"/>
      <point x="219" y="58" type="curve" smooth="yes" name=""/>
      <point x="164" y="58"/>
      <point x="142" y="88"/>
      <point x="142" y="145" type="curve" smooth="yes"/>
      <point x="142" y="157"/>
      <point x="143" y="178"/>
      <point x="147" y="198" type="curve" smooth="yes"/>
      <point x="211" y="516" type="line"/>
    </contour>
    <contour>
      <point x="327.0" y="540.0" type="move" name="top"/>
    </contour>
  </outline>
</glyph>
<glyph name="Schwa" format="1">
  <advance width="679"/>
  <unicode hex="018F"/>
  <outline>
    <contour>
      <point x="295" y="-12" type="curve" smooth="yes" name=""/>
      <point x="487" y="-12"/>
      <point x="606" y="142"/>
      <point x="641" y="323" type="curve" smooth="yes"/>
      <point x="648" y="361"/>
      <point x="652" y="399"/>
      <point x="652" y="438" type="curve" smooth="yes"/>
      <point x="652" y="598"/>
      <point x="564" y="710"/>
      <point x="405" y="710" type="curve" smooth="yes"/>
      <point x="279" y="710"/>
      <point x="173" y="641"/>
      <point x="120" y="532" type="curve"/>
      <point x="181" y="498" type="line"/>
      <point x="241" y="607"/>
      <point x="322" y="637"/>
      <point x="398" y="637" type="curve" smooth="yes"/>
      <point x="509" y="637"/>
      <point x="570" y="565"/>
      <point x="570" y="459" type="curve" smooth="yes"/>
      <point x="570" y="439"/>
      <point x="569" y="410"/>
      <point x="560" y="371" type="curve"/>
      <point x="69" y="371" type="line"/>
      <point x="59" y="318"/>
      <point x="55" y="284"/>
      <point x="55" y="255" type="curve" smooth="yes"/>
      <point x="55" y="92"/>
      <point x="154" y="-12"/>
    </contour>
    <contour>
      <point x="301" y="61" type="curve" smooth="yes"/>
      <point x="195" y="61"/>
      <point x="136" y="130"/>
      <point x="136" y="235" type="curve" smooth="yes"/>
      <point x="136" y="255"/>
      <point x="139" y="284"/>
      <point x="143" y="303" type="curve"/>
      <point x="545" y="303" type="line"/>
      <point x="514" y="149"/>
      <point x="430" y="61"/>
    </contour>
    <contour>
      <point x="291.0" y="0.0" type="move" name="bottom"/>
    </contour>
    <contour>
      <point x="398.0" y="698.0" type="move" name="top"/>
    </contour>
  </outline>
</glyph>
<glyph name="Ohorn" format="1">
  <advance width="679"/>
  <unicode hex="01A0"/>
  <outline>
    <contour>
      <point x="298" y="-12" type="curve" smooth="yes"/>
      <point x="479" y="-12"/>
      <point x="601" y="134"/>
      <point x="639" y="314" type="curve" smooth="yes"/>
      <point x="648" y="354"/>
      <point x="652" y="396"/>
      <point x="652" y="438" type="curve" smooth="yes"/>
      <point x="652" y="528"/>
      <point x="624" y="597"/>
      <point x="577" y="644" type="curve"/>
      <point x="577" y="646" type="line"/>
      <point x="643" y="646" type="line" smooth="yes"/>
      <point x="691" y="646"/>
      <point x="704" y="673"/>
      <point x="712" y="709" type="curve" smooth="yes"/>
      <point x="733" y="810" type="line"/>
      <point x="664" y="810" type="line"/>
      <point x="642" y="698" type="line"/>
      <point x="490" y="698" type="line"/>
      <point x="465" y="706"/>
      <point x="438" y="710"/>
      <point x="409" y="710" type="curve" smooth="yes" name=""/>
      <point x="228" y="710"/>
      <point x="106" y="564"/>
      <point x="68" y="384" type="curve" smooth="yes"/>
      <point x="59" y="344"/>
      <point x="55" y="302"/>
      <point x="55" y="260" type="curve" smooth="yes"/>
      <point x="55" y="84"/>
      <point x="159" y="-12"/>
    </contour>
    <contour>
      <point x="306" y="61" type="curve" smooth="yes"/>
      <point x="198" y="61"/>
      <point x="135" y="130"/>
      <point x="135" y="236" type="curve" smooth="yes"/>
      <point x="135" y="256"/>
      <point x="137" y="280"/>
      <point x="142" y="305" type="curve" smooth="yes"/>
      <point x="162" y="405" type="line" smooth="yes"/>
      <point x="191" y="550"/>
      <point x="278" y="637"/>
      <point x="401" y="637" type="curve" smooth="yes"/>
      <point x="509" y="637"/>
      <point x="572" y="568"/>
      <point x="572" y="462" type="curve" smooth="yes"/>
      <point x="572" y="442"/>
      <point x="570" y="418"/>
      <point x="565" y="393" type="curve" smooth="yes"/>
      <point x="545" y="293" type="line" smooth="yes"/>
      <point x="516" y="148"/>
      <point x="429" y="61"/>
    </contour>
    <contour>
      <point x="289.0" y="0.0" type="move" name="bottom"/>
    </contour>
    <contour>
      <point x="405.0" y="698.0" type="move" name="top"/>
    </contour>
  </outline>
</glyph>
<glyph name="ohorn" format="1">
  <advance width="550"/>
  <unicode hex="01A1"/>
  <outline>
    <contour>
      <point x="235" y="-12" type="curve" smooth="yes" name=""/>
      <point x="368" y="-12"/>
      <point x="465" y="97"/>
      <point x="493" y="235" type="curve" smooth="yes"/>
      <point x="498" y="261"/>
      <point x="501" y="288"/>
      <point x="501" y="316" type="curve" smooth="yes"/>
      <point x="501" y="375"/>
      <point x="486" y="429"/>
      <point x="458" y="463" type="curve"/>
      <point x="458" y="465" type="line"/>
      <point x="480" y="465" type="line" smooth="yes"/>
      <point x="528" y="465"/>
      <point x="543" y="490"/>
      <point x="550" y="527" type="curve" smooth="yes"/>
      <point x="570" y="628" type="line"/>
      <point x="502" y="628" type="line"/>
      <point x="480" y="516" type="line"/>
      <point x="385" y="516" type="line"/>
      <point x="364" y="524"/>
      <point x="340" y="528"/>
      <point x="315" y="528" type="curve" smooth="yes" name=""/>
      <point x="182" y="528"/>
      <point x="85" y="419"/>
      <point x="57" y="281" type="curve" smooth="yes"/>
      <point x="52" y="255"/>
      <point x="49" y="228"/>
      <point x="49" y="200" type="curve" smooth="yes"/>
      <point x="49" y="60"/>
      <point x="127" y="-12"/>
    </contour>
    <contour>
      <point x="245" y="57" type="curve" smooth="yes"/>
      <point x="167" y="57"/>
      <point x="125" y="106"/>
      <point x="125" y="178" type="curve" smooth="yes"/>
      <point x="125" y="193"/>
      <point x="127" y="208"/>
      <point x="130" y="223" type="curve" smooth="yes"/>
      <point x="145" y="298" type="line" smooth="yes"/>
      <point x="166" y="403"/>
      <point x="231" y="459"/>
      <point x="305" y="459" type="curve" smooth="yes"/>
      <point x="383" y="459"/>
      <point x="425" y="410"/>
      <point x="425" y="338" type="curve" smooth="yes"/>
      <point x="425" y="323"/>
      <point x="423" y="308"/>
      <point x="420" y="293" type="curve" smooth="yes"/>
      <point x="405" y="218" type="line" smooth="yes"/>
      <point x="384" y="113"/>
      <point x="319" y="57"/>
    </contour>
    <contour>
      <point x="233.0" y="0.0" type="move" name="bottom"/>
    </contour>
    <contour>
      <point x="318.0" y="540.0" type="move" name="top"/>
    </contour>
  </outline>
</glyph>
<glyph name="dotlessj" format="1">
  <advance width="253"/>
  <unicode hex="0237"/>
  <outline>
    <contour>
      <point x="-87" y="-200" type="line" name="hr00"/>
      <point x="-20" y="-200" type="line" smooth="yes"/>
      <point x="50" y="-200"/>
      <point x="80" y="-168"/>
      <point x="94" y="-98" type="curve" smooth="yes"/>
      <point x="217" y="516" type="line"/>
      <point x="140" y="516" type="line"/>
      <point x="10" y="-132" type="line"/>
      <point x="-73" y="-132" type="line"/>
    </contour>
    <contour>
      <point x="184" y="540" type="move" name="top"/>
    </contour>
  </outline>
</glyph>
<glyph name="schwa" format="1">
  <advance width="511"/>
  <unicode hex="0259"/>
  <outline>
    <contour>
      <point x="192" y="-12" type="curve" smooth="yes"/>
      <point x="328" y="-12"/>
      <point x="426" y="96"/>
      <point x="454" y="232" type="curve" smooth="yes"/>
      <point x="459" y="258"/>
      <point x="462" y="285"/>
      <point x="462" y="312" type="curve" smooth="yes"/>
      <point x="462" y="452"/>
      <point x="390" y="528"/>
      <point x="267" y="528" type="curve" smooth="yes" name=""/>
      <point x="193" y="528"/>
      <point x="118" y="500"/>
      <point x="54" y="422" type="curve"/>
      <point x="104" y="377" type="line"/>
      <point x="144" y="426"/>
      <point x="197" y="459"/>
      <point x="262" y="459" type="curve" smooth="yes"/>
      <point x="342" y="459"/>
      <point x="385" y="410"/>
      <point x="385" y="337" type="curve" smooth="yes"/>
      <point x="385" y="326"/>
      <point x="384" y="309"/>
      <point x="382" y="295" type="curve"/>
      <point x="142" y="293"/>
      <point x="26" y="239"/>
      <point x="26" y="126" type="curve" smooth="yes"/>
      <point x="26" y="33"/>
      <point x="104" y="-12"/>
    </contour>
    <contour>
      <point x="200" y="54" type="curve" smooth="yes"/>
      <point x="151" y="54"/>
      <point x="105" y="70"/>
      <point x="105" y="125" type="curve" smooth="yes"/>
      <point x="105" y="196"/>
      <point x="151" y="227"/>
      <point x="372" y="235" type="curve"/>
      <point x="366" y="206" type="line" smooth="yes"/>
      <point x="347" y="114"/>
      <point x="281" y="54"/>
    </contour>
    <contour>
      <point x="197.0" y="0.0" type="move" name="bottom"/>
    </contour>
    <contour>
      <point x="270.0" y="540.0" type="move" name="top"/>
    </contour>
  </outline>
</glyph>
<glyph name="caronslovak" format="1">
  <advance width="593"/>
  <unicode hex="02BC"/>
  <outline>
    <contour>
      <point x="387" y="740" type="line" name="hr00"/>
      <point x="294" y="740" type="line"/>
      <point x="259" y="555" type="line"/>
      <point x="312" y="555" type="line"/>
    </contour>
    <contour>
      <point x="290" y="740" type="move" name="_topright"/>
    </contour>
  </outline>
</glyph>
<glyph name="circumflex" format="1">
  <advance width="593"/>
  <unicode hex="02C6"/>
  <outline>
    <contour>
      <point x="284" y="765" type="line" name="hr00"/>
      <point x="146" y="622" type="line"/>
      <point x="185" y="590" type="line"/>
      <point x="324" y="706" type="line"/>
      <point x="417" y="591" type="line"/>
      <point x="460" y="622" type="line"/>
      <point x="378" y="765" type="line"/>
    </contour>
    <contour>
      <point x="290" y="540" type="move" name="_top"/>
    </contour>
  </outline>
</glyph>
<glyph name="caron" format="1">
  <advance width="593"/>
  <unicode hex="02C7"/>
  <outline>
    <contour>
      <point x="354" y="599" type="line" name="hr00"/>
      <point x="492" y="742" type="line"/>
      <point x="451" y="774" type="line"/>
      <point x="311" y="657" type="line"/>
      <point x="221" y="773" type="line"/>
      <point x="177" y="742" type="line"/>
      <point x="259" y="599" type="line"/>
    </contour>
    <contour>
      <point x="290" y="540" type="move" name="_top"/>
    </contour>
  </outline>
</glyph>
<glyph name="dotaccent" format="1">
  <advance width="593"/>
  <unicode hex="02D9"/>
  <outline>
    <contour>
      <point x="310" y="616" type="curve" smooth="yes" name="hr00"/>
      <point x="343" y="616"/>
      <point x="360" y="633"/>
      <point x="366" y="663" type="curve" smooth="yes"/>
      <point x="368" y="674"/>
      <point x="369" y="679"/>
      <point x="369" y="684" type="curve" smooth="yes"/>
      <point x="369" y="707"/>
      <point x="353" y="719"/>
      <point x="327" y="719" type="curve" smooth="yes"/>
      <point x="294" y="719"/>
      <point x="277" y="702"/>
      <point x="271" y="672" type="curve" smooth="yes"/>
      <point x="269" y="661"/>
      <point x="268" y="656"/>
      <point x="268" y="651" type="curve" smooth="yes"/>
      <point x="268" y="628"/>
      <point x="284" y="616"/>
    </contour>
    <contour>
      <point x="290" y="540" type="move" name="_top"/>
    </contour>
  </outline>
</glyph>
<glyph name="ring" format="1">
  <advance width="593"/>
  <unicode hex="02DA"/>
  <outline>
    <contour>
      <point x="306" y="576" type="curve" smooth="yes" name="hr00"/>
      <point x="384" y="576"/>
      <point x="435" y="627"/>
      <point x="435" y="706" type="curve" smooth="yes"/>
      <point x="435" y="763"/>
      <point x="395" y="806"/>
      <point x="335" y="806" type="curve" smooth="yes"/>
      <point x="257" y="806"/>
      <point x="206" y="755"/>
      <point x="206" y="676" type="curve" smooth="yes"/>
      <point x="206" y="619"/>
      <point x="246" y="576"/>
    </contour>
    <contour>
      <point x="312" y="624" type="curve" smooth="yes"/>
      <point x="280" y="624"/>
      <point x="262" y="641"/>
      <point x="262" y="671" type="curve" smooth="yes"/>
      <point x="262" y="678"/>
      <point x="263" y="688"/>
      <point x="266" y="702" type="curve" smooth="yes"/>
      <point x="273" y="738"/>
      <point x="294" y="758"/>
      <point x="329" y="758" type="curve" smooth="yes"/>
      <point x="361" y="758"/>
      <point x="379" y="741"/>
      <point x="379" y="711" type="curve" smooth="yes"/>
      <point x="379" y="704"/>
      <point x="378" y="694"/>
      <point x="375" y="680" type="curve" smooth="yes"/>
      <point x="368" y="644"/>
      <point x="347" y="624"/>
    </contour>
    <contour>
      <point x="290" y="540" type="move" name="_top"/>
    </contour>
  </outline>
</glyph>
<glyph name="hungarumlaut" format="1">
  <advance width="593"/>
  <unicode hex="02DD"/>
  <outline>
    <contour>
      <point x="359" y="745" type="line" name="hr00"/>
      <point x="296" y="779" type="line"/>
      <point x="191" y="608" type="line"/>
      <point x="236" y="586" type="line"/>
    </contour>
    <contour>
      <point x="516" y="745" type="line"/>
      <point x="452" y="779" type="line"/>
      <point x="348" y="608" type="line"/>
      <point x="393" y="586" type="line"/>
    </contour>
    <contour>
      <point x="290" y="540" type="move" name="_top"/>
    </contour>
  </outline>
</glyph>
<glyph name="hookcomb" format="1">
  <advance width="0"/>
  <unicode hex="0309"/>
  <outline>
    <contour>
      <point x="-57" y="706" type="line" name="hr00"/>
      <point x="59" y="706" type="line"/>
      <point x="-10" y="600" type="line"/>
      <point x="31" y="577" type="line"/>
      <point x="59" y="609" type="line" smooth="yes"/>
      <point x="94" y="649"/>
      <point x="120" y="683"/>
      <point x="120" y="716" type="curve" smooth="yes"/>
      <point x="120" y="739"/>
      <point x="107" y="765"/>
      <point x="58" y="765" type="curve" smooth="yes"/>
      <point x="-49" y="765" type="line"/>
    </contour>
    <contour>
      <point x="0" y="540" type="move" name="_top"/>
    </contour>
  </outline>
</glyph>
<glyph name="horncomb" format="1">
  <advance width="0"/>
  <unicode hex="031B"/>
  <outline>
    <contour>
      <point x="91" y="628" type="line" name="hr00"/>
      <point x="23" y="628" type="line"/>
      <point x="1" y="516" type="line"/>
      <point x="-81" y="516" type="line"/>
      <point x="-91" y="464" type="line"/>
      <point x="2" y="464" type="line" smooth="yes"/>
      <point x="49" y="464"/>
      <point x="64" y="491"/>
      <point x="71" y="527" type="curve" smooth="yes"/>
    </contour>
  </outline>
</glyph>
<glyph name="pi" format="1">
  <advance width="625"/>
  <unicode hex="03C0"/>
  <outline>
    <contour>
      <point x="534" y="0" type="line" name="hr00"/>
      <point x="547" y="68" type="line"/>
      <point x="460" y="68" type="line"/>
      <point x="536" y="448" type="line"/>
      <point x="623" y="448" type="line"/>
      <point x="637" y="516" type="line"/>
      <point x="88" y="516" type="line"/>
      <point x="74" y="448" type="line"/>
      <point x="161" y="448" type="line"/>
      <point x="71" y="0" type="line"/>
      <point x="148" y="0" type="line"/>
      <point x="238" y="448" type="line"/>
      <point x="459" y="448" type="line"/>
      <point x="389" y="98" type="line" smooth="yes"/>
      <point x="387" y="88"/>
      <point x="385" y="76"/>
      <point x="385" y="64" type="curve" smooth="yes"/>
      <point x="385" y="27"/>
      <point x="404" y="0"/>
      <point x="455" y="0" type="curve" smooth="yes"/>
    </contour>
  </outline>
</glyph>
<glyph name="baht" format="1">
  <advance width="614"/>
  <unicode hex="0E3F"/>
  <outline>
    <contour>
      <point x="288" y="20" type="line"/>
      <point x="330" y="20" type="line" smooth="yes"/>
      <point x="474" y="20"/>
      <point x="555" y="135"/>
      <point x="555" y="234" type="curve" smooth="yes"/>
      <point x="555" y="307"/>
      <point x="518" y="348"/>
      <point x="462" y="365" type="curve"/>
      <point x="463" y="369" type="line"/>
      <point x="543" y="392"/>
      <point x="594" y="453"/>
      <point x="594" y="536" type="curve" smooth="yes" name=""/>
      <point x="594" y="623"/>
      <point x="536" y="677"/>
      <point x="425" y="677" type="curve" smooth="yes"/>
      <point x="419" y="677" type="line"/>
      <point x="440" y="780" type="line"/>
      <point x="380" y="780" type="line"/>
      <point x="359" y="677" type="line"/>
      <point x="175" y="677" type="line"/>
      <point x="43" y="20" type="line"/>
      <point x="228" y="20" type="line"/>
      <point x="207" y="-82" type="line"/>
      <point x="267" y="-82" type="line"/>
    </contour>
    <contour>
      <point x="198" y="393" type="line"/>
      <point x="240" y="605" type="line"/>
      <point x="345" y="605" type="line"/>
      <point x="303" y="393" type="line"/>
    </contour>
    <contour>
      <point x="414" y="605" type="line" smooth="yes"/>
      <point x="472" y="605"/>
      <point x="507" y="583"/>
      <point x="507" y="534" type="curve" smooth="yes"/>
      <point x="507" y="518"/>
      <point x="502" y="499"/>
      <point x="498" y="479" type="curve" smooth="yes"/>
      <point x="486" y="418"/>
      <point x="431" y="393"/>
      <point x="368" y="393" type="curve" smooth="yes"/>
      <point x="362" y="393" type="line"/>
      <point x="404" y="605" type="line"/>
    </contour>
    <contour>
      <point x="138" y="92" type="line"/>
      <point x="184" y="324" type="line"/>
      <point x="289" y="324" type="line"/>
      <point x="242" y="92" type="line"/>
    </contour>
    <contour>
      <point x="368" y="324" type="line" smooth="yes"/>
      <point x="434" y="324"/>
      <point x="471" y="302"/>
      <point x="471" y="252" type="curve" smooth="yes" name=""/>
      <point x="471" y="234"/>
      <point x="467" y="216"/>
      <point x="462" y="191" type="curve" smooth="yes"/>
      <point x="448" y="122"/>
      <point x="400" y="92"/>
      <point x="330" y="92" type="curve" smooth="yes"/>
      <point x="301" y="92" type="line"/>
      <point x="348" y="324" type="line"/>
    </contour>
  </outline>
</glyph>
<glyph name="Germandbls" format="1">
  <advance width="700"/>
  <unicode hex="1E9E"/>
  <outline>
    <contour>
      <point x="393" y="59" type="curve" smooth="yes" name=""/>
      <point x="335" y="59"/>
      <point x="285" y="82"/>
      <point x="253" y="138" type="curve"/>
      <point x="191" y="93" type="line"/>
      <point x="228" y="20"/>
      <point x="303" y="-12"/>
      <point x="388" y="-12" type="curve" smooth="yes"/>
      <point x="516" y="-12"/>
      <point x="605" y="82"/>
      <point x="627" y="194" type="curve" smooth="yes"/>
      <point x="630" y="211"/>
      <point x="632" y="228"/>
      <point x="632" y="246" type="curve" smooth="yes"/>
      <point x="632" y="346"/>
      <point x="564" y="399"/>
      <point x="445" y="401" type="curve"/>
      <point x="446" y="405" type="line"/>
      <point x="669" y="616" type="line"/>
      <point x="685" y="698" type="line"/>
      <point x="179" y="698" type="line"/>
      <point x="39" y="0" type="line"/>
      <point x="120" y="0" type="line"/>
      <point x="245" y="626" type="line"/>
      <point x="586" y="626" type="line"/>
      <point x="357" y="409" type="line"/>
      <point x="342" y="337" type="line"/>
      <point x="430" y="337" type="line" smooth="yes"/>
      <point x="504" y="337"/>
      <point x="547" y="303"/>
      <point x="547" y="246" type="curve" smooth="yes"/>
      <point x="547" y="236"/>
      <point x="545" y="222"/>
      <point x="536" y="180" type="curve" smooth="yes"/>
      <point x="520" y="106"/>
      <point x="473" y="59"/>
    </contour>
  </outline>
</glyph>
<glyph name="endash" format="1">
  <advance width="565"/>
  <unicode hex="2013"/>
  <outline>
    <contour>
      <point x="532" y="268" type="line" name="hr00"/>
      <point x="546" y="340" type="line"/>
      <point x="51" y="340" type="line"/>
      <point x="37" y="268" type="line"/>
    </contour>
  </outline>
</glyph>
<glyph name="horizontalbar" format="1">
  <advance width="1000"/>
  <unicode hex="2015"/>
  <outline>
    <contour>
      <point x="1002" y="268" type="line" name=""/>
      <point x="1016" y="340" type="line"/>
      <point x="16" y="340" type="line"/>
      <point x="2" y="268" type="line"/>
    </contour>
  </outline>
</glyph>
<glyph name="quoteleft" format="1">
  <advance width="273"/>
  <unicode hex="2018"/>
  <outline>
    <contour>
      <point x="185" y="490" type="curve" smooth="yes" name="hr00"/>
      <point x="230" y="490"/>
      <point x="244" y="518"/>
      <point x="250" y="545" type="curve" smooth="yes"/>
      <point x="252" y="555"/>
      <point x="254" y="567"/>
      <point x="254" y="576" type="curve" smooth="yes"/>
      <point x="254" y="597"/>
      <point x="242" y="608"/>
      <point x="221" y="613" type="curve"/>
      <point x="242" y="658"/>
      <point x="270" y="697"/>
      <point x="319" y="740" type="curve"/>
      <point x="254" y="740" type="line"/>
      <point x="186" y="691"/>
      <point x="149" y="612"/>
      <point x="138" y="561" type="curve" smooth="yes"/>
      <point x="136" y="551"/>
      <point x="134" y="539"/>
      <point x="134" y="530" type="curve" smooth="yes"/>
      <point x="134" y="504"/>
      <point x="153" y="490"/>
    </contour>
  </outline>
</glyph>
<glyph name="dagger" format="1">
  <advance width="534"/>
  <unicode hex="2020"/>
  <outline>
    <contour>
      <point x="208" y="-200" type="line" name=""/>
      <point x="338" y="453" type="line"/>
      <point x="523" y="453" type="line"/>
      <point x="535" y="516" type="line"/>
      <point x="351" y="516" type="line"/>
      <point x="396" y="740" type="line"/>
      <point x="330" y="740" type="line"/>
      <point x="285" y="516" type="line"/>
      <point x="102" y="516" type="line"/>
      <point x="90" y="453" type="line"/>
      <point x="272" y="453" type="line"/>
      <point x="142" y="-200" type="line"/>
    </contour>
  </outline>
</glyph>
<glyph name="daggerdbl" format="1">
  <advance width="534"/>
  <unicode hex="2021"/>
  <outline>
    <contour>
      <point x="208" y="-200" type="line" name=""/>
      <point x="253" y="24" type="line"/>
      <point x="436" y="24" type="line"/>
      <point x="448" y="87" type="line"/>
      <point x="265" y="87" type="line"/>
      <point x="338" y="453" type="line"/>
      <point x="523" y="453" type="line"/>
      <point x="535" y="516" type="line"/>
      <point x="351" y="516" type="line"/>
      <point x="396" y="740" type="line"/>
      <point x="330" y="740" type="line"/>
      <point x="285" y="516" type="line"/>
      <point x="102" y="516" type="line"/>
      <point x="90" y="453" type="line"/>
      <point x="272" y="453" type="line"/>
      <point x="199" y="87" type="line"/>
      <point x="15" y="87" type="line"/>
      <point x="3" y="24" type="line"/>
      <point x="187" y="24" type="line"/>
      <point x="142" y="-200" type="line"/>
    </contour>
  </outline>
</glyph>
<glyph name="bullet" format="1">
  <advance width="386"/>
  <unicode hex="2022"/>
  <outline>
    <contour>
      <point x="181" y="186" type="curve" smooth="yes" name="hr00"/>
      <point x="263" y="186"/>
      <point x="301" y="228"/>
      <point x="313" y="287" type="curve" smooth="yes"/>
      <point x="319" y="316"/>
      <point x="321" y="337"/>
      <point x="321" y="344" type="curve" smooth="yes"/>
      <point x="321" y="391"/>
      <point x="289" y="422"/>
      <point x="221" y="422" type="curve" smooth="yes"/>
      <point x="139" y="422"/>
      <point x="101" y="380"/>
      <point x="89" y="321" type="curve" smooth="yes"/>
      <point x="83" y="292"/>
      <point x="81" y="271"/>
      <point x="81" y="264" type="curve" smooth="yes"/>
      <point x="81" y="217"/>
      <point x="113" y="186"/>
    </contour>
  </outline>
</glyph>
